<svg width="107" height="33" viewBox="0 0 107 33" fill="none" xmlns="http://www.w3.org/2000/svg">
<path d="M29.4332 16.4039C29.4685 16.5635 29.6585 16.6485 29.8042 16.7376C30.6369 17.1916 32.1519 17.7969 32.0547 18.9245C32.0547 20.6345 32.0547 26.6913 32.0547 28.1713C32.079 28.8035 31.8648 29.3631 31.4761 29.9539C31.2685 30.2731 31.0079 30.5903 30.7296 30.868C29.9588 31.6723 29.0048 32.1076 28.8369 32.4413C28.8413 32.5553 29.3581 32.5283 30.1488 32.5325C31.7345 32.5283 34.3162 32.5408 35.1488 32.5242C35.8534 32.5428 35.0473 32.0122 34.8109 31.6723C34.4222 31.2328 34.1837 30.7416 34.0998 30.1798C33.7707 28.1796 33.8127 23.0701 33.8259 21.6088C33.7597 20.5744 34.25 19.4219 35.2902 18.8768C35.8578 18.597 36.3216 18.7794 36.432 19.2727C36.6352 20.2075 36.1184 21.1714 35.8578 22.0606C35.3807 23.6774 36.1626 26.5317 38.2805 26.7701C39.7691 26.9587 41.5359 25.9782 40.891 24.3822C40.6348 23.6774 39.9347 23.0307 39.0933 23.1302C38.0619 23.2463 36.8317 24.1645 36.8693 22.6845C37.0062 20.7009 38.6648 19.3743 39.7757 17.8342C40.414 16.9429 40.7099 15.666 39.0027 16.1282C37.8631 16.4081 36.6617 17.0838 35.5133 17.3844C33.8723 17.7637 34.1307 15.8546 32.2491 15.8463C31.6152 15.7904 29.6761 15.8256 29.4354 16.3853V16.3998L29.4332 16.4039Z" fill="#191919"/>
<path d="M24.5746 29.1266C23.996 27.9928 19.283 5.08196 19.3183 4.0725C20.0538 3.00915 22.0083 2.53655 22.9447 1.76753C23.5786 1.21824 22.9381 0.331075 22.3042 0.0864835C21.9884 -0.0358124 21.6682 -0.00472025 21.3347 0.036736C20.3166 0.169396 18.2781 0.486536 16.7233 0.652361C15.7869 0.753929 15.0382 0.799531 14.1394 0.737347C12.2312 0.623342 8.66887 0.221216 7.18033 0.11343C6.59508 0.0263719 5.9789 0.339367 5.99657 0.948774C6.06724 2.08467 7.42327 2.06809 8.50103 2.40803C8.97144 2.53862 9.40652 2.74176 9.81951 2.97806C10.0183 3.28691 9.47277 7.29987 8.68433 12.0611C7.69492 12.1399 6.71655 12.4425 5.77572 13.0416C3.77039 14.2852 2.68821 16.7249 2.69042 18.7978C2.80306 20.1306 3.33089 23.6917 6.38306 24.3301C5.88614 26.606 5.45769 28.2208 5.21034 28.5296C4.18559 29.8106 -0.922708 31.2657 0.146213 32.1612C1.21513 33.0566 4.41306 32.1612 5.89277 32.1612C7.37247 32.1612 12.2908 33.351 12.2908 32.4638C12.2908 30.0366 8.1587 30.4822 7.98644 28.8696C7.94448 28.4757 8.19846 26.7511 8.60262 24.3736C11.7895 24.0793 13.627 22.591 13.627 20.029C13.5894 17.9147 12.1296 15.8067 10.2745 15.2242C10.3032 15.0688 10.3341 14.9154 10.3628 14.7599C13.5011 15.444 18.9053 18.2547 20.9085 23.1755C21.4937 26.2785 21.8935 28.6001 21.8603 28.9732C21.7455 30.2646 16.4693 30.9818 17.1959 32.2026C17.9226 33.4235 21.2088 32.3042 22.8122 32.3042C24.4156 32.3042 27.4611 32.8473 28.0641 32.4265C28.667 32.0057 25.1488 30.2583 24.5702 29.1245L24.5746 29.1266ZM5.07341 19.7803C4.88569 19.204 4.88127 18.6423 5.04249 18.0723C5.41794 16.6379 6.4979 15.2491 8.22496 14.7558C8.19404 14.9299 8.16312 15.1019 8.13441 15.2761C7.81639 15.3942 7.49615 15.56 7.18033 15.788C6.28809 16.4451 5.36493 17.5935 5.45769 18.6547C5.52836 19.1439 5.89056 19.4942 6.30576 19.3595C6.67679 19.2455 7.10083 18.5967 7.61762 18.1282C7.36364 19.5025 7.10524 20.8374 6.85568 22.0707C5.97669 21.5733 5.33622 20.6218 5.07341 19.7803ZM11.7431 19.629C12.028 20.912 10.4003 22.0127 8.9626 22.3298C9.22321 20.8726 9.51473 19.2787 9.81951 17.6494C10.7515 17.979 11.5444 18.8682 11.7431 19.629ZM10.8531 12.2187C11.774 7.44082 12.5603 3.50248 12.5603 3.50248C13.6402 2.92209 15.5837 2.69201 16.9331 3.24752C16.9331 3.24752 18.5741 11.1968 19.9654 18.2671C18.0882 16.2441 14.5524 13.0105 10.8553 12.2187H10.8531Z" fill="#191919"/>
<path d="M56.4457 15.0517C56.417 15.1844 56.6754 15.3067 56.788 15.4041C57.5345 15.9534 58.7889 16.768 59.3013 17.6386C59.5332 18.1174 59.4956 18.5672 59.5398 19.1186C59.6723 22.1781 59.4338 28.2887 59.3631 29.8931C59.3212 30.4237 58.7867 30.7906 58.3362 31.1513C57.6471 31.6715 56.6732 32.1877 56.4656 32.3804C56.2558 32.5794 56.7615 32.5172 56.9028 32.5338C58.2788 32.5338 62.1127 32.5338 63.4445 32.5338C63.5946 32.5359 63.842 32.5421 63.8906 32.453C63.7912 32.1856 63.0271 31.7752 62.4573 31.0787C62.1039 30.6724 61.8013 30.1812 61.5849 29.7107C61.3751 29.236 61.2956 29.0349 61.3 28.6038C61.2492 26.6367 61.3994 17.8231 61.2426 16.1503C60.6308 15.089 59.3455 14.8672 58.0248 14.9336C57.6361 14.9377 56.5694 14.9336 56.4567 15.0455L56.4501 15.0538L56.4457 15.0517Z" fill="#191919"/>
<path d="M60.2002 12.5732C61.1235 12.5732 61.872 11.608 61.872 10.4174C61.872 9.22687 61.1235 8.26172 60.2002 8.26172C59.2768 8.26172 58.5283 9.22687 58.5283 10.4174C58.5283 11.608 59.2768 12.5732 60.2002 12.5732Z" fill="#191919"/>
<path d="M104.576 18.9116C104.691 19.3842 103.251 18.3727 102.973 18.2691C101.316 17.3819 98.9685 16.6005 97.0117 17.0668C93.3412 18.0286 95.8744 20.3937 98.158 21.3907C99.3152 21.9193 100.528 22.1286 101.692 22.6095C103.927 23.5382 106.579 25.5612 106.133 28.0755C105.656 30.3639 103.085 31.9496 100.64 32.5632C98.9332 32.9777 97.1354 32.7725 95.5585 32.018C92.725 30.7681 90.808 27.4661 93.35 25.1052C94.6023 23.99 96.3669 23.9631 97.8355 24.958C98.6991 25.5094 99.4897 26.5645 99.2733 27.5138C99.0105 28.9254 96.8947 29.6198 95.6381 28.83C94.9115 28.4072 94.5139 27.4268 95.0594 26.7572C95.4901 26.2121 96.5723 26.21 96.9278 26.0877C97.1906 26.011 97.0382 25.8473 96.8417 25.7706C96.2255 25.5073 95.3797 25.555 94.7591 25.8556C92.0492 27.2837 94.1252 29.883 96.4994 30.6417C97.8709 31.1164 99.3086 31.1412 100.689 30.7806C103.291 30.1338 105.285 27.9429 102.895 25.7457C101.261 24.102 98.6748 23.9361 96.5634 23.0759C93.434 21.7825 91.5258 18.2463 94.1164 15.7506C97.2701 13.1969 102.948 15.7775 104.567 18.8971L104.571 18.9096L104.576 18.9116Z" fill="#191919"/>
<path d="M77.4907 18.9116C77.6055 19.3842 76.1656 18.3727 75.8873 18.2691C74.2309 17.3819 71.8833 16.6005 69.9265 17.0668C66.256 18.0286 68.7892 20.3937 71.0728 21.3907C72.23 21.9193 73.4425 22.1286 74.6064 22.6095C76.8414 23.5382 79.4938 25.5612 79.0477 28.0755C78.5707 30.3639 76 31.9496 73.5551 32.5632C71.8479 32.9777 70.0502 32.7725 68.4733 32.018C65.6398 30.7681 63.7228 27.4661 66.2648 25.1052C67.5171 23.99 69.2817 23.9631 70.7503 24.958C71.6138 25.5094 72.4045 26.5645 72.1881 27.5138C71.9252 28.9254 69.8095 29.6198 68.5528 28.83C67.8262 28.4072 67.4287 27.4268 67.9742 26.7572C68.4049 26.2121 69.487 26.21 69.8426 26.0877C70.1054 26.011 69.953 25.8473 69.7565 25.7706C69.1403 25.5073 68.2944 25.555 67.6739 25.8556C64.964 27.2837 67.04 29.883 69.4142 30.6417C70.7856 31.1164 72.2234 31.1412 73.6037 30.7806C76.2053 30.1338 78.1996 27.9429 75.81 25.7457C74.1757 24.102 71.5896 23.9361 69.4782 23.0759C66.3487 21.7825 64.4406 18.2463 67.0312 15.7506C70.1849 13.1969 75.863 15.7775 77.4819 18.8971L77.4863 18.9096L77.4907 18.9116Z" fill="#191919"/>
<path d="M46.5493 11.2896C46.1451 12.0109 45.275 12.6783 44.7692 13.2608C44.3805 13.6567 44.4159 14.0858 44.7957 14.4817C45.1027 14.89 45.8161 15.3854 45.6725 15.9202C45.1911 16.7411 43.3271 16.6001 42.9848 17.5888C42.9317 17.794 43.0179 17.9951 43.1924 18.1319C43.8152 18.6128 44.8046 18.3371 45.4649 18.5817C45.9066 18.8367 45.7233 19.3569 45.7741 19.8109C45.8404 22.7211 45.328 28.042 45.4627 30.1791C45.9883 31.7233 48.1748 33.3878 50.1403 32.5007C51.249 32.0301 53.1815 30.604 52.7884 29.4619C52.6558 28.9914 52.1943 28.5001 51.6797 28.6307C51.2093 28.7385 50.8934 29.3624 50.5202 29.6816C50.0542 30.1066 49.1973 30.0651 48.6628 29.7521C48.241 29.5282 48.0599 29.1157 48.0423 28.6763C47.8656 26.6988 47.6005 20.9053 47.7309 19.0626C47.7485 18.7455 47.8744 18.4449 48.2145 18.3371C48.7026 18.1506 49.7826 18.2729 50.052 18.6045C50.2861 18.8968 50.0697 19.1766 49.7892 19.6223C49.3939 20.2047 48.9566 20.8929 48.7446 21.5769C48.1394 23.3305 49.2371 25.793 50.8581 26.5848C51.916 27.0326 53.3626 26.6885 53.9942 25.764C54.5817 24.9349 54.4668 23.2932 53.5172 22.7605C52.9187 22.3998 52.117 22.6424 51.5185 22.889C50.5312 23.3533 50.306 22.5055 50.6593 21.8153C51.2225 20.6877 53.5525 19.0087 53.2013 17.6655C53.0512 17.195 52.4924 16.826 51.9005 16.7017C50.73 16.4156 49.0957 17.3919 48.2432 16.2415C47.8788 15.5803 48.1902 15.0621 48.4332 14.1666C48.7711 13.0825 49.2393 11.6461 49.469 10.5972C49.7008 9.75775 49.6302 8.5493 48.654 8.20314C48.0158 7.95026 47.309 8.5265 47.0992 9.24162C46.8408 9.89041 46.8784 10.6346 46.5736 11.2522L46.5559 11.2833L46.5493 11.2896Z" fill="#191919"/>
<path d="M82.9433 11.2896C82.5392 12.0109 81.669 12.6783 81.1633 13.2608C80.7746 13.6567 80.8099 14.0858 81.1898 14.4817C81.4968 14.89 82.2101 15.3854 82.0666 15.9202C81.5851 16.7411 79.7211 16.6001 79.3788 17.5888C79.3258 17.794 79.4119 17.9951 79.5864 18.1319C80.2092 18.6128 81.1986 18.3371 81.859 18.5817C82.3007 18.8367 82.1173 19.3569 82.1681 19.8109C82.2344 22.7211 81.722 28.042 81.8568 30.1791C82.3824 31.7233 84.5688 33.3878 86.5344 32.5007C87.6431 32.0301 89.5755 30.604 89.1824 29.4619C89.0499 28.9914 88.5883 28.5001 88.0737 28.6307C87.6033 28.7385 87.2875 29.3624 86.9142 29.6816C86.4483 30.1066 85.5913 30.0651 85.0569 29.7521C84.6351 29.5282 84.454 29.1157 84.4363 28.6763C84.2596 26.6988 83.9946 20.9053 84.1249 19.0626C84.1426 18.7455 84.2684 18.4449 84.6086 18.3371C85.0966 18.1506 86.1766 18.2729 86.446 18.6045C86.6801 18.8968 86.4637 19.1766 86.1832 19.6223C85.7879 20.2047 85.3506 20.8929 85.1386 21.5769C84.5335 23.3305 85.6311 25.793 87.2522 26.5848C88.31 27.0326 89.7566 26.6885 90.3882 25.764C90.9757 24.9349 90.8609 23.2932 89.9112 22.7605C89.3127 22.3998 88.511 22.6424 87.9125 22.889C86.9253 23.3533 86.7 22.5055 87.0534 21.8153C87.6166 20.6877 89.9465 19.0087 89.5954 17.6655C89.4452 17.195 88.8865 16.826 88.2946 16.7017C87.1241 16.4156 85.4898 17.3919 84.6373 16.2415C84.2729 15.5803 84.5843 15.0621 84.8272 14.1666C85.1651 13.0825 85.6333 11.6461 85.863 10.5972C86.0949 9.75775 86.0242 8.5493 85.0481 8.20314C84.4098 7.95026 83.7031 8.5265 83.4933 9.24162C83.2349 9.89041 83.2724 10.6346 82.9676 11.2522L82.95 11.2833L82.9433 11.2896Z" fill="#191919"/>
</svg>
