<?xml version="1.0" encoding="UTF-8"?>
<svg id="_レイヤー_2" data-name="レイヤー 2" xmlns="http://www.w3.org/2000/svg" viewBox="0 0 480.79 158.22">
  <defs>
    <style>
      .cls-1 {
        fill: #191919;
      }
    </style>
  </defs>
  <g id="_レイヤー_1-2" data-name="レイヤー 1">
    <g>
      <path class="cls-1" d="M133.27,79.15c.16.77,1.02,1.18,1.68,1.61,3.77,2.19,10.63,5.11,10.19,10.55,0,8.25,0,37.47,0,44.61.11,3.05-.86,5.75-2.62,8.6-.94,1.54-2.12,3.07-3.38,4.41-3.49,3.88-7.81,5.98-8.57,7.59.02.55,2.36.42,5.94.44,7.18-.02,18.87.04,22.64-.04,3.19.09-.46-2.47-1.53-4.11-1.76-2.12-2.84-4.49-3.22-7.2-1.49-9.65-1.3-34.3-1.24-41.35-.3-4.99,1.92-10.55,6.63-13.18,2.57-1.35,4.67-.47,5.17,1.91.92,4.51-1.42,9.16-2.6,13.45-2.16,7.8,1.38,21.57,10.97,22.72,6.74.91,14.74-3.82,11.82-11.52-1.16-3.4-4.33-6.52-8.14-6.04-4.67.56-10.24,4.99-10.07-2.15.62-9.57,8.13-15.97,13.16-23.4,2.89-4.3,4.23-10.46-3.5-8.23-5.16,1.35-10.6,4.61-15.8,6.06-7.43,1.83-6.26-7.38-14.78-7.42-2.87-.27-11.65-.1-12.74,2.6v.07Z"/>
      <path class="cls-1" d="M111.27,140.53c-2.62-5.47-23.96-116-23.8-120.87,3.33-5.13,12.18-7.41,16.42-11.12,2.87-2.65-.03-6.93-2.9-8.11-1.43-.59-2.88-.44-4.39-.24-4.61.64-13.84,2.17-20.88,2.97-4.24.49-7.63.71-11.7.41-8.64-.55-24.77-2.49-31.51-3.01-2.65-.42-5.44,1.09-5.36,4.03.32,5.48,6.46,5.4,11.34,7.04,2.13.63,4.1,1.61,5.97,2.75.9,1.49-1.57,20.85-5.14,43.82-4.48.38-8.91,1.84-13.17,4.73-9.08,6-13.98,17.77-13.97,27.77.51,6.43,2.9,23.61,16.72,26.69-2.25,10.98-4.19,18.77-5.31,20.26-4.64,6.18-27.77,13.2-22.93,17.52s19.32,0,26.02,0,28.97,5.74,28.97,1.46c0-11.71-18.71-9.56-19.49-17.34-.19-1.9.96-10.22,2.79-21.69,14.43-1.42,22.75-8.6,22.75-20.96-.17-10.2-6.78-20.37-15.18-23.18.13-.75.27-1.49.4-2.24,14.21,3.3,38.68,16.86,47.75,40.6,2.65,14.97,4.46,26.17,4.31,27.97-.52,6.23-24.41,9.69-21.12,15.58,3.29,5.89,18.17.49,25.43.49s21.05,2.62,23.78.59-13.2-10.46-15.82-15.93ZM22.97,95.44c-.85-2.78-.87-5.49-.14-8.24,1.7-6.92,6.59-13.62,14.41-16-.14.84-.28,1.67-.41,2.51-1.44.57-2.89,1.37-4.32,2.47-4.04,3.17-8.22,8.71-7.8,13.83.32,2.36,1.96,4.05,3.84,3.4,1.68-.55,3.6-3.68,5.94-5.94-1.15,6.63-2.32,13.07-3.45,19.02-3.98-2.4-6.88-6.99-8.07-11.05ZM53.17,94.71c1.29,6.19-6.08,11.5-12.59,13.03,1.18-7.03,2.5-14.72,3.88-22.58,4.22,1.59,7.81,5.88,8.71,9.55ZM49.14,58.96c4.17-23.05,7.73-42.05,7.73-42.05,4.89-2.8,13.69-3.91,19.8-1.23,0,0,7.43,38.35,13.73,72.46-8.5-9.76-24.51-25.36-41.25-29.18Z"/>
      <path class="cls-1" d="M255.58,72.63c-.13.64,1.04,1.23,1.55,1.7,3.38,2.65,9.06,6.58,11.38,10.78,1.05,2.31.88,4.48,1.08,7.14.6,14.76-.48,44.24-.8,51.98-.19,2.56-2.61,4.33-4.65,6.07-3.12,2.51-7.53,5-8.47,5.93-.95.96,1.34.66,1.98.74,6.23,0,23.59,0,29.62,0,.68.01,1.8.04,2.02-.39-.45-1.29-3.91-3.27-6.49-6.63-1.6-1.96-2.97-4.33-3.95-6.6-.95-2.29-1.31-3.26-1.29-5.34-.23-9.49.45-52.01-.26-60.08-2.77-5.12-8.59-6.19-14.57-5.87-1.76.02-6.59,0-7.1.54l-.03.04Z"/>
      <ellipse class="cls-1" cx="272.58" cy="50.27" rx="7.57" ry="10.4"/>
      <path class="cls-1" d="M473.51,91.25c.52,2.28-6-2.6-7.26-3.1-7.5-4.28-18.13-8.05-26.99-5.8-16.62,4.64-5.15,16.05,5.19,20.86,5.24,2.55,10.73,3.56,16,5.88,10.12,4.48,22.13,14.24,20.11,26.37-2.16,11.04-13.8,18.69-24.87,21.65-7.73,2-15.87,1.01-23.01-2.63-12.83-6.03-21.51-21.96-10-33.35,5.67-5.38,13.66-5.51,20.31-.71,3.91,2.66,7.49,7.75,6.51,12.33-1.19,6.81-10.77,10.16-16.46,6.35-3.29-2.04-5.09-6.77-2.62-10,1.95-2.63,6.85-2.64,8.46-3.23,1.19-.37.5-1.16-.39-1.53-2.79-1.27-6.62-1.04-9.43.41-12.27,6.89-2.87,19.43,7.88,23.09,6.21,2.29,12.72,2.41,18.97.67,11.78-3.12,20.81-13.69,9.99-24.29-7.4-7.93-19.11-8.73-28.67-12.88-14.17-6.24-22.81-23.3-11.08-35.34,14.28-12.32,39.99.13,47.32,15.18l.02.06Z"/>
      <path class="cls-1" d="M350.87,91.25c.52,2.28-6-2.6-7.26-3.1-7.5-4.28-18.13-8.05-26.99-5.8-16.62,4.64-5.15,16.05,5.19,20.86,5.24,2.55,10.73,3.56,16,5.88,10.12,4.48,22.13,14.24,20.11,26.37-2.16,11.04-13.8,18.69-24.87,21.65-7.73,2-15.87,1.01-23.01-2.63-12.83-6.03-21.51-21.96-10-33.35,5.67-5.38,13.66-5.51,20.31-.71,3.91,2.66,7.49,7.75,6.51,12.33-1.19,6.81-10.77,10.16-16.46,6.35-3.29-2.04-5.09-6.77-2.62-10,1.95-2.63,6.85-2.64,8.46-3.23,1.19-.37.5-1.16-.39-1.53-2.79-1.27-6.62-1.04-9.43.41-12.27,6.89-2.87,19.43,7.88,23.09,6.21,2.29,12.72,2.41,18.97.67,11.78-3.12,20.81-13.69,9.99-24.29-7.4-7.93-19.11-8.73-28.67-12.88-14.17-6.24-22.81-23.3-11.08-35.34,14.28-12.32,39.99.13,47.32,15.18l.02.06Z"/>
      <path class="cls-1" d="M210.77,54.48c-1.83,3.48-5.77,6.7-8.06,9.51-1.76,1.91-1.6,3.98.12,5.89,1.39,1.97,4.62,4.36,3.97,6.94-2.18,3.96-10.62,3.28-12.17,8.05-.24.99.15,1.96.94,2.62,2.82,2.32,7.3.99,10.29,2.17,2,1.23,1.17,3.74,1.4,5.93.3,14.04-2.02,39.71-1.41,50.02,2.38,7.45,12.28,15.48,21.18,11.2,5.02-2.27,13.77-9.15,11.99-14.66-.6-2.27-2.69-4.64-5.02-4.01-2.13.52-3.56,3.53-5.25,5.07-2.11,2.05-5.99,1.85-8.41.34-1.91-1.08-2.73-3.07-2.81-5.19-.8-9.54-2-37.49-1.41-46.38.08-1.53.65-2.98,2.19-3.5,2.21-.9,7.1-.31,8.32,1.29,1.06,1.41.08,2.76-1.19,4.91-1.79,2.81-3.77,6.13-4.73,9.43-2.74,8.46,2.23,20.34,9.57,24.16,4.79,2.16,11.34.5,14.2-3.96,2.66-4,2.14-11.92-2.16-14.49-2.71-1.74-6.34-.57-9.05.62-4.47,2.24-5.49-1.85-3.89-5.18,2.55-5.44,13.1-13.54,11.51-20.02-.68-2.27-3.21-4.05-5.89-4.65-5.3-1.38-12.7,3.33-16.56-2.22-1.65-3.19-.24-5.69.86-10.01,1.53-5.23,3.65-12.16,4.69-17.22,1.05-4.05.73-9.88-3.69-11.55-2.89-1.22-6.09,1.56-7.04,5.01-1.17,3.13-1,6.72-2.38,9.7l-.08.15Z"/>
      <path class="cls-1" d="M375.56,54.48c-1.83,3.48-5.77,6.7-8.06,9.51-1.76,1.91-1.6,3.98.12,5.89,1.39,1.97,4.62,4.36,3.97,6.94-2.18,3.96-10.62,3.28-12.17,8.05-.24.99.15,1.96.94,2.62,2.82,2.32,7.3.99,10.29,2.17,2,1.23,1.17,3.74,1.4,5.93.3,14.04-2.02,39.71-1.41,50.02,2.38,7.45,12.28,15.48,21.18,11.2,5.02-2.27,13.77-9.15,11.99-14.66-.6-2.27-2.69-4.64-5.02-4.01-2.13.52-3.56,3.53-5.25,5.07-2.11,2.05-5.99,1.85-8.41.34-1.91-1.08-2.73-3.07-2.81-5.19-.8-9.54-2-37.49-1.41-46.38.08-1.53.65-2.98,2.19-3.5,2.21-.9,7.1-.31,8.32,1.29,1.06,1.41.08,2.76-1.19,4.91-1.79,2.81-3.77,6.13-4.73,9.43-2.74,8.46,2.23,20.34,9.57,24.16,4.79,2.16,11.34.5,14.2-3.96,2.66-4,2.14-11.92-2.16-14.49-2.71-1.74-6.34-.57-9.05.62-4.47,2.24-5.49-1.85-3.89-5.18,2.55-5.44,13.1-13.54,11.51-20.02-.68-2.27-3.21-4.05-5.89-4.65-5.3-1.38-12.7,3.33-16.56-2.22-1.65-3.19-.24-5.69.86-10.01,1.53-5.23,3.65-12.16,4.69-17.22,1.05-4.05.73-9.88-3.69-11.55-2.89-1.22-6.09,1.56-7.04,5.01-1.17,3.13-1,6.72-2.38,9.7l-.08.15Z"/>
    </g>
  </g>
</svg>