<svg width="83" height="45" viewBox="0 0 83 45" fill="none" xmlns="http://www.w3.org/2000/svg">
<g clip-path="url(#clip0_270_366)">
<path d="M24.3991 18.8181C24.4331 18.9717 24.6162 19.0536 24.7566 19.1394C25.559 19.5765 27.019 20.1593 26.9253 21.245C26.9253 22.8916 26.9253 28.7236 26.9253 30.1486C26.9487 30.7574 26.7423 31.2963 26.3677 31.8651C26.1677 32.1725 25.9165 32.4778 25.6484 32.7453C24.9056 33.5197 23.9862 33.9388 23.8245 34.2601C23.8287 34.3699 24.3267 34.344 25.0886 34.348C26.6167 34.344 29.1047 34.3559 29.907 34.34C30.5859 34.3579 29.8091 33.847 29.5814 33.5197C29.2068 33.0966 28.977 32.6235 28.8961 32.0826C28.579 30.1566 28.6194 25.2368 28.6322 23.8297C28.5684 22.8338 29.0408 21.7241 30.0432 21.1991C30.5902 20.9297 31.0371 21.1053 31.1435 21.5804C31.3393 22.4805 30.8413 23.4086 30.5902 24.2648C30.1305 25.8216 30.8839 28.5699 32.9249 28.7994C34.3594 28.9811 36.062 28.037 35.4405 26.5002C35.1936 25.8216 34.519 25.1989 33.7081 25.2947C32.7142 25.4064 31.5288 26.2906 31.5649 24.8656C31.6969 22.9555 33.2952 21.6782 34.3657 20.1952C34.9808 19.337 35.266 18.1075 33.6208 18.5526C32.5227 18.8221 31.3649 19.4727 30.2582 19.7621C28.6769 20.1274 28.9259 18.2892 27.1126 18.2812C26.5018 18.2273 24.6332 18.2612 24.4012 18.8001V18.8141L24.3991 18.8181Z" fill="#191919"/>
<path d="M18.0638 15.8776C17.121 15.3247 21.12 14.7878 22.531 10.6304C25.9448 0.774807 14.4479 0.90454 7.86733 0.916515C7.00752 0.90454 6.04767 0.764828 5.1687 0.587196C3.67892 0.345695 1.6592 -0.510536 0.758948 0.433513C0.720639 0.557257 0.782358 0.651064 0.884515 0.746866C1.41658 1.30371 4.14075 1.81665 4.43871 2.7607C5.18786 5.67867 4.9878 25.5995 4.40253 29.5793C4.34507 30.182 3.91728 30.8387 3.45332 31.3436C2.20829 32.7427 -0.100869 33.7227 0.00341551 34.4692C0.571661 35.8164 3.96623 34.4193 5.24958 34.1937C6.92452 33.9183 8.20786 34.1598 10.2297 34.2237C12.026 34.3155 13.7605 34.4273 15.512 34.3634C16.7528 34.3554 17.7233 34.048 18.7002 33.3954C25.4957 29.1921 25.7745 19.1808 18.083 15.8896L18.0638 15.8756V15.8776ZM16.8869 31.5891C14.6969 32.2837 9.29114 32.1659 7.40763 31.5632C6.77341 31.3776 6.76277 30.9784 6.73936 30.4036C6.44779 25.855 6.99262 4.55699 7.35017 2.61301C7.51192 2.21383 8.00142 2.27571 8.73354 2.23778C9.95516 2.25575 11.8536 2.54714 13.8563 2.64694C14.6522 2.69484 15.4546 2.7128 16.2293 2.8605C18.93 3.38342 20.805 5.93614 20.9859 8.36512C21.3541 15.3926 9.65294 13.4985 7.69282 18.7497C7.27142 19.8853 7.37783 21.4082 8.1355 22.3861C9.28475 23.9429 11.8067 24.3042 13.3689 23.1685C15.7419 21.5359 14.6246 16.642 11.1491 18.4982C10.5617 18.8395 9.3486 19.9372 10.2169 20.4861C11.1619 20.8134 11.9664 19.3404 12.6964 19.6578C13.2731 20.1029 13.1135 21.011 12.6857 21.5179C11.9089 22.4241 10.6894 22.7713 9.79128 21.8972C7.08413 19.2566 10.4234 17.1569 13.6966 16.6979C14.7586 16.5263 16.0356 16.5223 16.9252 16.9574C19.7707 18.3285 21.8521 21.8313 21.9458 24.9588C21.982 27.8069 19.4408 30.3676 16.9082 31.5732L16.8848 31.5831L16.8869 31.5891Z" fill="#191919"/>
<path d="M49.0871 33.228C48.1996 32.5075 47.8442 31.5894 48.008 30.5835C48.14 28.7652 48.4805 24.2266 47.9697 21.7777C47.3887 18.72 43.5685 17.726 40.6975 18.7719C39.4673 19.195 37.1113 20.3586 37.6966 21.7956C38.4926 22.8754 40.4804 19.5123 43.0407 19.8856C44.3453 19.9854 45.6244 20.9095 46.1841 21.7098C46.7055 22.3066 47.0248 24.1747 45.9074 24.2825C45.1604 24.2905 44.3793 24.037 43.6238 23.9452C42.4682 23.7396 41.4445 23.8155 40.4165 24.3164C39.0715 24.9252 37.8413 25.9271 37.3433 27.2863C36.3579 30.1723 38.0946 34.22 41.304 34.699C42.0681 34.8327 42.9066 34.8147 43.6494 34.6471C44.4879 34.4634 44.9987 34.0762 45.8542 34.0244C46.2756 33.9944 46.7055 34.0583 47.0971 34.184C48.0314 34.5533 49.0934 34.9405 50.1256 34.693C50.4172 34.6151 50.762 34.5812 50.862 34.3457C50.8727 34.1581 50.2938 33.9725 49.7213 33.6531C49.5148 33.5394 49.3084 33.4036 49.119 33.2539L49.0871 33.228ZM42.4086 33.1182C40.9167 33.0803 39.7036 32.0125 39.1055 30.7851C37.9477 28.6934 38.9693 26.6935 40.9997 25.5818C42.1702 24.9331 43.5429 25.0788 44.7667 25.498C46.3437 26.0868 46.5864 27.3541 46.6225 28.891C46.7417 31.3459 45.1668 33.1721 42.4533 33.1202H42.4107L42.4086 33.1182Z" fill="#191919"/>
<path d="M51.4368 18.3368C51.2687 19.1491 52.6606 19.5443 53.265 19.7498C53.6162 19.8696 53.8716 20.0871 53.9163 20.4344C54.2312 22.4203 54.6569 29.3819 54.21 31.4277C53.8524 32.0624 52.8543 32.1702 52.2285 32.5873C49.7193 34.4195 57.4832 34.3636 58.3771 33.8008C58.7602 33.6311 58.724 33.4016 58.3686 33.0883C57.9344 32.709 57.1597 32.258 56.7575 31.7909C56.4702 31.4736 56.385 31.1543 56.3425 30.7651C56.1765 29.346 55.9913 26.0348 56.2531 23.7096C56.3744 22.8394 56.4425 22.0171 57.0001 21.3206C57.7109 20.4504 59.1731 19.7878 60.4309 19.8875C62.591 19.9714 64.4618 21.6519 64.8683 23.6218C65.2897 25.8033 63.5637 28.9488 62.6293 30.8269C61.3332 33.4635 58.6921 35.4234 57.8855 38.7685C57.6492 40.6985 58.1345 43.1774 59.9328 44.4268C60.9182 45.0954 62.5315 45.1354 63.7233 44.7721C66.5624 44.0416 66.9561 40.7305 64.6916 39.2296C63.1933 38.1857 60.9161 39.2156 60.7586 40.8343C60.5692 41.9998 61.8291 42.912 62.9975 42.5427C63.8659 42.2833 63.5956 41.4869 63.636 40.95C63.6467 40.9061 63.6552 40.8602 63.6892 40.8343C63.7701 40.7564 63.9936 40.95 64.1213 41.2374C64.4788 42.0218 63.5807 42.88 62.7272 43.0098C61.031 43.2932 60.118 41.449 59.9541 40.0758C60.2776 34.3556 65.3876 33.6411 66.7071 27.6435C67.0902 25.9849 67.4648 24.3364 67.0072 22.6778C66.4262 19.9594 63.5594 18.2409 61.2651 17.9036C60.5607 17.7639 59.8222 17.9036 59.1603 18.1851C57.7705 18.8257 56.9767 19.4285 55.6401 18.5004C54.808 17.9695 53.68 17.7719 52.701 17.7959C52.1051 17.8098 51.5965 17.8358 51.4432 18.3088L51.4368 18.3328V18.3368Z" fill="#191919"/>
<path d="M80.5109 31.2615C80.1831 27.7987 80.7663 15.4243 80.8067 12.2748C80.8173 11.9514 80.8876 11.6601 81.0195 11.3227C81.2579 10.7499 81.5409 9.83383 81.0408 9.24504C80.3576 8.40478 79.1913 8.33692 78.0825 8.2491C77.2248 8.23114 75.6904 8.04552 75.2902 8.92371C75.2434 9.6063 76.3501 9.85578 76.8971 10.215C77.5377 10.5523 77.9357 10.9715 78.0655 11.6201C78.4103 13.1789 78.4337 16.4482 78.3273 17.957C78.2634 19.1665 77.9144 18.959 76.8928 18.4301C75.237 17.5279 73.1748 17.2944 71.4849 18.1387C68.6096 19.408 67.388 23.4297 67.918 26.675C68.516 30.7067 70.8315 34.2274 74.5666 34.2893C75.518 34.3112 76.6289 34.1216 77.4249 33.5608C77.9144 33.2375 78.1315 32.8503 78.4145 32.7225C78.704 32.6028 78.9019 32.7744 79.1828 33.1257C79.6787 33.8841 80.5385 34.3252 81.5048 34.1835C82.0049 34.1236 83.1563 33.8961 82.9839 33.2933C82.7243 32.8542 81.9857 32.6826 81.3494 32.2036C81.0131 31.9601 80.6896 31.6447 80.5236 31.2875L80.513 31.2615H80.5109ZM69.9079 26.0463C69.8632 23.2721 70.7209 19.9609 73.6047 19.5937C75.103 19.2703 76.9396 20.0028 77.5675 21.338C77.61 21.5117 77.5334 21.6374 77.3972 21.7492C76.6779 22.2781 74.6773 23.6852 72.9513 24.9167C71.9382 25.6352 71.2104 26.1541 70.4931 26.665C69.9504 27.0942 69.9164 26.8187 69.91 26.0822V26.0483L69.9079 26.0463ZM74.9412 31.9202C74.041 31.9102 73.0428 31.7964 72.2362 31.4072C71.8148 31.1757 71.2891 30.9602 71.4636 30.6009C72.8044 29.4233 77.0163 26.0423 78.4039 24.9785C78.7934 24.7889 78.5997 26.4754 78.6359 26.7329C78.4848 29.5231 78.6018 32.0739 74.9838 31.9202H74.9412ZM70.176 29.2098C72.7725 26.9145 75.6627 24.6752 78.5635 22.7312C75.9734 25.0284 73.0769 27.2618 70.1782 29.2118L70.176 29.2098Z" fill="#191919"/>
</g>
<defs>
<clipPath id="clip0_270_366">
<rect width="83" height="45" fill="white"/>
</clipPath>
</defs>
</svg>
