<?xml version="1.0" encoding="UTF-8"?>
<svg id="_レイヤー_2" data-name="レイヤー 2" xmlns="http://www.w3.org/2000/svg" viewBox="0 0 389.99 225.47">
  <defs>
    <style>
      .cls-1 {
        fill: #191919;
      }
    </style>
  </defs>
  <g id="_レイヤー_1-2" data-name="レイヤー 1">
    <g>
      <g>
        <path class="cls-1" d="M114.65,94.28c.16.77,1.02,1.18,1.68,1.61,3.77,2.19,10.63,5.11,10.19,10.55,0,8.25,0,37.47,0,44.61.11,3.05-.86,5.75-2.62,8.6-.94,1.54-2.12,3.07-3.38,4.41-3.49,3.88-7.81,5.98-8.57,7.59.02.55,2.36.42,5.94.44,7.18-.02,18.87.04,22.64-.04,3.19.09-.46-2.47-1.53-4.11-1.76-2.12-2.84-4.49-3.22-7.2-1.49-9.65-1.3-34.3-1.24-41.35-.3-4.99,1.92-10.55,6.63-13.18,2.57-1.35,4.67-.47,5.17,1.91.92,4.51-1.42,9.16-2.6,13.45-2.16,7.8,1.38,21.57,10.97,22.72,6.74.91,14.74-3.82,11.82-11.52-1.16-3.4-4.33-6.52-8.14-6.04-4.67.56-10.24,4.99-10.07-2.15.62-9.57,8.13-15.97,13.16-23.4,2.89-4.3,4.23-10.46-3.5-8.23-5.16,1.35-10.6,4.61-15.8,6.06-7.43,1.83-6.26-7.38-14.78-7.42-2.87-.27-11.65-.1-12.74,2.6v.07Z"/>
        <path class="cls-1" d="M84.88,79.55c-4.43-2.77,14.36-5.46,20.99-26.29C121.91,3.88,67.89,4.53,36.97,4.59c-4.04-.06-8.55-.76-12.68-1.65C17.29,1.73,7.8-2.56,3.57,2.17c-.18.62.11,1.09.59,1.57,2.5,2.79,15.3,5.36,16.7,10.09,3.52,14.62,2.58,114.43-.17,134.37-.27,3.02-2.28,6.31-4.46,8.84C10.38,164.05-.47,168.96.02,172.7c2.67,6.75,18.62-.25,24.65-1.38,7.87-1.38,13.9-.17,23.4.15,8.44.46,16.59,1.02,24.82.7,5.83-.04,10.39-1.58,14.98-4.85,31.93-21.06,33.24-71.22-2.9-87.71l-.09-.07ZM79.35,158.27c-10.29,3.48-35.69,2.89-44.54-.13-2.98-.93-3.03-2.93-3.14-5.81-1.37-22.79,1.19-129.5,2.87-139.24.76-2,3.06-1.69,6.5-1.88,5.74.09,14.66,1.55,24.07,2.05,3.74.24,7.51.33,11.15,1.07,12.69,2.62,21.5,15.41,22.35,27.58,1.73,35.21-53.25,25.72-62.46,52.03-1.98,5.69-1.48,13.32,2.08,18.22,5.4,7.8,17.25,9.61,24.59,3.92,11.15-8.18,5.9-32.7-10.43-23.4-2.76,1.71-8.46,7.21-4.38,9.96,4.44,1.64,8.22-5.74,11.65-4.15,2.71,2.23,1.96,6.78-.05,9.32-3.65,4.54-9.38,6.28-13.6,1.9-12.72-13.23,2.97-23.75,18.35-26.05,4.99-.86,10.99-.88,15.17,1.3,13.37,6.87,23.15,24.42,23.59,40.09.17,14.27-11.77,27.1-23.67,33.14l-.11.05Z"/>
      </g>
      <path class="cls-1" d="M230.65,166.48c-4.17-3.61-5.84-8.21-5.07-13.25.62-9.11,2.22-31.85-.18-44.12-2.73-15.32-20.68-20.3-34.17-15.06-5.78,2.12-16.85,7.95-14.1,15.15,3.74,5.41,13.08-11.44,25.11-9.57,6.13.5,12.14,5.13,14.77,9.14,2.45,2.99,3.95,12.35-1.3,12.89-3.51.04-7.18-1.23-10.73-1.69-5.43-1.03-10.24-.65-15.07,1.86-6.32,3.05-12.1,8.07-14.44,14.88-4.63,14.46,3.53,34.74,18.61,37.14,3.59.67,7.53.58,11.02-.26,3.94-.92,6.34-2.86,10.36-3.12,1.98-.15,4,.17,5.84.8,4.39,1.85,9.38,3.79,14.23,2.55,1.37-.39,2.99-.56,3.46-1.74.05-.94-2.67-1.87-5.36-3.47-.97-.57-1.94-1.25-2.83-2l-.15-.13ZM199.27,165.93c-7.01-.19-12.71-5.54-15.52-11.69-5.44-10.48-.64-20.5,8.9-26.07,5.5-3.25,11.95-2.52,17.7-.42,7.41,2.95,8.55,9.3,8.72,17,.56,12.3-6.84,21.45-19.59,21.19h-.2Z"/>
      <path class="cls-1" d="M241.69,91.87c-.79,4.07,5.75,6.05,8.59,7.08,1.65.6,2.85,1.69,3.06,3.43,1.48,9.95,3.48,44.83,1.38,55.08-1.68,3.18-6.37,3.72-9.31,5.81-11.79,9.18,24.69,8.9,28.89,6.08,1.8-.85,1.63-2-.04-3.57-2.04-1.9-5.68-4.16-7.57-6.5-1.35-1.59-1.75-3.19-1.95-5.14-.78-7.11-1.65-23.7-.42-35.35.57-4.36.89-8.48,3.51-11.97,3.34-4.36,10.21-7.68,16.12-7.18,10.15.42,18.94,8.84,20.85,18.71,1.98,10.93-6.13,26.69-10.52,36.1-6.09,13.21-18.5,23.03-22.29,39.79-1.11,9.67,1.17,22.09,9.62,28.35,4.63,3.35,12.21,3.55,17.81,1.73,13.34-3.66,15.19-20.25,4.55-27.77-7.04-5.23-17.74-.07-18.48,8.04-.89,5.84,5.03,10.41,10.52,8.56,4.08-1.3,2.81-5.29,3-7.98.05-.22.09-.45.25-.58.38-.39,1.43.58,2.03,2.02,1.68,3.93-2.54,8.23-6.55,8.88-7.97,1.42-12.26-7.82-13.03-14.7,1.52-28.66,25.53-32.24,31.73-62.29,1.8-8.31,3.56-16.57,1.41-24.88-2.73-13.62-16.2-22.23-26.98-23.92-3.31-.7-6.78,0-9.89,1.41-6.53,3.21-10.26,6.23-16.54,1.58-3.91-2.66-9.21-3.65-13.81-3.53-2.8.07-5.19.2-5.91,2.57l-.03.12Z"/>
      <path class="cls-1" d="M378.3,156.63c-1.54-17.35,1.2-79.35,1.39-95.13.05-1.62.38-3.08,1-4.77,1.12-2.87,2.45-7.46.1-10.41-3.21-4.21-8.69-4.55-13.9-4.99-4.03-.09-11.24-1.02-13.12,3.38-.22,3.42,4.98,4.67,7.55,6.47,3.01,1.69,4.88,3.79,5.49,7.04,1.62,7.81,1.73,24.19,1.23,31.75-.3,6.06-1.94,5.02-6.74,2.37-7.78-4.52-17.47-5.69-25.41-1.46-13.51,6.36-19.25,26.51-16.76,42.77,2.81,20.2,13.69,37.84,31.24,38.15,4.47.11,9.69-.84,13.43-3.65,2.3-1.62,3.32-3.56,4.65-4.2,1.36-.6,2.29.26,3.61,2.02,2.33,3.8,6.37,6.01,10.91,5.3,2.35-.3,7.76-1.44,6.95-4.46-1.22-2.2-4.69-3.06-7.68-5.46-1.58-1.22-3.1-2.8-3.88-4.59l-.05-.13ZM328.48,130.5c-.21-13.9,3.82-30.49,17.37-32.33,7.04-1.62,15.67,2.05,18.62,8.74.2.87-.16,1.5-.8,2.06-3.38,2.65-12.78,9.7-20.89,15.87-4.76,3.6-8.18,6.2-11.55,8.76-2.55,2.15-2.71.77-2.74-2.92v-.17ZM352.13,159.93c-4.23-.05-8.92-.62-12.71-2.57-1.98-1.16-4.45-2.24-3.63-4.04,6.3-5.9,26.09-22.84,32.61-28.17,1.83-.95.92,7.5,1.09,8.79-.71,13.98-.16,26.76-17.16,25.99h-.2ZM329.74,146.35c12.2-11.5,25.78-22.72,39.41-32.46-12.17,11.51-25.78,22.7-39.4,32.47h0Z"/>
    </g>
  </g>
</svg>