<svg width="98" height="34" viewBox="0 0 98 34" fill="none" xmlns="http://www.w3.org/2000/svg">
<g clip-path="url(#clip0_270_385)">
<path d="M5.66356 33.976C5.04106 33.8602 -0.658224 34.3681 0.0629643 33.3037C0.579183 32.6501 2.47135 31.5689 2.97049 30.4709C3.47343 29.5914 3.36715 28.7156 3.38233 27.7203C3.38992 25.2536 3.39372 21.1771 3.39372 17.1268C3.39372 13.4743 3.38992 9.84231 3.38233 7.43156C3.44875 5.32145 3.38802 3.49892 1.56797 2.15443C1.26052 1.86125 0.670281 1.45977 0.681668 1.12365C0.926492 0.608259 2.55106 0.823005 3.3216 0.738974C4.00293 0.738974 4.87595 0.716566 5.20997 1.41122C5.38268 1.73987 5.43771 2.24219 5.51742 2.57831C5.56297 2.76692 5.6256 2.86962 5.72999 2.86775C6.32591 2.6362 6.83644 1.71933 7.67719 1.19274C10.9036 -1.07796 15.2022 0.184371 17.9826 2.54657C20.9319 4.93491 22.5052 8.66214 23.0746 12.3072C24.3594 20.2995 21.655 31.4924 13.1639 33.877C10.7479 34.0861 8.0283 33.9255 5.69962 33.9741H5.66356V33.976ZM5.77933 6.97219C5.70911 6.97593 5.66925 7.09357 5.64648 7.31392C5.61991 7.60149 5.61611 8.02164 5.61611 8.3615C5.61801 13.0915 5.61611 18.363 5.61611 23.1603C5.61611 24.4282 5.61611 25.7241 5.61611 26.9753C5.64079 28.1461 5.5402 28.8239 5.74137 29.7595C6.17788 31.6194 8.37751 31.9499 10.1103 31.8845C11.1636 31.8845 12.3023 31.8939 13.1715 31.8173C14.0066 31.7575 14.7828 31.5055 15.4205 30.9546C21.2279 26.0715 22.3002 14.2605 18.8177 7.82184C17.4208 5.29158 15.187 2.84348 12.3516 2.0704C10.04 1.4523 7.09265 3.12171 7.80435 5.75281C7.95049 6.28314 8.24465 6.78732 8.6489 7.1608C9.33023 7.84425 10.6492 8.04592 11.1408 7.12158C11.2547 6.87696 11.3363 6.52403 11.0896 6.36344C10.6625 6.20284 9.8958 7.39421 9.37388 6.74624C8.15545 5.10484 10.0249 3.23002 11.824 4.06659C14.8094 5.59595 13.6877 9.94502 10.3152 10.0645C8.96015 10.1392 7.59938 9.35867 6.76242 8.23079C6.52709 7.92828 6.28226 7.54734 6.08868 7.2747C5.95204 7.08237 5.85335 6.97406 5.78313 6.97219H5.77553H5.77933Z" fill="#191919"/>
<path d="M28.3942 29.0441C30.666 27.3504 34.5148 24.4934 36.5057 22.9995C36.9802 22.6596 37.4774 22.1965 37.3275 21.5728C37.225 20.9305 36.5475 20.0715 35.9117 19.5131C33.6475 17.4553 30.0568 17.2723 27.4643 18.8334C21.6986 22.105 22.786 31.608 29.0813 33.3614C31.8237 34.2167 35.2702 33.1224 36.5171 30.3811C36.5076 30.172 36.1812 30.3979 36.0388 30.4764C34.697 31.3727 33.0535 32.3997 31.334 32.4277H31.2961C29.9998 32.4333 27.9596 31.6154 27.4927 30.4353C27.3219 29.8078 27.9539 29.384 28.398 29.0422L28.3942 29.0441ZM27.1416 27.4438C25.6461 28.3046 25.6917 25.7165 25.7163 24.7455C25.7923 23.0947 26.6368 21.4141 28.0507 20.4505L28.0849 20.4263C28.8858 19.8735 29.755 19.6009 30.6527 19.571C31.7686 19.5281 32.896 19.9053 33.8069 20.5794C34.7938 21.2684 34.9058 21.9874 33.8677 22.6988C31.6946 24.2189 29.3887 25.976 27.1435 27.4456L27.1416 27.4438ZM34.4351 23.3076C32.264 25.0853 29.9846 26.7192 27.5952 28.2019C29.7645 26.4223 32.0476 24.7921 34.4351 23.3076Z" fill="#191919"/>
<path d="M64.2067 29.0441C66.4785 27.3504 70.3273 24.4934 72.3182 22.9995C72.7927 22.6596 73.2899 22.1965 73.14 21.5728C73.0375 20.9305 72.36 20.0715 71.7242 19.5131C69.46 17.4553 65.8693 17.2723 63.2768 18.8334C57.5111 22.105 58.5985 31.608 64.8938 33.3614C67.6362 34.2167 71.0827 33.1224 72.3296 30.3811C72.3201 30.172 71.9937 30.3979 71.8513 30.4764C70.5095 31.3727 68.866 32.3997 67.1465 32.4277H67.1086C65.8123 32.4333 63.7721 31.6154 63.3052 30.4353C63.1344 29.8078 63.7664 29.384 64.2105 29.0422L64.2067 29.0441ZM62.9522 27.4438C61.4567 28.3046 61.5023 25.7165 61.527 24.7455C61.6029 23.0947 62.4474 21.4141 63.8613 20.4505L63.8955 20.4263C64.6964 19.8735 65.5656 19.6009 66.4633 19.571C67.5792 19.5281 68.7066 19.9053 69.6175 20.5794C70.6044 21.2684 70.7164 21.9874 69.6783 22.6988C67.5052 24.2189 65.1993 25.976 62.9541 27.4456L62.9522 27.4438ZM70.2476 23.3076C68.0765 25.0853 65.7971 26.7192 63.4077 28.2019C65.577 26.4223 67.8601 24.7921 70.2476 23.3076Z" fill="#191919"/>
<path d="M49.8953 32.5359C49.1039 31.8618 48.7869 31.0028 48.9331 30.0616C49.0507 28.3605 49.3544 24.1141 48.8989 21.8229C48.3808 18.9621 44.9741 18.0322 42.4139 19.0107C41.3169 19.4065 39.216 20.4952 39.7379 21.8397C40.4477 22.8499 42.2203 19.7034 44.5035 20.0526C45.6668 20.146 46.8075 21.0106 47.3066 21.7594C47.7716 22.3177 48.0563 24.0656 47.0599 24.1664C46.3937 24.1739 45.6972 23.9367 45.0235 23.8508C43.9929 23.6585 43.0801 23.7295 42.1634 24.1982C40.9639 24.7677 39.867 25.7051 39.4229 26.9768C38.5442 29.677 40.0928 33.464 42.9548 33.9121C43.6361 34.0372 44.3839 34.0204 45.0462 33.8636C45.794 33.6918 46.2495 33.3295 47.0124 33.281C47.3882 33.2529 47.7716 33.3127 48.1208 33.4303C48.9539 33.7758 49.901 34.1381 50.8214 33.9065C51.0815 33.8337 51.3889 33.8019 51.4781 33.5816C51.4876 33.4061 50.9714 33.2324 50.4608 32.9336C50.2768 32.8272 50.0927 32.7002 49.9238 32.5602L49.8953 32.5359ZM43.9398 32.435C42.6094 32.3996 41.5276 31.4005 40.9943 30.2521C39.9619 28.2951 40.8728 26.424 42.6834 25.3839C43.7272 24.777 44.9514 24.9134 46.0426 25.3055C47.4489 25.8564 47.6653 27.0421 47.6976 28.48C47.8038 30.7768 46.3994 32.4855 43.9796 32.4369H43.9417L43.9398 32.435Z" fill="#191919"/>
<path d="M74.2278 19.1134C74.2581 19.2571 74.4213 19.3337 74.5466 19.414C75.2621 19.8229 76.564 20.3682 76.4805 21.3841C76.4805 22.9246 76.4805 28.381 76.4805 29.7143C76.5014 30.2838 76.3173 30.788 75.9833 31.3202C75.8049 31.6078 75.5809 31.8935 75.3418 32.1437C74.6794 32.8683 73.8596 33.2604 73.7153 33.5611C73.7191 33.6638 74.1632 33.6395 74.8427 33.6432C76.2053 33.6395 78.4239 33.6507 79.1394 33.6357C79.7448 33.6526 79.0521 33.1745 78.8491 32.8683C78.515 32.4724 78.3101 32.0298 78.2379 31.5238C77.9552 29.7218 77.9912 25.1188 78.0026 23.8023C77.9457 22.8705 78.367 21.8322 79.2609 21.3411C79.7486 21.089 80.1472 21.2533 80.2421 21.6978C80.4167 22.5399 79.9726 23.4083 79.7486 24.2094C79.3387 25.6659 80.0105 28.2372 81.8306 28.452C83.1098 28.6219 84.628 27.7387 84.0739 26.3008C83.8537 25.6659 83.2521 25.0833 82.529 25.1729C81.6427 25.2775 80.5856 26.1047 80.6179 24.7714C80.7355 22.9844 82.1608 21.7893 83.1155 20.4018C83.6639 19.5989 83.9182 18.4486 82.4512 18.865C81.4719 19.1171 80.4395 19.7258 79.4526 19.9966C78.0425 20.3383 78.2645 18.6185 76.6475 18.611C76.1028 18.5606 74.4365 18.5924 74.2297 19.0965V19.1096L74.2278 19.1134Z" fill="#191919"/>
<path d="M96.6167 21.4801C96.7154 21.8947 95.478 21.0077 95.2389 20.9162C93.8155 20.1375 91.7981 19.4522 90.1166 19.8611C86.9623 20.7052 89.1392 22.7817 91.1016 23.6556C92.096 24.1187 93.138 24.3036 94.1381 24.7256C96.0588 25.5397 98.3381 27.3156 97.9547 29.5228C97.5448 31.5321 95.3357 32.9214 93.2348 33.461C91.7677 33.8252 90.2228 33.6459 88.8678 32.9811C86.4328 31.8831 84.7855 28.9869 86.9699 26.916C88.046 25.9375 89.5624 25.9132 90.8245 26.7871C91.5665 27.2708 92.246 28.197 92.06 29.0298C91.8341 30.2697 90.016 30.8785 88.9361 30.1838C88.3117 29.8122 87.9701 28.9514 88.4388 28.365C88.8089 27.887 89.7389 27.8851 90.0444 27.7768C90.2703 27.7096 90.1393 27.5658 89.9704 27.4986C89.4409 27.267 88.714 27.31 88.1807 27.5733C85.8521 28.8281 87.6361 31.1082 89.6763 31.773C90.8548 32.1912 92.0903 32.2118 93.2765 31.8943C95.5122 31.3267 97.226 29.4052 95.1725 27.4762C93.7681 26.0327 91.5457 25.8889 89.7313 25.1327C87.042 23.9973 85.4023 20.8956 87.6285 18.7052C90.3386 16.4644 95.218 18.7295 96.6092 21.4671L96.6129 21.4783L96.6167 21.4801Z" fill="#191919"/>
<path d="M51.8575 11.4763C51.7835 11.7676 52.3206 11.988 52.5863 12.1784C52.9886 12.4231 53.4271 12.6639 53.8009 12.9403C54.3304 13.3381 54.2792 13.5509 54.3304 14.0271C54.6189 18.716 54.524 28.8128 54.3817 31.1115C54.3703 31.4906 54.0401 31.7968 53.7478 32.0769C53.3322 32.4784 52.6375 33.033 52.3775 33.371C51.8993 33.9928 53.1367 33.9163 53.5163 33.9667C54.6246 34.0115 55.5792 34.0096 56.6914 33.9704C57.0045 33.9275 58.5095 33.9966 58.3748 33.5577C58.0502 33.0535 57.3651 32.6782 56.8717 32.1722C56.6098 31.9313 56.2283 31.541 56.1865 31.2217C56.029 28.2582 57.126 15.3679 56.3972 11.4744C55.8715 10.6864 52.3699 10.9647 51.8632 11.4651L51.8556 11.4782L51.8575 11.4763Z" fill="#191919"/>
</g>
<defs>
<clipPath id="clip0_270_385">
<rect width="98" height="34" fill="white"/>
</clipPath>
</defs>
</svg>
