<?xml version="1.0" encoding="UTF-8"?>
<svg id="_レイヤー_2" data-name="レイヤー 2" xmlns="http://www.w3.org/2000/svg" viewBox="0 0 516.37 182.05">
  <defs>
    <style>
      .cls-1 {
        fill: #191919;
      }
    </style>
  </defs>
  <g id="_レイヤー_1-2" data-name="レイヤー 1">
    <g>
      <path class="cls-1" d="M29.84,181.93c-3.28-.62-33.31,2.1-29.51-3.6,2.72-3.5,12.69-9.29,15.32-15.17,2.65-4.71,2.09-9.4,2.17-14.73.04-13.21.06-35.04.06-56.73,0-19.56-.02-39.01-.06-51.92.35-11.3.03-21.06-9.56-28.26-1.62-1.57-4.73-3.72-4.67-5.52,1.29-2.76,9.85-1.61,13.91-2.06,3.59,0,8.19-.12,9.95,3.6.91,1.76,1.2,4.45,1.62,6.25.24,1.01.57,1.56,1.12,1.55,3.14-1.24,5.83-6.15,10.26-8.97,17-12.16,39.65-5.4,54.3,7.25,15.54,12.79,23.83,32.75,26.83,52.27,6.77,42.8-7.48,102.74-52.22,115.51-12.73,1.12-27.06.26-39.33.52h-.19ZM30.45,37.32c-.37.02-.58.65-.7,1.83-.14,1.54-.16,3.79-.16,5.61.01,25.33,0,53.56,0,79.25,0,6.79,0,13.73,0,20.43.13,6.27-.4,9.9.66,14.91,2.3,9.96,13.89,11.73,23.02,11.38,5.55,0,11.55.05,16.13-.36,4.4-.32,8.49-1.67,11.85-4.62,30.6-26.15,36.25-89.4,17.9-123.88-7.36-13.55-19.13-26.66-34.07-30.8-12.18-3.31-27.71,5.63-23.96,19.72.77,2.84,2.32,5.54,4.45,7.54,3.59,3.66,10.54,4.74,13.13-.21.6-1.31,1.03-3.2-.27-4.06-2.25-.86-6.29,5.52-9.04,2.05-6.42-8.79,3.43-18.83,12.91-14.35,15.73,8.19,9.82,31.48-7.95,32.12-7.14.4-14.31-3.78-18.72-9.82-1.24-1.62-2.53-3.66-3.55-5.12-.72-1.03-1.24-1.61-1.61-1.62h-.04Z"/>
      <path class="cls-1" d="M149.61,155.52c11.97-9.07,32.25-24.37,42.74-32.37,2.5-1.82,5.12-4.3,4.33-7.64-.54-3.44-4.11-8.04-7.46-11.03-11.93-11.02-30.85-12-44.51-3.64-30.38,17.52-24.65,68.41,8.52,77.8,14.45,4.58,32.61-1.28,39.18-15.96-.05-1.12-1.77.09-2.52.51-7.07,4.8-15.73,10.3-24.79,10.45h-.2c-6.83.03-17.58-4.35-20.04-10.67-.9-3.36,2.43-5.63,4.77-7.46ZM143.01,146.95c-7.88,4.61-7.64-9.25-7.51-14.45.4-8.84,4.85-17.84,12.3-23l.18-.13c4.22-2.96,8.8-4.42,13.53-4.58,5.88-.23,11.82,1.79,16.62,5.4,5.2,3.69,5.79,7.54.32,11.35-11.45,8.14-23.6,17.55-35.43,25.42ZM181.44,124.8c-11.44,9.52-23.45,18.27-36.04,26.21,11.43-9.53,23.46-18.26,36.04-26.21Z"/>
      <path class="cls-1" d="M338.31,155.52c11.97-9.07,32.25-24.37,42.74-32.37,2.5-1.82,5.12-4.3,4.33-7.64-.54-3.44-4.11-8.04-7.46-11.03-11.93-11.02-30.85-12-44.51-3.64-30.38,17.52-24.65,68.41,8.52,77.8,14.45,4.58,32.61-1.28,39.18-15.96-.05-1.12-1.77.09-2.52.51-7.07,4.8-15.73,10.3-24.79,10.45h-.2c-6.83.03-17.58-4.35-20.04-10.67-.9-3.36,2.43-5.63,4.77-7.46ZM331.7,146.95c-7.88,4.61-7.64-9.25-7.51-14.45.4-8.84,4.85-17.84,12.3-23l.18-.13c4.22-2.96,8.8-4.42,13.53-4.58,5.88-.23,11.82,1.79,16.62,5.4,5.2,3.69,5.79,7.54.32,11.35-11.45,8.14-23.6,17.55-35.43,25.42ZM370.14,124.8c-11.44,9.52-23.45,18.27-36.04,26.21,11.43-9.53,23.46-18.26,36.04-26.21Z"/>
      <path class="cls-1" d="M262.9,174.22c-4.17-3.61-5.84-8.21-5.07-13.25.62-9.11,2.22-31.85-.18-44.12-2.73-15.32-20.68-20.3-34.17-15.06-5.78,2.12-16.85,7.95-14.1,15.15,3.74,5.41,13.08-11.44,25.11-9.57,6.13.5,12.14,5.13,14.77,9.14,2.45,2.99,3.95,12.35-1.3,12.89-3.51.04-7.18-1.23-10.73-1.69-5.43-1.03-10.24-.65-15.07,1.86-6.32,3.05-12.1,8.07-14.44,14.88-4.63,14.46,3.53,34.74,18.61,37.14,3.59.67,7.53.58,11.02-.26,3.94-.92,6.34-2.86,10.36-3.12,1.98-.15,4,.17,5.84.8,4.39,1.85,9.38,3.79,14.23,2.55,1.37-.39,2.99-.56,3.46-1.74.05-.94-2.67-1.87-5.36-3.47-.97-.57-1.94-1.25-2.83-2l-.15-.13ZM231.52,173.68c-7.01-.19-12.71-5.54-15.52-11.69-5.44-10.48-.64-20.5,8.9-26.07,5.5-3.25,11.95-2.52,17.7-.42,7.41,2.95,8.55,9.3,8.72,17,.56,12.3-6.84,21.45-19.59,21.19h-.2Z"/>
      <path class="cls-1" d="M391.11,102.34c.16.77,1.02,1.18,1.68,1.61,3.77,2.19,10.63,5.11,10.19,10.55,0,8.25,0,37.47,0,44.61.11,3.05-.86,5.75-2.62,8.6-.94,1.54-2.12,3.07-3.38,4.41-3.49,3.88-7.81,5.98-8.57,7.59.02.55,2.36.42,5.94.44,7.18-.02,18.87.04,22.64-.04,3.19.09-.46-2.47-1.53-4.11-1.76-2.12-2.84-4.49-3.22-7.2-1.49-9.65-1.3-34.3-1.24-41.35-.3-4.99,1.92-10.55,6.63-13.18,2.57-1.35,4.67-.47,5.17,1.91.92,4.51-1.42,9.16-2.6,13.45-2.16,7.8,1.38,21.57,10.97,22.72,6.74.91,14.74-3.82,11.82-11.52-1.16-3.4-4.33-6.52-8.14-6.04-4.67.56-10.24,4.99-10.07-2.15.62-9.57,8.13-15.97,13.16-23.4,2.89-4.3,4.23-10.46-3.5-8.23-5.16,1.35-10.6,4.61-15.8,6.06-7.43,1.83-6.26-7.38-14.78-7.42-2.87-.27-11.65-.1-12.74,2.6v.07Z"/>
      <path class="cls-1" d="M509.08,115.01c.52,2.22-6-2.53-7.26-3.02-7.5-4.17-18.13-7.84-26.99-5.65-16.62,4.52-5.15,15.64,5.19,20.32,5.24,2.48,10.73,3.47,16,5.73,10.12,4.36,22.13,13.87,20.11,25.69-2.16,10.76-13.8,18.2-24.87,21.09-7.73,1.95-15.87.99-23.01-2.57-12.83-5.88-21.51-21.39-10-32.48,5.67-5.24,13.66-5.37,20.31-.69,3.91,2.59,7.49,7.55,6.51,12.01-1.19,6.64-10.77,9.9-16.46,6.18-3.29-1.99-5.09-6.6-2.62-9.74,1.95-2.56,6.85-2.57,8.46-3.15,1.19-.36.5-1.13-.39-1.49-2.79-1.24-6.62-1.01-9.43.4-12.27,6.72-2.87,18.93,7.88,22.49,6.21,2.24,12.72,2.35,18.97.65,11.78-3.04,20.81-13.33,9.99-23.66-7.4-7.73-19.11-8.5-28.67-12.55-14.17-6.08-22.81-22.69-11.08-34.42,14.28-12,39.99.13,47.32,14.79l.02.06Z"/>
      <path class="cls-1" d="M273.24,61.44c-.39,1.56,2.44,2.74,3.84,3.76,2.12,1.31,4.43,2.6,6.4,4.08,2.79,2.13,2.52,3.27,2.79,5.82,1.52,25.11,1.02,79.18.27,91.49-.06,2.03-1.8,3.67-3.34,5.17-2.19,2.15-5.85,5.12-7.22,6.93-2.52,3.33,4,2.92,6,3.19,5.84.24,10.87.23,16.73.02,1.65-.23,9.58.14,8.87-2.21-1.71-2.7-5.32-4.71-7.92-7.42-1.38-1.29-3.39-3.38-3.61-5.09-.83-15.87,4.95-84.9,1.11-105.75-2.77-4.22-21.22-2.73-23.89-.05l-.04.07Z"/>
    </g>
  </g>
</svg>