<?xml version="1.0" encoding="UTF-8"?>
<svg id="_レイヤー_2" data-name="レイヤー 2" xmlns="http://www.w3.org/2000/svg" viewBox="0 0 390.84 237.08">
  <defs>
    <style>
      .cls-1 {
        fill: #191919;
      }
    </style>
  </defs>
  <g id="_レイヤー_1-2" data-name="レイヤー 1">
    <g>
      <g>
        <path class="cls-1" d="M29.84,181.93c-3.28-.62-33.31,2.1-29.51-3.6,2.72-3.5,12.69-9.29,15.32-15.17,2.65-4.71,2.09-9.4,2.17-14.73.04-13.21.06-35.04.06-56.73,0-19.56-.02-39.01-.06-51.92.35-11.3.03-21.06-9.56-28.26-1.62-1.57-4.73-3.72-4.67-5.52,1.29-2.76,9.85-1.61,13.91-2.06,3.59,0,8.19-.12,9.95,3.6.91,1.76,1.2,4.45,1.62,6.25.24,1.01.57,1.56,1.12,1.55,3.14-1.24,5.83-6.15,10.26-8.97,17-12.16,39.65-5.4,54.3,7.25,15.54,12.79,23.83,32.75,26.83,52.27,6.77,42.8-7.48,102.74-52.22,115.51-12.73,1.12-27.06.26-39.33.52h-.19ZM30.45,37.32c-.37.02-.58.65-.7,1.83-.14,1.54-.16,3.79-.16,5.61.01,25.33,0,53.56,0,79.25,0,6.79,0,13.73,0,20.43.13,6.27-.4,9.9.66,14.91,2.3,9.96,13.89,11.73,23.02,11.38,5.55,0,11.55.05,16.13-.36,4.4-.32,8.49-1.67,11.85-4.62,30.6-26.15,36.25-89.4,17.9-123.88-7.36-13.55-19.13-26.66-34.07-30.8-12.18-3.31-27.71,5.63-23.96,19.72.77,2.84,2.32,5.54,4.45,7.54,3.59,3.66,10.54,4.74,13.13-.21.6-1.31,1.03-3.2-.27-4.06-2.25-.86-6.29,5.52-9.04,2.05-6.42-8.79,3.43-18.83,12.91-14.35,15.73,8.19,9.82,31.48-7.95,32.12-7.14.4-14.31-3.78-18.72-9.82-1.24-1.62-2.53-3.66-3.55-5.12-.72-1.03-1.24-1.61-1.61-1.62h-.04Z"/>
        <path class="cls-1" d="M149.61,155.52c11.97-9.07,32.25-24.37,42.74-32.37,2.5-1.82,5.12-4.3,4.33-7.64-.54-3.44-4.11-8.04-7.46-11.03-11.93-11.02-30.85-12-44.51-3.64-30.38,17.52-24.65,68.41,8.52,77.8,14.45,4.58,32.61-1.28,39.18-15.96-.05-1.12-1.77.09-2.52.51-7.07,4.8-15.73,10.3-24.79,10.45h-.2c-6.83.03-17.58-4.35-20.04-10.67-.9-3.36,2.43-5.63,4.77-7.46ZM143.01,146.95c-7.88,4.61-7.64-9.25-7.51-14.45.4-8.84,4.85-17.84,12.3-23l.18-.13c4.22-2.96,8.8-4.42,13.53-4.58,5.88-.23,11.82,1.79,16.62,5.4,5.2,3.69,5.79,7.54.32,11.35-11.45,8.14-23.6,17.55-35.43,25.42ZM181.44,124.8c-11.44,9.52-23.45,18.27-36.04,26.21,11.43-9.53,23.46-18.26,36.04-26.21Z"/>
      </g>
      <path class="cls-1" d="M356.49,93.73c-18.97,0-34.34,18.95-34.34,42.32s15.38,42.32,34.34,42.32,34.34-18.95,34.34-42.32-15.38-42.32-34.34-42.32ZM333.19,136.05c0-15.86,10.43-28.71,23.3-28.71,5.72,0,10.96,2.55,15.02,6.77-3.96,2.18-9.9,5.5-14.15,7.96-7.51,4.14-17.18,12.43-23.92,18.18-.16-1.37-.25-2.77-.25-4.2ZM333.55,149.47c13.93-11.09,28.43-21.37,43.49-30.87-13.93,11.08-28.43,21.38-43.49,30.87ZM356.49,164.76c-5.83,0-11.16-2.65-15.24-7.01,6.92-7.01,15.3-15.4,24.02-20.34,3.98-2.5,8.29-5.17,12.3-7.65.46-.3.97-.61,1.48-.91.48,2.3.74,4.71.74,7.19,0,15.86-10.43,28.71-23.3,28.71Z"/>
      <path class="cls-1" d="M196.82,99.9c.18,4.19,7.71,4.5,10.34,6.57,7.54,4.64,5.07,52.39,4.75,59.46-.45,5.03-7.25,4.27-10.91,6.1-15.82,7.22,42.15,10.81,27.64,2.42-3.49-2.34-10.31-2.94-9.91-8.16.24-6.55-.3-50.36,5.53-55.78,6.59-7.17,20.21-7.22,27.34-.99,4.34,4.42,4.5,15.96,5.25,22.15.2,3.57,0,6.56-.18,10.28-.9,9.17-.59,20.63-4.21,27.83-.94,2.34-8.57,4.55-7.26,6.59.56.68,1.75,1.13,2.76,1.42,5.97,1.53,22.81,2.68,27.4-1.39.44-1.92-3.6-3.31-4.94-4.53-4.49-2.84-4.75-6.74-5.22-12.89-.29-3.89-.43-7.92-.53-11.81.2-10.27-1.58-21.64,3.21-31.06,3.64-5.38,13.14-11.34,19.62-10.34,8.53,3.47,17.84,14.55,21.09,26.25,3.96,24.41-19.09,41.4-29.37,61.1-3.03,5.68-5.54,11.94-5.28,18.42.62,17.26,21.37,30.07,37.79,23.98,9.98-3.41,14.75-14.68,9.53-23.56-3.28-5.87-11.29-9.4-18.21-8.25-6.8.72-14.43,7.24-11.45,14.4,1.35,3.78,4.91,6.68,9,6.93,3.26.28,7.41-.95,8.48-4.12.74-2.11-.4-5.09-.86-7.14-1.32-6.21,6.42,2.31,3.21,7.81-5,9.03-21.05,6.65-25.39-2.04-7.49-12.46,5.53-30.91,10.41-40.19,7.44-11.31,16.21-23.27,18.35-37.25,2.41-18.1-4.9-43.28-26.08-45.2-25.18-2.21-21.48,18.99-28.59,12.51-2.34-2.12-4.18-5.33-6.53-7.44-4.78-4.15-11.98-4.84-18.09-4.04-3.88.54-7.36,2.09-10.8,2.61-1.43.21-3.07.19-4.4-.21-3.81-1.09-6.65-4.34-10.7-4.82-4.32-.59-11.17-.47-12.75,4.25v.12Z"/>
    </g>
  </g>
</svg>