<svg width="72" height="43" viewBox="0 0 72 43" fill="none" xmlns="http://www.w3.org/2000/svg">
<path d="M5.45544 32.3577C4.85582 32.2474 -0.634036 32.7311 0.0606506 31.7174C0.5579 31.095 2.38054 30.0653 2.86134 29.0196C3.34579 28.182 3.24341 27.3479 3.25804 26.4C3.26535 24.0507 3.26901 20.1685 3.26901 16.3111C3.26901 12.8325 3.26535 9.37352 3.25804 7.07759C3.32202 5.06799 3.26352 3.33226 1.51035 2.05181C1.2142 1.7726 0.64565 1.39024 0.656619 1.07013C0.892447 0.579288 2.45732 0.783805 3.19954 0.703776C3.85584 0.703776 4.69677 0.682435 5.01852 1.344C5.18488 1.657 5.2379 2.1354 5.31468 2.45551C5.35855 2.63513 5.41888 2.73294 5.51943 2.73116C6.09346 2.51064 6.58522 1.63744 7.39508 1.13593C10.5029 -1.02662 14.6436 0.175589 17.3218 2.42528C20.1627 4.69986 21.6782 8.24956 22.2267 11.721C23.4643 19.3326 20.8592 29.9924 12.6802 32.2634C10.353 32.4626 7.73329 32.3097 5.49018 32.3559H5.45544V32.3577ZM5.56696 6.6401C5.49932 6.64366 5.46093 6.7557 5.43899 6.96555C5.4134 7.23943 5.40974 7.63957 5.40974 7.96324C5.41157 12.4679 5.40974 17.4884 5.40974 22.0571C5.40974 23.2647 5.40974 24.4989 5.40974 25.6904C5.43351 26.8055 5.33662 27.451 5.5304 28.342C5.95086 30.1133 8.06966 30.4281 9.73874 30.3659C10.7533 30.3659 11.8502 30.3747 12.6875 30.3018C13.4919 30.2449 14.2396 30.0048 14.8538 29.4802C20.4479 24.8297 21.4808 13.5812 18.1262 7.44928C16.7807 5.03954 14.629 2.70804 11.8978 1.97178C9.6711 1.38313 6.83202 2.97303 7.51757 5.4788C7.65833 5.98387 7.94169 6.46404 8.33108 6.81972C8.98738 7.47062 10.2579 7.66269 10.7314 6.78238C10.8411 6.54941 10.9197 6.21329 10.682 6.06034C10.2707 5.9074 9.53216 7.04203 9.02942 6.42492C7.85577 4.8617 9.65647 3.07617 11.3895 3.8729C14.2652 5.32942 13.1847 9.47133 9.93617 9.58515C8.63089 9.65629 7.32013 8.91291 6.51393 7.83875C6.28724 7.55065 6.05141 7.18785 5.86494 6.92821C5.73332 6.74503 5.63826 6.64188 5.57062 6.6401H5.5633H5.56696Z" fill="#191919"/>
<path d="M27.3509 27.6607C29.5392 26.0477 33.2466 23.3268 35.1643 21.904C35.6213 21.5804 36.1003 21.1393 35.9559 20.5453C35.8571 19.9335 35.2045 19.1155 34.5921 18.5837C32.4111 16.6239 28.9523 16.4496 26.4551 17.9364C20.9013 21.0522 21.9488 30.1025 28.0127 31.7724C30.6543 32.5869 33.9742 31.5448 35.1753 28.9341C35.1661 28.7349 34.8517 28.9501 34.7146 29.0248C33.4221 29.8784 31.8389 30.8565 30.1827 30.8832H30.1461C28.8975 30.8885 26.9322 30.1096 26.4825 28.9856C26.318 28.3881 26.9268 27.9844 27.3545 27.659L27.3509 27.6607ZM26.1443 26.1366C24.7038 26.9565 24.7476 24.4916 24.7714 23.5668C24.8445 21.9947 25.658 20.3942 27.02 19.4765L27.0529 19.4534C27.8244 18.927 28.6617 18.6673 29.5264 18.6389C30.6013 18.598 31.6872 18.9572 32.5647 19.5992C33.5153 20.2554 33.6232 20.9401 32.6232 21.6177C30.53 23.0653 28.3088 24.7388 26.1462 26.1384L26.1443 26.1366ZM33.1698 22.1975C31.0784 23.8905 28.8829 25.4466 26.5812 26.8587C28.6708 25.1638 30.87 23.6113 33.1698 22.1975Z" fill="#191919"/>
<path d="M65.1711 16.6719C61.7031 16.6719 58.8933 20.042 58.8933 24.1981C58.8933 28.3542 61.705 31.7243 65.1711 31.7243C68.6372 31.7243 71.4489 28.3542 71.4489 24.1981C71.4489 20.042 68.6372 16.6719 65.1711 16.6719ZM60.9116 24.1981C60.9116 21.3775 62.8183 19.0923 65.1711 19.0923C66.2168 19.0923 67.1747 19.5458 67.9169 20.2963C67.193 20.684 66.1071 21.2744 65.3301 21.7119C63.9572 22.4481 62.1894 23.9224 60.9573 24.945C60.928 24.7014 60.9116 24.4524 60.9116 24.1981ZM60.9774 26.5847C63.5239 24.6125 66.1747 22.7843 68.9279 21.0948C66.3813 23.0653 63.7305 24.897 60.9774 26.5847ZM65.1711 29.3039C64.1053 29.3039 63.1309 28.8326 62.385 28.0572C63.6501 26.8106 65.1821 25.3185 66.7762 24.44C67.5038 23.9954 68.2917 23.5205 69.0248 23.0795C69.1089 23.0261 69.2021 22.971 69.2953 22.9176C69.3831 23.3267 69.4306 23.7553 69.4306 24.1963C69.4306 27.0169 67.5239 29.3021 65.1711 29.3021V29.3039Z" fill="#191919"/>
<path d="M35.9814 17.7694C36.0144 18.5146 37.3909 18.5697 37.8717 18.9379C39.2501 19.763 38.7986 28.2549 38.7401 29.5123C38.6578 30.4068 37.4147 30.2717 36.7456 30.5971C33.8535 31.8811 44.4511 32.5196 41.7985 31.0275C41.1605 30.6113 39.9137 30.5046 39.9869 29.5763C40.0307 28.4114 39.932 20.6202 40.9978 19.6563C42.2025 18.3812 44.6925 18.3723 45.9959 19.4803C46.7893 20.2663 46.8186 22.3186 46.9557 23.4195C46.9922 24.0543 46.9557 24.5861 46.9228 25.2477C46.7582 26.8785 46.8149 28.9165 46.1531 30.197C45.9813 30.6131 44.5864 31.0061 44.8259 31.3689C44.9283 31.4899 45.1458 31.5699 45.3305 31.6215C46.4219 31.8936 49.5004 32.0981 50.3395 31.3743C50.42 31.0328 49.6814 30.7856 49.4364 30.5687C48.6156 30.0636 48.5681 29.37 48.4822 28.2763C48.4291 27.5845 48.4035 26.8678 48.3853 26.176C48.4218 24.3496 48.0964 22.3275 48.9721 20.6522C49.6375 19.6955 51.3742 18.6355 52.5589 18.8134C54.1183 19.4305 55.8202 21.401 56.4144 23.4817C57.1383 27.8228 52.9245 30.8443 51.0452 34.3478C50.4913 35.3579 50.0324 36.4712 50.0799 37.6236C50.1933 40.6931 53.9866 42.9713 56.9884 41.8882C58.8129 41.2818 59.6849 39.2775 58.7306 37.6983C58.131 36.6544 56.6667 36.0266 55.4016 36.2311C54.1585 36.3592 52.7636 37.5187 53.3084 38.792C53.5552 39.4643 54.206 39.98 54.9537 40.0244C55.5497 40.0742 56.3083 39.8555 56.504 39.2917C56.6392 38.9165 56.4308 38.3865 56.3467 38.022C56.1054 36.9176 57.5204 38.4328 56.9336 39.4109C56.0195 41.0168 53.0854 40.5935 52.292 39.0481C50.9227 36.8322 53.3029 33.551 54.195 31.9007C55.5552 29.8893 57.1584 27.7623 57.5496 25.2761C57.9902 22.0572 56.6539 17.5792 52.7819 17.2377C48.1787 16.8447 48.8551 20.6149 47.5553 19.4625C47.1275 19.0855 46.7911 18.5146 46.3615 18.1394C45.4877 17.4013 44.1714 17.2786 43.0545 17.4209C42.3451 17.5169 41.709 17.7926 41.0801 17.885C40.8187 17.9224 40.5188 17.9188 40.2757 17.8477C39.5792 17.6539 39.06 17.0759 38.3196 16.9905C37.5299 16.8856 36.2776 16.9069 35.9888 17.7463V17.7677L35.9814 17.7694Z" fill="#191919"/>
</svg>
