<svg width="103" height="35" viewBox="0 0 103 35" fill="none" xmlns="http://www.w3.org/2000/svg">
<g clip-path="url(#clip0_270_334)">
<path d="M5.63982 34.9768C5.01993 34.8577 -0.655465 35.3805 0.0627004 34.2848C0.576755 33.612 2.46099 32.4989 2.95804 31.3686C3.45887 30.4631 3.35303 29.5616 3.36815 28.5369C3.37571 25.9975 3.37949 21.801 3.37949 17.6314C3.37949 13.8712 3.37571 10.1323 3.36815 7.65049C3.4343 5.47822 3.37382 3.60199 1.5614 2.21789C1.25523 1.91608 0.667471 1.50277 0.67881 1.15675C0.922609 0.626178 2.54037 0.847249 3.30767 0.760743C3.98615 0.760743 4.85551 0.737675 5.18813 1.45279C5.36011 1.79113 5.41492 2.30824 5.4943 2.65427C5.53965 2.84843 5.60202 2.95416 5.70597 2.95223C6.2994 2.71386 6.80778 1.76998 7.64501 1.22788C10.8579 -1.10971 15.1385 0.189802 17.9072 2.62159C20.8441 5.08029 22.4109 8.91732 22.9778 12.6698C24.2573 20.8975 21.5642 32.4201 13.1087 34.875C10.7029 35.0903 7.99465 34.9249 5.67573 34.9749H5.63982V34.9768ZM5.7551 7.17758C5.68518 7.18143 5.64549 7.30254 5.62281 7.52938C5.59635 7.82542 5.59257 8.25795 5.59257 8.60782C5.59446 13.4772 5.59257 18.904 5.59257 23.8425C5.59257 25.1478 5.59257 26.4819 5.59257 27.7699C5.61714 28.9752 5.51698 29.6731 5.71731 30.6362C6.15199 32.5508 8.34239 32.8911 10.0679 32.8238C11.1168 32.8238 12.2507 32.8334 13.1163 32.7546C13.9479 32.6931 14.7208 32.4336 15.3558 31.8665C21.139 26.8395 22.2068 14.6806 18.7388 8.05226C17.3478 5.44746 15.1234 2.92724 12.2999 2.13139C9.99795 1.49508 7.06292 3.21368 7.77164 5.92228C7.91716 6.46823 8.21009 6.98727 8.61265 7.37174C9.29112 8.07533 10.6046 8.28294 11.0941 7.33137C11.2075 7.07954 11.2888 6.71622 11.0431 6.5509C10.6178 6.38557 9.85431 7.61204 9.33459 6.94498C8.12127 5.25522 9.98283 3.32517 11.7745 4.18639C14.7473 5.7608 13.6304 10.238 10.272 10.361C8.92259 10.4379 7.56753 9.63436 6.73408 8.47326C6.49973 8.16183 6.25593 7.76967 6.06316 7.48901C5.92709 7.291 5.82881 7.17951 5.75888 7.17758H5.75132H5.7551Z" fill="#191919"/>
<path d="M38.1953 18.5851C38.2445 18.3736 38.7094 18.4294 38.9116 18.4044C40.1117 18.3967 41.9241 18.3909 43.213 18.4006C43.47 18.4102 43.8424 18.3948 44.0389 18.5159C44.1693 18.6312 43.9917 18.7869 43.9028 18.8831C43.5267 19.2349 42.8596 19.7289 42.75 20.3421C42.6347 20.8593 42.8823 21.3571 43.0713 21.8339C43.8707 23.7812 45.2617 27.228 45.9855 28.9543C46.5317 30.2673 46.9777 28.7505 47.3387 28.1085C47.9132 26.9378 48.5293 25.6882 49.1095 24.506C49.6255 23.4256 50.1906 22.4913 50.2284 21.4264C50.3474 18.1103 44.3564 18.3909 53.9949 18.4082C55.3236 18.439 54.2501 19.1926 53.685 19.7328C52.6266 20.7362 51.8386 21.9934 51.3132 23.3199C50.2038 25.9362 47.6184 32.2281 46.7056 34.2562C46.6356 34.4138 46.5298 34.6637 46.407 34.6868C44.8856 32.0551 41.7767 23.8235 40.2874 20.7208C40.1041 20.3287 39.7847 19.9308 39.4389 19.6366C39.0004 19.2118 38.3994 18.983 38.1991 18.5966V18.5851H38.1953Z" fill="#191919"/>
<path d="M31.163 33.3831C29.8722 33.3889 27.8405 32.5469 27.3756 31.332C27.2055 30.6861 27.8349 30.2497 28.2771 29.8979C30.5393 28.1543 34.3721 25.2131 36.3546 23.6752C36.8271 23.3253 37.3222 22.8486 37.1729 22.2065C37.0709 21.5452 36.3962 20.6609 35.763 20.0862C33.5084 17.9677 29.9327 17.7793 27.3511 19.3864C21.6095 22.7544 22.6924 32.5373 28.9613 34.3424C31.6922 35.2228 35.1243 34.0963 36.3659 31.2743C36.3565 31.059 36.0314 31.2916 35.8897 31.3723C34.5535 32.2951 32.9168 33.3524 31.2046 33.3812H31.1668L31.163 33.3831ZM27.9653 21.0281C28.7628 20.4591 29.6284 20.1784 30.5223 20.1477C31.6336 20.1035 32.7562 20.4918 33.6634 21.1857C34.6461 21.8951 34.7576 22.6352 33.7238 23.3676C31.5599 24.9324 29.2636 26.7414 27.0279 28.2543C25.5386 29.1405 25.584 26.4761 25.6086 25.4765C25.6842 23.7771 26.5252 22.047 27.9332 21.055L27.9672 21.03L27.9653 21.0281Z" fill="#191919"/>
<path d="M34.6253 23.7461C32.3008 25.8126 29.7966 27.6677 27.147 29.2786C29.4697 27.2102 31.9757 25.359 34.6253 23.7461Z" fill="white"/>
<path d="M83.8573 33.3831C82.5665 33.3889 80.5349 32.5469 80.07 31.332C79.8999 30.6861 80.5292 30.2497 80.9715 29.8979C83.2337 28.1543 87.0664 25.2131 89.0489 23.6752C89.5214 23.3253 90.0166 22.8486 89.8673 22.2065C89.7652 21.5452 89.0905 20.6609 88.4574 20.0862C86.2027 17.9677 82.627 17.7793 80.0454 19.3864C74.3039 22.7544 75.3868 32.5373 81.6556 34.3424C84.3865 35.2228 87.8186 34.0963 89.0603 31.2743C89.0508 31.059 88.7257 31.2916 88.584 31.3723C87.2478 32.2951 85.6112 33.3524 83.8989 33.3812H83.8611L83.8573 33.3831ZM80.6615 21.0281C81.459 20.4591 82.3246 20.1784 83.2186 20.1477C84.3298 20.1035 85.4524 20.4918 86.3596 21.1857C87.3423 21.8951 87.4538 22.6352 86.4201 23.3676C84.2561 24.9324 81.9599 26.7414 79.7241 28.2543C78.2349 29.1405 78.2802 26.4761 78.3048 25.4765C78.3804 23.7771 79.2214 22.047 80.6294 21.055L80.6634 21.03L80.6615 21.0281Z" fill="#191919"/>
<path d="M87.3197 23.7461C84.9951 25.8126 82.491 27.6677 79.8413 29.2786C82.164 27.2102 84.67 25.359 87.3197 23.7461Z" fill="white"/>
<path d="M55.2973 17.8908C55.2727 18.0196 55.4938 18.135 55.5902 18.2273C56.229 18.754 57.3024 19.5345 57.7409 20.3688C57.9393 20.8282 57.9072 21.2588 57.945 21.7875C58.0584 24.7191 57.8543 30.5765 57.7938 32.1125C57.7579 32.6219 57.3006 32.9718 56.915 33.3197C56.3254 33.8176 55.4919 34.3117 55.3143 34.4962C55.1347 34.6884 55.5675 34.6269 55.6885 34.6442C56.8659 34.6442 60.1468 34.6442 61.2864 34.6442C61.4149 34.6461 61.6266 34.6519 61.6681 34.5654C61.5831 34.3097 60.9292 33.9176 60.4416 33.2486C60.1392 32.8583 59.8803 32.3893 59.6951 31.9375C59.5155 31.4819 59.4475 31.2916 59.4513 30.8764C59.4078 28.9906 59.5363 20.5437 59.4021 18.9424C58.8786 17.9235 57.7787 17.7121 56.6485 17.7774C56.3159 17.7813 55.4031 17.7774 55.3067 17.8851L55.301 17.8928L55.2973 17.8908Z" fill="#191919"/>
<path d="M58.51 15.5884C59.3001 15.5884 59.9407 14.6933 59.9407 13.5891C59.9407 12.4849 59.3001 11.5898 58.51 11.5898C57.7199 11.5898 57.0793 12.4849 57.0793 13.5891C57.0793 14.6933 57.7199 15.5884 58.51 15.5884Z" fill="#191919"/>
<path d="M74.1868 20.769C70.5979 15.7747 63.1649 19.1061 62.4826 25.1077C62.3314 26.3227 62.3862 27.6472 62.6735 28.8313C63.3822 31.8744 65.9997 34.3235 69.033 34.5561C71.609 34.7849 73.9222 33.2758 75.0391 30.7806C75.1714 30.5019 75.4814 29.7445 74.9371 30.2481C66.0356 39.5158 58.8332 22.9662 68.7552 19.5886C69.3316 19.4521 69.9629 19.4464 70.5412 19.5809C73.5896 20.1577 74.9654 24.4791 71.8603 25.8844C70.7869 26.3669 69.4696 25.7536 68.9782 24.7175C68.7987 24.3561 68.7363 23.9793 68.8365 23.664C68.982 23.2334 69.4431 22.8951 69.6907 23.243C69.8854 23.5045 69.9005 24.1331 70.2445 24.3734C70.9664 24.8732 71.8641 23.9889 71.7224 23.2027C71.4351 21.5552 68.7722 21.5687 67.9539 22.7682C67.4417 23.3795 67.4436 24.2196 67.7176 24.9597C69.6945 29.8194 77.1747 25.6691 74.2076 20.8074L74.183 20.769H74.1868Z" fill="#191919"/>
<path d="M101.625 21.5381C101.723 21.984 100.491 21.0286 100.252 20.9306C98.835 20.0924 96.826 19.3543 95.1516 19.7945C92.0106 20.7018 94.1783 22.9375 96.1324 23.8795C97.1228 24.3774 98.1603 24.5773 99.1563 25.031C101.069 25.9076 103.339 27.8184 102.957 30.1925C102.549 32.3552 100.349 33.8508 98.2567 34.4313C96.7958 34.8235 95.2574 34.6293 93.908 33.9161C91.4833 32.7358 89.8428 29.6158 92.0181 27.3878C93.0897 26.3343 94.5997 26.3094 95.8565 27.2475C96.5955 27.7684 97.2721 28.7642 97.0869 29.66C96.862 30.9942 95.0514 31.6497 93.9761 30.9038C93.3543 30.5039 93.0141 29.5774 93.4809 28.9468C93.8494 28.4316 94.7755 28.4316 95.0798 28.3144C95.3047 28.2413 95.1743 28.0875 95.0061 28.0145C94.4788 27.7665 93.7549 27.8107 93.2239 28.0952C90.905 29.4447 92.6815 31.8996 94.7131 32.6166C95.8868 33.0665 97.1171 33.0895 98.2983 32.7473C100.525 32.136 102.231 30.0676 100.186 27.9914C98.7878 26.4382 96.5747 26.2824 94.7679 25.4693C92.0899 24.2467 90.457 20.9075 92.6739 18.5507C95.3727 16.1381 100.232 18.5757 101.617 21.5227L101.621 21.5342L101.625 21.5381Z" fill="#191919"/>
</g>
<defs>
<clipPath id="clip0_270_334">
<rect width="103" height="35" fill="white"/>
</clipPath>
</defs>
</svg>
