<?xml version="1.0" encoding="UTF-8"?>
<svg id="_レイヤー_2" data-name="レイヤー 2" xmlns="http://www.w3.org/2000/svg" viewBox="0 0 545 182.05">
  <defs>
    <style>
      .cls-1 {
        fill: #fff;
      }

      .cls-2 {
        fill: #191919;
      }
    </style>
  </defs>
  <g id="_レイヤー_1-2" data-name="レイヤー 1">
    <g>
      <path class="cls-2" d="M29.84,181.93c-3.28-.62-33.31,2.1-29.51-3.6,2.72-3.5,12.69-9.29,15.32-15.17,2.65-4.71,2.09-9.4,2.17-14.73.04-13.21.06-35.04.06-56.73,0-19.56-.02-39.01-.06-51.92.35-11.3.03-21.06-9.56-28.26-1.62-1.57-4.73-3.72-4.67-5.52,1.29-2.76,9.85-1.61,13.91-2.06,3.59,0,8.19-.12,9.95,3.6.91,1.76,1.2,4.45,1.62,6.25.24,1.01.57,1.56,1.12,1.55,3.14-1.24,5.83-6.15,10.26-8.97,17-12.16,39.65-5.4,54.3,7.25,15.54,12.79,23.83,32.75,26.83,52.27,6.77,42.8-7.48,102.74-52.22,115.51-12.73,1.12-27.06.26-39.33.52h-.19ZM30.45,37.32c-.37.02-.58.65-.7,1.83-.14,1.54-.16,3.79-.16,5.61.01,25.33,0,53.56,0,79.25,0,6.79,0,13.73,0,20.43.13,6.27-.4,9.9.66,14.91,2.3,9.96,13.89,11.73,23.02,11.38,5.55,0,11.55.05,16.13-.36,4.4-.32,8.49-1.67,11.85-4.62,30.6-26.15,36.25-89.4,17.9-123.88-7.36-13.55-19.13-26.66-34.07-30.8-12.18-3.31-27.71,5.63-23.96,19.72.77,2.84,2.32,5.54,4.45,7.54,3.59,3.66,10.54,4.74,13.13-.21.6-1.31,1.03-3.2-.27-4.06-2.25-.86-6.29,5.52-9.04,2.05-6.42-8.79,3.43-18.83,12.91-14.35,15.73,8.19,9.82,31.48-7.95,32.12-7.14.4-14.31-3.78-18.72-9.82-1.24-1.62-2.53-3.66-3.55-5.12-.72-1.03-1.24-1.61-1.61-1.62h-.04Z"/>
      <path class="cls-2" d="M202.1,96.66c.26-1.1,2.72-.81,3.79-.94,6.35-.04,15.94-.07,22.76-.02,1.36.05,3.33-.03,4.37.6.69.6-.25,1.41-.72,1.91-1.99,1.83-5.52,4.4-6.1,7.59-.61,2.69.7,5.28,1.7,7.76,4.23,10.13,11.59,28.06,15.42,37.04,2.89,6.83,5.25-1.06,7.16-4.4,3.04-6.09,6.3-12.59,9.37-18.74,2.73-5.62,5.72-10.48,5.92-16.02.63-17.25-31.07-15.79,19.93-15.7,7.03.16,1.35,4.08-1.64,6.89-5.6,5.22-9.77,11.76-12.55,18.66-5.87,13.61-19.55,46.34-24.38,56.89-.37.82-.93,2.12-1.58,2.24-8.05-13.69-24.5-56.51-32.38-72.65-.97-2.04-2.66-4.11-4.49-5.64-2.32-2.21-5.5-3.4-6.56-5.41v-.06Z"/>
      <path class="cls-2" d="M164.89,173.64c-6.83.03-17.58-4.35-20.04-10.67-.9-3.36,2.43-5.63,4.77-7.46,11.97-9.07,32.25-24.37,42.74-32.37,2.5-1.82,5.12-4.3,4.33-7.64-.54-3.44-4.11-8.04-7.46-11.03-11.93-11.02-30.85-12-44.51-3.64-30.38,17.52-24.65,68.41,8.52,77.8,14.45,4.58,32.61-1.28,39.18-15.96-.05-1.12-1.77.09-2.52.51-7.07,4.8-15.73,10.3-24.79,10.45h-.2ZM147.97,109.37c4.22-2.96,8.8-4.42,13.53-4.58,5.88-.23,11.82,1.79,16.62,5.4,5.2,3.69,5.79,7.54.32,11.35-11.45,8.14-23.6,17.55-35.43,25.42-7.88,4.61-7.64-9.25-7.51-14.45.4-8.84,4.85-17.84,12.3-23l.18-.13Z"/>
      <path class="cls-1" d="M183.21,123.51c-12.3,10.75-25.55,20.4-39.57,28.78,12.29-10.76,25.55-20.39,39.57-28.78h0Z"/>
      <path class="cls-2" d="M443.71,173.64c-6.83.03-17.58-4.35-20.04-10.67-.9-3.36,2.43-5.63,4.77-7.46,11.97-9.07,32.25-24.37,42.74-32.37,2.5-1.82,5.12-4.3,4.33-7.64-.54-3.44-4.11-8.04-7.46-11.03-11.93-11.02-30.85-12-44.51-3.64-30.38,17.52-24.65,68.41,8.52,77.8,14.45,4.58,32.61-1.28,39.18-15.96-.05-1.12-1.77.09-2.52.51-7.07,4.8-15.73,10.3-24.79,10.45h-.2ZM426.8,109.37c4.22-2.96,8.8-4.42,13.53-4.58,5.88-.23,11.82,1.79,16.62,5.4,5.2,3.69,5.79,7.54.32,11.35-11.45,8.14-23.6,17.55-35.43,25.42-7.88,4.61-7.64-9.25-7.51-14.45.4-8.84,4.85-17.84,12.3-23l.18-.13Z"/>
      <path class="cls-1" d="M462.03,123.51c-12.3,10.75-25.55,20.4-39.57,28.78,12.29-10.76,25.55-20.39,39.57-28.78h0Z"/>
      <path class="cls-2" d="M292.59,93.05c-.13.67,1.04,1.27,1.55,1.75,3.38,2.74,9.06,6.8,11.38,11.14,1.05,2.39.88,4.63,1.08,7.38.6,15.25-.48,45.72-.8,53.71-.19,2.65-2.61,4.47-4.65,6.28-3.12,2.59-7.53,5.16-8.47,6.12-.95,1,1.34.68,1.98.77,6.23,0,23.59,0,29.62,0,.68.01,1.8.04,2.02-.41-.45-1.33-3.91-3.37-6.49-6.85-1.6-2.03-2.97-4.47-3.95-6.82-.95-2.37-1.31-3.36-1.29-5.52-.23-9.81.45-53.75-.26-62.08-2.77-5.3-8.59-6.4-14.57-6.06-1.76.02-6.59,0-7.1.56l-.03.04Z"/>
      <ellipse class="cls-2" cx="309.59" cy="70.67" rx="7.57" ry="10.4"/>
      <path class="cls-2" d="M392.54,108.02c-18.99-25.98-58.32-8.65-61.93,22.57-.8,6.32-.51,13.21,1.01,19.37,3.75,15.83,17.6,28.57,33.65,29.78,13.63,1.19,25.87-6.66,31.78-19.64.7-1.45,2.34-5.39-.54-2.77-47.1,48.21-85.21-37.88-32.71-55.45,3.05-.71,6.39-.74,9.45-.04,16.13,3,23.41,25.48,6.98,32.79-5.68,2.51-12.65-.68-15.25-6.07-.95-1.88-1.28-3.84-.75-5.48.77-2.24,3.21-4,4.52-2.19,1.03,1.36,1.11,4.63,2.93,5.88,3.82,2.6,8.57-2,7.82-6.09-1.52-8.57-15.61-8.5-19.94-2.26-2.71,3.18-2.7,7.55-1.25,11.4,10.46,25.28,50.04,3.69,34.34-21.6l-.13-.2Z"/>
      <path class="cls-2" d="M537.72,112.02c.52,2.32-6-2.65-7.26-3.16-7.5-4.36-18.13-8.2-26.99-5.91-16.62,4.72-5.15,16.35,5.19,21.25,5.24,2.59,10.73,3.63,16,5.99,10.12,4.56,22.13,14.5,20.11,26.85-2.16,11.25-13.8,19.03-24.87,22.05-7.73,2.04-15.87,1.03-23.01-2.68-12.83-6.14-21.51-22.37-10-33.96,5.67-5.48,13.66-5.61,20.31-.73,3.91,2.71,7.49,7.89,6.51,12.55-1.19,6.94-10.77,10.35-16.46,6.47-3.29-2.08-5.09-6.9-2.62-10.18,1.95-2.68,6.85-2.68,8.46-3.29,1.19-.38.5-1.18-.39-1.56-2.79-1.29-6.62-1.06-9.43.42-12.27,7.02-2.87,19.79,7.88,23.52,6.21,2.34,12.72,2.46,18.97.68,11.78-3.18,20.81-13.94,9.99-24.74-7.4-8.08-19.11-8.89-28.67-13.12-14.17-6.36-22.81-23.73-11.08-35.99,14.28-12.55,39.99.13,47.32,15.46l.02.06Z"/>
    </g>
  </g>
</svg>