<?xml version="1.0" encoding="UTF-8"?>
<svg id="_レイヤー_2" data-name="レイヤー 2" xmlns="http://www.w3.org/2000/svg" viewBox="0 0 716 100.39">
  <defs>
    <style>
      .cls-1 {
        fill: #231815;
      }

      .cls-2 {
        fill: #191919;
      }
    </style>
  </defs>
  <g id="_レイヤー_1-2" data-name="レイヤー 1">
    <g>
      <path class="cls-2" d="M232.28,30.4c-.81,1.54-2.56,2.97-3.57,4.22-.78.85-.71,1.76.05,2.61.62.87,2.05,1.93,1.76,3.08-.97,1.75-4.71,1.45-5.4,3.57-.11.44.06.87.41,1.16,1.25,1.03,3.24.44,4.56.96.88.55.52,1.66.62,2.63.13,6.22-.9,17.6-.62,22.17,1.05,3.3,5.44,6.86,9.39,4.96,2.23-1.01,6.1-4.05,5.31-6.5-.27-1-1.19-2.06-2.23-1.78-.95.23-1.58,1.56-2.33,2.25-.94.91-2.66.82-3.73.15-.85-.48-1.21-1.36-1.25-2.3-.35-4.23-.89-16.62-.62-20.56.04-.68.29-1.32.97-1.55.98-.4,3.15-.14,3.69.57.47.62.04,1.23-.53,2.17-.79,1.25-1.67,2.72-2.1,4.18-1.21,3.75.99,9.02,4.24,10.71,2.12.96,5.03.22,6.29-1.76,1.18-1.77.95-5.29-.96-6.42-1.2-.77-2.81-.25-4.01.27-1.98.99-2.43-.82-1.73-2.3,1.13-2.41,5.81-6,5.1-8.87-.3-1-1.42-1.8-2.61-2.06-2.35-.61-5.63,1.48-7.34-.98-.73-1.42-.11-2.52.38-4.44.68-2.32,1.62-5.39,2.08-7.63.47-1.8.33-4.38-1.64-5.12-1.28-.54-2.7.69-3.12,2.22-.52,1.39-.44,2.98-1.05,4.3l-.03.07Z"/>
      <g>
        <path class="cls-2" d="M615.2,41.59c-.05.26.41.5.61.69,1.33,1.08,3.57,2.68,4.48,4.39.42.94.35,1.83.42,2.91.23,6.01-.19,18.01-.31,21.16-.07,1.04-1.03,1.76-1.83,2.47-1.23,1.02-2.96,2.03-3.34,2.41-.37.39.53.27.78.3,2.45,0,9.29,0,11.67,0,.27,0,.71.02.79-.16-.18-.52-1.54-1.33-2.56-2.7-.63-.8-1.17-1.76-1.56-2.69-.37-.93-.52-1.33-.51-2.17-.09-3.86.18-21.17-.1-24.46-1.09-2.09-3.38-2.52-5.74-2.39-.69,0-2.6,0-2.8.22h-.01Z"/>
        <ellipse class="cls-2" cx="621.9" cy="32.77" rx="2.98" ry="4.1"/>
      </g>
      <path class="cls-2" d="M655.23,47.38c-7.64-10.46-23.47-3.48-24.92,9.08-.32,2.54-.21,5.32.41,7.79,1.51,6.37,7.08,11.5,13.54,11.99,5.49.48,10.41-2.68,12.79-7.9.28-.58.94-2.17-.22-1.11-18.96,19.4-34.3-15.24-13.16-22.32,1.23-.28,2.57-.3,3.8-.02,6.49,1.21,9.42,10.26,2.81,13.2-2.28,1.01-5.09-.27-6.14-2.44-.38-.76-.52-1.54-.3-2.21.31-.9,1.29-1.61,1.82-.88.42.55.45,1.86,1.18,2.37,1.54,1.05,3.45-.81,3.15-2.45-.61-3.45-6.28-3.42-8.02-.91-1.09,1.28-1.09,3.04-.5,4.59,4.21,10.17,20.14,1.48,13.82-8.69l-.05-.08Z"/>
      <path class="cls-2" d="M578.81,42.64c.11-.44,1.09-.33,1.52-.38,2.55-.02,6.4-.03,9.13,0,.54.02,1.34-.01,1.75.24.28.24-.1.56-.29.77-.8.73-2.21,1.77-2.45,3.04-.25,1.08.28,2.12.68,3.11,1.7,4.07,4.65,11.26,6.19,14.86,1.16,2.74,2.11-.42,2.87-1.77,1.22-2.44,2.53-5.05,3.76-7.52,1.1-2.25,2.29-4.2,2.37-6.43.25-6.92-12.47-6.33,8-6.3,2.82.06.54,1.64-.66,2.77-2.25,2.09-3.92,4.72-5.04,7.49-2.36,5.46-7.84,18.59-9.78,22.83-.15.33-.37.85-.63.9-3.23-5.49-9.83-22.67-12.99-29.15-.39-.82-1.07-1.65-1.8-2.26-.93-.89-2.2-1.36-2.63-2.17v-.02Z"/>
      <path class="cls-2" d="M713.09,50.13c.21.89-2.4-1.01-2.91-1.21-3-1.67-7.26-3.14-10.81-2.26-6.66,1.81-2.06,6.26,2.08,8.14,2.1.99,4.3,1.39,6.41,2.3,4.06,1.75,8.86,5.56,8.06,10.29-.87,4.31-5.53,7.29-9.96,8.45-3.1.78-6.36.39-9.22-1.03-5.14-2.35-8.62-8.57-4-13.01,2.27-2.1,5.47-2.15,8.14-.28,1.57,1.04,3,3.02,2.61,4.81-.48,2.66-4.31,3.96-6.59,2.48-1.32-.8-2.04-2.64-1.05-3.9.78-1.03,2.75-1.03,3.39-1.26.48-.15.2-.45-.15-.6-1.12-.5-2.65-.4-3.78.16-4.92,2.69-1.15,7.58,3.16,9.01,2.49.9,5.1.94,7.6.26,4.72-1.22,8.34-5.34,4-9.48-2.97-3.1-7.66-3.41-11.48-5.03-5.68-2.44-9.14-9.09-4.44-13.79,5.72-4.81,16.02.05,18.96,5.92v.02Z"/>
      <path class="cls-2" d="M669.77,66.36c4.8-3.63,12.92-9.76,17.12-12.97,1-.73,2.05-1.72,1.74-3.06-.22-1.38-1.65-3.22-2.99-4.42-4.78-4.41-12.36-4.81-17.83-1.46-12.17,7.02-9.87,27.4,3.41,31.16,5.79,1.83,13.06-.51,15.69-6.39-.02-.45-.71.04-1.01.2-2.83,1.92-6.3,4.13-9.93,4.19h-.08c-2.74.01-7.04-1.74-8.03-4.27-.36-1.35.97-2.26,1.91-2.99ZM667.13,62.92c-3.16,1.85-3.06-3.7-3.01-5.79.16-3.54,1.94-7.15,4.93-9.21l.07-.05c1.69-1.18,3.52-1.77,5.42-1.84,2.35-.09,4.73.72,6.66,2.16,2.08,1.48,2.32,3.02.13,4.55-4.58,3.26-9.45,7.03-14.19,10.18ZM682.53,54.05c-4.58,3.81-9.39,7.32-14.44,10.5,4.58-3.82,9.4-7.31,14.44-10.5Z"/>
      <path class="cls-2" d="M558.46,66.36c4.8-3.63,12.92-9.76,17.12-12.97,1-.73,2.05-1.72,1.74-3.06-.22-1.38-1.65-3.22-2.99-4.42-4.78-4.41-12.36-4.81-17.83-1.46-12.17,7.02-9.87,27.4,3.41,31.16,5.79,1.83,13.06-.51,15.69-6.39-.02-.45-.71.04-1.01.2-2.83,1.92-6.3,4.13-9.93,4.19h-.08c-2.74.01-7.04-1.74-8.03-4.27-.36-1.35.97-2.26,1.91-2.99ZM555.81,62.92c-3.16,1.85-3.06-3.7-3.01-5.79.16-3.54,1.94-7.15,4.93-9.21l.07-.05c1.69-1.18,3.52-1.77,5.42-1.84,2.35-.09,4.73.72,6.66,2.16,2.08,1.48,2.32,3.02.13,4.55-4.58,3.26-9.45,7.03-14.19,10.18ZM571.21,54.05c-4.58,3.81-9.39,7.32-14.44,10.5,4.58-3.82,9.4-7.31,14.44-10.5Z"/>
      <path class="cls-2" d="M434.07,66.36c4.8-3.63,12.92-9.76,17.12-12.97,1-.73,2.05-1.72,1.74-3.06-.22-1.38-1.65-3.22-2.99-4.42-4.78-4.41-12.36-4.81-17.83-1.46-12.17,7.02-9.87,27.4,3.41,31.16,5.79,1.83,13.06-.51,15.69-6.39-.02-.45-.71.04-1.01.2-2.83,1.92-6.3,4.13-9.93,4.19h-.08c-2.74.01-7.04-1.74-8.03-4.27-.36-1.35.97-2.26,1.91-2.99ZM431.43,62.92c-3.16,1.85-3.06-3.7-3.01-5.79.16-3.54,1.94-7.15,4.93-9.21l.07-.05c1.69-1.18,3.52-1.77,5.42-1.84,2.35-.09,4.73.72,6.66,2.16,2.08,1.48,2.32,3.02.13,4.55-4.58,3.26-9.45,7.03-14.19,10.18ZM446.83,54.05c-4.58,3.81-9.39,7.32-14.44,10.5,4.58-3.82,9.4-7.31,14.44-10.5Z"/>
      <path class="cls-2" d="M455.31,43.47c.07.32.43.5.71.68,1.59.92,4.48,2.16,4.3,4.45,0,3.48,0,15.81,0,18.82.05,1.29-.36,2.42-1.1,3.63-.4.65-.89,1.3-1.43,1.86-1.47,1.64-3.29,2.52-3.62,3.2,0,.23,1,.18,2.51.19,3.03,0,7.96.02,9.55-.02,1.34.04-.19-1.04-.64-1.74-.74-.89-1.2-1.89-1.36-3.04-.63-4.07-.55-14.47-.52-17.44-.13-2.1.81-4.45,2.8-5.56,1.08-.57,1.97-.2,2.18.8.39,1.9-.6,3.87-1.1,5.68-.91,3.29.58,9.1,4.63,9.59,2.84.38,6.22-1.61,4.99-4.86-.49-1.43-1.83-2.75-3.44-2.55-1.97.24-4.32,2.11-4.25-.91.26-4.04,3.43-6.74,5.55-9.87,1.22-1.81,1.79-4.41-1.48-3.47-2.18.57-4.47,1.95-6.67,2.56-3.13.77-2.64-3.11-6.24-3.13-1.21-.11-4.91-.04-5.38,1.1v.03Z"/>
      <path class="cls-2" d="M201.37,43.47c.07.32.43.5.71.68,1.59.92,4.48,2.16,4.3,4.45,0,3.48,0,15.81,0,18.82.05,1.29-.36,2.42-1.1,3.63-.4.65-.89,1.3-1.43,1.86-1.47,1.64-3.29,2.52-3.62,3.2,0,.23,1,.18,2.51.19,3.03,0,7.96.02,9.55-.02,1.34.04-.19-1.04-.64-1.74-.74-.89-1.2-1.89-1.36-3.04-.63-4.07-.55-14.47-.52-17.44-.13-2.1.81-4.45,2.8-5.56,1.08-.57,1.97-.2,2.18.8.39,1.9-.6,3.87-1.1,5.68-.91,3.29.58,9.1,4.63,9.59,2.84.38,6.22-1.61,4.99-4.86-.49-1.43-1.83-2.75-3.44-2.55-1.97.24-4.32,2.11-4.25-.91.26-4.04,3.43-6.74,5.55-9.87,1.22-1.81,1.79-4.41-1.48-3.47-2.18.57-4.47,1.95-6.67,2.56-3.13.77-2.64-3.11-6.24-3.13-1.21-.11-4.91-.04-5.38,1.1v.03Z"/>
      <path class="cls-2" d="M512.04,75.86c-1.28-.24-12.98.84-11.5-1.39,1.06-1.36,4.94-3.63,5.96-5.92,1.03-1.84.81-3.66.84-5.74,0-5.14,0-13.65,0-22.1-.01-7.62-.03-15.19-.05-20.22.13-4.4,0-8.2-3.74-11-.63-.61-1.84-1.44-1.82-2.15.5-1.07,3.84-.63,5.42-.81,1.4,0,3.19-.05,3.88,1.4.36.69.47,1.73.63,2.43.09.4.22.61.44.6,1.22-.49,2.27-2.4,3.99-3.5,6.61-4.74,15.44-2.12,21.16,2.8,6.06,4.98,9.3,12.75,10.48,20.35,2.66,16.67-2.86,40.03-20.29,45.02-4.96.44-10.54.11-15.32.22h-.07ZM512.2,19.53c-.14,0-.23.25-.27.71-.05.6-.06,1.48-.06,2.18.02,9.87.03,20.86.04,30.87,0,2.65,0,5.35,0,7.96.05,2.44-.15,3.86.26,5.81.9,3.88,5.42,4.56,8.97,4.42,2.16,0,4.5.01,6.28-.15,1.71-.13,3.31-.65,4.61-1.8,11.91-10.2,14.07-34.84,6.91-48.27-2.87-5.27-7.46-10.38-13.29-11.98-4.75-1.29-10.79,2.21-9.32,7.69.3,1.1.9,2.16,1.74,2.94,1.4,1.42,4.11,1.84,5.12-.09.23-.51.4-1.25-.11-1.58-.88-.33-2.45,2.15-3.52.8-2.51-3.42,1.33-7.34,5.02-5.6,6.13,3.18,3.84,12.26-3.08,12.51-2.78.16-5.58-1.46-7.3-3.82-.48-.63-.99-1.42-1.38-1.99-.28-.4-.48-.63-.63-.63h-.01Z"/>
      <path class="cls-2" d="M326.57,43.96c-.22,1.15,1.53,2.08,2.15,2.87.58.61.79,1.29.87,2.09.51,4.26.68,13.76,1.1,19.15.09,3.02,3.65,6.75,7.56,7.93,1.95.6,4.29.69,6.19.35,1.88-.27,2.93-1,4.52-1.24,2.94-.11,5.8,2.39,8.64.52.89-.49,1.77-1.56.64-2.33-1.56-1.12-4.9-1.9-4.94-4.39-.56-4.99.87-19.69.37-23.75-.28-1.84-2.1-1.98-4.06-2.32-1.92-.18-5.19-.17-5.21,1.68.56,1.75,3.64,2.02,4.24,3.81,1.34,4.22.77,14.6.36,18.72-.11.95-.33,1.71-1.1,2.38-1.53,1.42-5.3,2.87-7.81,1.93-2.05-.71-4.18-2.34-4.96-4.35-.45-3.66.34-9.09.23-15.21-.07-3,.11-4.93-.55-7.06-1.15-2.61-5.28-2.53-7.37-1.57-.35.16-.7.43-.84.75l-.02.04Z"/>
      <path class="cls-2" d="M195.46,73.31c-1.72-1.49-2.41-3.39-2.09-5.47.25-3.77.92-13.16-.07-18.23-1.13-6.33-8.55-8.39-14.12-6.22-2.39.88-6.96,3.28-5.83,6.26,1.55,2.24,5.4-4.73,10.38-3.95,2.53.2,5.02,2.12,6.1,3.78,1.01,1.24,1.63,5.1-.54,5.33-1.45.02-2.97-.51-4.44-.7-2.24-.43-4.23-.27-6.23.77-2.61,1.26-5,3.34-5.97,6.15-1.91,5.97,1.46,14.36,7.69,15.35,1.48.28,3.11.24,4.55-.11,1.63-.38,2.62-1.18,4.28-1.29.82-.06,1.65.07,2.41.33,1.82.77,3.88,1.56,5.88,1.05.57-.16,1.24-.23,1.43-.72.02-.39-1.1-.77-2.21-1.44-.4-.24-.8-.52-1.17-.83l-.06-.05ZM182.49,73.08c-2.9-.08-5.25-2.29-6.41-4.83-2.25-4.33-.27-8.47,3.68-10.77,2.27-1.34,4.94-1.04,7.31-.17,3.06,1.22,3.53,3.84,3.6,7.03.23,5.08-2.83,8.86-8.1,8.76h-.08Z"/>
      <path class="cls-2" d="M384.12,73.31c-1.72-1.49-2.41-3.39-2.09-5.47.25-3.77.92-13.16-.07-18.23-1.13-6.33-8.55-8.39-14.12-6.22-2.39.88-6.96,3.28-5.83,6.26,1.55,2.24,5.4-4.73,10.38-3.95,2.53.2,5.02,2.12,6.1,3.78,1.01,1.24,1.63,5.1-.54,5.33-1.45.02-2.97-.51-4.44-.7-2.24-.43-4.23-.27-6.23.77-2.61,1.26-5,3.34-5.97,6.15-1.91,5.97,1.46,14.36,7.69,15.35,1.48.28,3.11.24,4.55-.11,1.63-.38,2.62-1.18,4.28-1.29.82-.06,1.65.07,2.41.33,1.82.77,3.88,1.56,5.88,1.05.57-.16,1.24-.23,1.43-.72.02-.39-1.1-.77-2.21-1.44-.4-.24-.8-.52-1.17-.83l-.06-.05ZM371.15,73.08c-2.9-.08-5.25-2.29-6.41-4.83-2.25-4.33-.27-8.47,3.68-10.77,2.27-1.34,4.94-1.04,7.31-.17,3.06,1.22,3.53,3.84,3.6,7.03.23,5.08-2.83,8.86-8.1,8.76h-.08Z"/>
      <path class="cls-1" d="M121.49,14.36c-1.2-2.19-3.36-3.52-5.46-3.9-3.15-.57-5.76,1.08-6.63,1.64-2.18,1.38-2.94,2.98-6.24,4.84-.62.35-1.39.75-2.34.62-1.42-.18-2.51-1.42-2.97-2.58-.15-.37-.44-1.15-.23-2.11.02-.11.41-1.78,2.03-2.42.07-.03,1.6-.61,2.73.16.76.51.87,1.3,1.09,1.25.3-.07.53-1.53-.16-2.42-.98-1.26-3.3-.7-3.59-.62-2.43.63-3.4,2.95-3.43,3.04-.64,1.63-.22,3.08-.08,3.51.67,2,2.47,3.28,4.21,3.59.23.04,1.25.2,2.89-.31,3.17-1,3.4-2.87,6.72-4.68,1.53-.83,3.44-1.87,5.54-1.25,1.46.43,2.77,1.6,3.36,3.12.73,1.9.06,3.61-.23,4.37-1.07,2.74-3.48,4.05-5.23,4.99-1.23.67-3.53,1.91-6.48,1.8-1.69-.07-1.91-.51-5.15-.86-2.44-.26-2.71-.05-3.43-.47-1.79-1.04-.82-2.73-2.81-5.23-.94-1.18-1.84-1.65-4.14-4.29-.35-.4-.65-.77-.78-1.33-.08-.34-.24-1.43,1.87-4.14.68-.87,1.46-1.85,2.89-3.04,2.63-2.19,4.63-2.76,4.53-3.04-.12-.34-3.13-.14-5.62,1.64-1.7,1.21-2.73,2.86-3.28,3.75-1.27,2.06-1.55,3.58-1.87,3.51-.39-.08-.03-2.29-.31-5.85-.21-2.69-.33-4.05-1.25-5.31-.26-.35-1.65-2.26-4.06-2.34-.2,0-2.91-.05-4.21,2.18-.74,1.27-.84,2.94-.08,4.29.49.86,1.78,2.39,3.36,2.03,1.08-.25,2.19-1.36,2.03-2.65-.21-1.73-2.51-2.29-2.65-2.11-.11.14.93.77,1.03,1.96.04.49-.07,1.25-.48,1.42-.58.24-1.65-.68-2.05-1.71-.04-.1-.57-1.54.37-2.76.85-1.11,2.2-1.1,2.53-1.08,1.59.08,2.53,1.37,2.71,1.62.43.61.62,1.28.6,4.87-.02,3.68-.24,4.13.29,4.99.6.98,1.4,1.25,1.63,2.42.14.72-.03,1.3-.23,1.97-.27.92-.92,3.09-2.14,3.32-1.52.29-2.2-2.73-4.56-2.93-1.74-.15-3.16,1.35-3.49,1.69-1.31,1.37-1.49,2.98-1.52,3.49-.04.57-.17,2.55,1.24,3.89,1.16,1.09,2.67,1.12,3.04,1.13,2.04.03,3.16-1.22,3.6-.84.32.27.21,1.3-1.63,4.56-2.32,2.65-3.55,4.05-3.55,4.05,0,0-3.55,3.45-6.14,2.82-1.28-.31-.98-1.22-2.93-2.87-2.45-2.07-5.18-2.54-6.19-2.7-.76-.12-2.26-.35-4.17,0-2.62.48-4.35,1.74-5.12,2.31-.98.73-3.33,2.47-4.28,5.46-.64,2-.32,3.56-.68,3.6-.4.06-.83-1.91-2.03-5.07-1.24-3.28-1.89-4.94-3.15-6.14-.41-.39-2.54-2.4-5.57-2.2-.78.05-3.26.36-4.62,2.37-.89,1.32-.87,2.74-.84,4.11.02,1.2.04,2.22.73,3.27,1.01,1.53,2.67,1.9,2.98,1.97.54.12,1.24.28,2.03-.06.14-.06,1.03-.46,1.41-1.41.54-1.37-.34-2.91-.62-2.87-.33.05.19,2.19-.84,2.82-.48.29-1.07.12-1.69-.06-.35-.1-1.48-.42-2.2-1.52-.57-.87-.56-1.74-.56-2.2,0-.42.03-1.8,1.07-2.98,1.17-1.33,2.79-1.45,3.27-1.46,2.24-.06,3.75,1.57,4.11,1.97,1.03,1.12.84,1.73,2.08,5.46,1.2,3.6,1.82,4.4,1.3,5.35-.56,1.01-1.59.69-3.6,1.69-1.74.87-2.08,1.66-5.07,4.67-1.67,1.68-2.92,2.8-4.5,4.22-4.41,3.95-5.66,4.44-6.42,4.67-1,.31-3.05.91-5.24.06-1.71-.67-2.7-1.92-3.32-2.7-.3-.38-1.3-1.69-1.86-3.72-.41-1.48-.72-3.83-.06-4.11.48-.2.88.91,2.42,1.46,1.51.54,2.89.11,3.21,0,1.31-.45,2.05-1.32,2.31-1.63.43-.52,1.1-1.34,1.13-2.53.03-1.43-.91-2.42-1.24-2.76-1.41-1.48-3.3-1.47-3.49-1.46-.24,0-2.06.08-3.21,1.41-.91,1.06-.85,2.27-1.13,2.25-.31-.02-.44-1.59-.56-3.21-.11-1.4-.05-1.81,0-2.08.26-1.34.97-2.04.84-2.14-.15-.12-1.41.71-1.91,2.08-.1.28-.09.34-.17,2.65-.07,1.81-.09,2.05.06,2.53.25.83.57.97.62,1.63.06.83-.39,1.36-.68,1.91-.59,1.16-.37,2.33.06,4.67.34,1.84.61,3.31,1.69,4.9.42.62,1.79,2.57,4.34,3.49,2.45.88,4.62.32,6.19-.11,2.44-.67,2.81-1.44,7.77-4.34,4.18-2.44,3.96-1.92,6.14-3.43,1.81-1.26,3.73-2.37,5.52-3.66,1.13-.81,2.3-1.7,2.96-1.3.59.35.12,1.33.88,2.41.75,1.06,1.78.94,1.92,1.67.12.66-.63,1.31-1.4,1.97-1.36,1.17-2.75,1.6-3.17,1.72-1.02.29-1.83.32-3.39.34-3.04.06-3.51-.35-5.06,0-.95.22-1.68.64-3.15,1.47-1.57.9-3.06,1.75-4.52,3.29-1.07,1.12-1.73,2.24-3.05,4.47-1.12,1.9-1.03,2.03-1.82,3.15-1.49,2.08-2.97,3.2-3.29,3.44-.72.53-1.72,1.26-3.15,1.72-1.32.43-2.26.38-4.28.34-6.73-.13-5.14.18-8.06,0-1.99-.13-3.02-.29-4.42.25-.57.22-1.78.7-2.65,1.97C-.04,80.45-.01,81.85,0,82.3c.02.51.08,1.78.99,2.95.37.47,1.12,1.44,2.36,1.52,1.2.09,2.06-.71,2.41-1.03.35-.32,1.35-1.25,1.23-2.56-.09-.98-.77-1.62-.98-1.82-.24-.23-.59-.55-1.13-.64-.73-.13-1.44.23-1.43.39.02.16.75-.02,1.23.44.44.42.4,1.1.39,1.28-.04.87-.66,2.01-1.57,2.06-.88.05-1.5-.93-1.62-1.13-.46-.74-.42-1.5-.39-1.97.02-.42.1-1.41.84-2.26.13-.15.63-.7,1.62-1.03,1.66-.55,3.26,0,3.74.15,1.54.49,4.04.84,8.21.1,2.26.46,3.99.11,4.92-.15,1.91-.54,3.17-1.53,4.47-2.56,1.26-.99,2.05-1.86,3.49-3.44,1.94-2.13,1.82-2.32,3.1-3.54.81-.77,2.05-1.94,3.98-2.95.82-.43,2.14-1.11,3.93-1.43,3.2-.57,3.74.76,6.93.15,1.4-.27,2.73-.52,4.23-1.43,1.15-.69,1.87-1.45,2.41-1.18.62.31.14,1.54.93,2.56.5.64,1.26.9,2.31,1.08,3.27.57,7.72.14,9.05,0,.48-.27,1.16-.73,1.82-1.47.69-.79,1.04-1.53,1.28-2.06.5-1.11.38-1.36.98-3.2.33-.99.53-1.58.93-2.31.64-1.15,1.06-1.89,1.72-2.02.38-.07.91.05,3.39,2.85.86.97,1.59,1.8,2.61,3.15.92,1.22,1.66,2.21,2.46,3.64,1.12,2.01,1.68,3.02,1.62,4.18-.1,2.1-1.75,3.55-2.46,4.18-1.69,1.5-3.53,1.9-4.82,2.16-3.16.65-5.77.09-7.67-.34-2.26-.51-2.54-.91-7.67-2.36-1.63-.46-2.8-.76-4.28-.44-.69.15-2.58.56-3.54,2.31-1,1.83-.24,3.73-.15,3.93.9,2.11,3.14,2.76,4.13,3.05.46.13,3.04.83,5.56-.34,1.34-.63,1.56-1.27,2.8-1.43,1.17-.15,2.86.2,3.24,1.28.33.93-.46,1.95-.59,2.11-1.08,1.34-2.87,1.23-2.85,1.52.02.31,2.02.91,3.44-.05,1.04-.7,1.31-1.93,1.43-2.46.13-.59.32-1.43-.05-2.21-.71-1.53-3.14-2.09-4.92-1.62-1.28.34-1.17.93-2.75,1.57-.53.21-2.57,1-4.77.25-.7-.24-2.02-.7-2.65-2.02-.07-.15-.78-1.69.05-3,.58-.91,1.55-1.17,1.97-1.28,1.57-.4,2.97.24,3.54.49,0,0,2.2.98,7.67,2.75,1.73.56,4.57,1.49,8.11,1.13,1.58-.16,4.52-.49,7.33-2.7,3.05-2.4,4.04-5.5,4.28-6.34.29-1,1.04-4.11-.25-7.62-.33-.89-1.02-2.72-2.7-4.28,0,0-.4-.37-3.24-2.41,6.84-.34,8.26-.79,8.26-.79,2.54-.81,4.18-2.17,6.1-3.78,1.69-1.42,1.55-1.66,5.95-6.01,1.34-1.32,2.32-2.26,3.83-3.24,1.51-.98,2.62-1.7,4.23-1.87,1.55-.16,4.33.13,5.36,2.06.64,1.19.32,2.47.25,2.75-.31,1.26-1.12,2.01-4.28,4.28-4.57,3.27-5.18,3.33-5.51,3.1-.57-.41-.36-1.78,0-2.63.69-1.66,2.32-2.26,2.23-2.42-.1-.18-2.21.12-3.25,1.66-1.14,1.68.22,3.08-.83,4.91-.82,1.43-1.87.94-3.76,2.81-.84.82-2.21,2.17-2.36,4.21-.02.23-.15,2.43,1.47,4.02.34.33,1.57,1.55,3,1.28.99-.19,1.57-1,2.3-2.02.44-.62,1.14-1.6,1.34-3.01.22-1.52-.36-1.96-.25-4.27.04-.88.06-1.32.19-1.72.64-1.95,2.87-2.14,5.87-3.87,1.7-.98,4.33-2.5,5.48-5.32.26-.65,1.1-2.71.25-4.72-1.22-2.9-5.11-3.7-7.4-3.63-1.79.05-3.08.64-5.42,1.72-2.31,1.06-3.55,1.63-4.85,2.93-1.26,1.26-1.94,2.57-3.89,3.44-.28.12-1.32.59-1.53.32-.32-.43,1.91-2.02,3.76-5.16.6-1.03,1.57-2.66,1.98-4.91.57-3.13-.5-4.28.38-5.23,1.14-1.22,3.29.3,7.61.3,1.54,0,4.71-.2,7.96-1.8,1.76-.87,5.12-2.52,6.56-6.24.33-.87,1.58-4.09-.16-7.26ZM21.02,45.15c1.3.04,2.7,1.02,2.87,2.46.2,1.6-1.22,3.01-2.75,3.19-1.51.18-3.1-.81-3.37-2.23-.32-1.72,1.44-3.49,3.25-3.43ZM56.91,63.88h-1v-2h1v2ZM56.91,60.89h-1.99v-1.99h1.99v1.99ZM53.32,50.26c-.97-.85-.61-3.08.53-4.34.95-1.05,2.84-1.86,3.91-1.03,1.02.79.82,2.68.13,3.81-1.01,1.66-3.52,2.48-4.58,1.56ZM59.92,63.88h-2.01v-2h2.01v2ZM59.92,60.89h-2.01v-1.99h2.01v1.99ZM62.9,63.88h-1.99v-2h1.99v2ZM62.9,60.89h-1.99v-1.99h1.99v1.99ZM62.93,53.23c-.16.66-.77,1.35-1.26,1.29-.64-.08-.75-.94-1.28-.94-.52,0-.77.82-1.17.78-.32-.03-.58-.87-.53-1.62.06-1.07.78-2.55,1.93-2.64,1.36-.11,2.64,1.8,2.31,3.13ZM64.89,63.88h-1v-2h1v2ZM65.89,60.89h-1.99v-1.99h1.99v1.99ZM69.31,50c-.98,1.01-3.05.57-4.21-.43-1.29-1.12-1.94-3.37-.93-4.44.97-1.04,3.15-.61,4.34.5,1.22,1.13,1.81,3.32.8,4.38ZM103.64,59.53c-.22.77-.49,1.65-1.39,2.3-.86.63-2.35,1.1-3.04.55-1.06-.83.08-3.81,1.49-5.66.48-.63,1.6-2.08,2.4-1.85.95.27,1.06,2.82.53,4.65ZM87.48,22.49c.46-1.85,1.26-5.05,2.52-5.1.71-.03.93.97,2.75,3.52,2,2.78,3.13,3.52,2.81,4.22-.38.84-2.1.04-4.45,1.05-2.51,1.08-3.14,3.1-3.87,2.81-1.01-.4-.27-4.47.23-6.5ZM81.42,26.01c-1.51-.27-2.44-1.76-2.39-3.16.05-1.55,1.3-2.95,2.75-3.02,1.81-.08,3.42,1.93,3.02,3.79-.3,1.42-1.77,2.67-3.38,2.39ZM93.17,39.25c-.82.88-3.26,3.48-7.03,3.75-1.62.11-4.66-.11-5.04-1.41-.44-1.51,2.96-3.75,8.2-7.15,3.06-1.98,5.68-3.47,7.5-4.45-.04,1.41-.34,5.74-3.63,9.26Z"/>
      <path class="cls-2" d="M169.76,71.93c-.97-6.4.39-13.78.35-20.43-.69.99-1.16,6.1-1.66,8.04-1.35,9.46-5.18,13.82-15.3,13.36-3.95,0-8.16.12-12.06-.67-6.7-1.46-6.61-3.6-6.4-9.66.22-6.02-.52-12.84.35-18.73.79-3.88,8.15-4.23,10.77-2.36,1.85,1.69.39,4.69.04,6.82-1.29,4.84-.24,10.98,4.81,13.12,3.23,1.6,9.15.25,8.7-4.06-.22-1.72-1.91-3.11-3.61-2.9-3.53.65,1.43,1.92.37,3.26-.99.93-2.56,1.09-3.86.59-5.93-2.81-3.24-11.25-1.69-16.15,1.92-5.12,4.42-8.97,7.25-14.13,3.5-6.11,6.36-10.87,10.08-16.19,4.91-7.83-5.78-4.63-10.07-4.94-9.29.18-20.61.72-29.34-.59-1.08-.25-6.59-.44-4.62,1.46.88.82,3.09,1.81,4.5,2.85,1.65,1.15,2.54,2.99,2.83,4.85.96,4.86,1.16,21.98.63,36.41-.36,5.3.19,10.97-1.39,15.43-.98,2.99-4.23,4.89-6.81,6.54-2.82,2.31,2.91,2.63,5.24,2.55,9.31-1.06,21.25-.18,30.36-.08,4.05-.21,11.39,2.48,10.54-4.2v-.17ZM134.61,25.64c.21-4.53-.51-10.23.5-14.3,1.15-2.15,4.74-1.2,8.67-1.43,3.21,0,7.18,0,10.19,0,3.33-.13,8.66-.03,7.93,3.68-1.96,5.09-5.47,10.14-7.96,15.1-1.92,3.04-2.57,5.77-4.83,7.76-.92.54-2.08.59-3.18.64-2.7.04-6.49.21-8.5-.57-3.88-1.71-2.57-7.29-2.84-10.69v-.17Z"/>
      <path class="cls-1" d="M251.2,23.12c-.05.83,2.01,2.36,3.04,3.98.89,1.38,1.08,2.86,1.11,4.48.03,7.94,0,25.92.01,34.05.04,2.07-.17,4.08-1.58,5.69-1.33,1.66-3.81,3.37-3.9,4.4.36,1.78,6.27.92,7.77.54,4.36-1.1,2.12-4.06,1.17-7.55-.6-2.87-.27-6.38-.35-10.02-.02-3.45-.12-7.69,1.23-9.71,1.85-2.85,6.14-3.78,9.86-2.99,7.76,1.6,8.41,11.88,6.03,18.13-3.28,9.88-14.06,18.35-13.33,27.16.34,5.77,6.88,10.97,12.45,8.48,5.75-2.31,6.82-9.95-.24-10.72-2.34-.3-5.8,1.86-4.11,4.3,1.06,1.33,2.36,0,3.16-.94.69-.77,1.23-1.06,1.73-.33,1.3,1.79-.13,4.11-2.19,4.61-6.51,1.43-9.36-5.56-6.51-10.88,1.92-4.01,5.72-7.73,7.95-11.56,1.98-3.24,3.61-6.49,4.67-10.14,2.94-9.65-.28-22.11-10.34-21.65-2.39.06-4.96.84-7.26,1.04-1.21.11-2.01,0-2.4-.42-.44-.49-.39-1.25-.36-1.9.13-1.55.3-3.65.31-6.2-.1-3.59.34-7.85-2.04-10.37-1.81-1.89-5.33-2.67-5.88-1.52v.06Z"/>
      <path class="cls-1" d="M318.94,15.17c.2-.03.27-.24.27-.44-.42-3.62-5.86-8.78-9.89-9.89-6.26-2.16-13.87-1.3-18.23,3.5-14.32,16.89-13.37,71,11.8,69.84,8.64-.77,8.18,2.26,11.1,9.89,1.02,2.2,2.28,5.39,4.88,5.81,1.23.02,1.88-1.51,1.52-3.44-.77-4.19-4.69-7.72-5.96-12.09-1.64-5.47,4.35-8.72,6.01-13.34,3.66-9.43,4.9-22.83,3.05-33.39-2.22-12.18-17.75-26.22-26.65-11.42-5.61,11.76,12.45,20.48,14.27,6.53.35-3.76-3.5-6.56-6.54-4.83-.66.4-.3.91.19,1.23,1.11.75,2.89,1.33,3.31,2.68.59,1.82-1.26,3.69-3.17,3.74-1.76.15-3.61-.89-4.55-2.4-3.64-6.9,4.81-12.95,11.12-8.8,11.12,6.69,10.15,34.64,5.67,45.24-1.13,2.4-3.54,7.76-6.29,6.18-2.32-1.37-3.7-9.73-5.79-12.98-1.08-1.76-2.58-1.97-4.63-.73-2.64,1.72-7.36,5.84-6.43,7.99.77,1.03,4.31-.7,6.34-.52,2.78,0,7.44,6.86,6.46,9.7-.44,1.48-2.63,2.18-4.36,1.94-5.72-.68-11.39-6.36-13.63-11.8-4.78-11.92-6.15-51.65,11.31-56.03,5.45-1.65,10.5.57,15.13,5.12,1.07.9,2.54,2.62,3.64,2.71h.05Z"/>
      <path class="cls-1" d="M388.17,24.22c-.17.36.06.8.52,1.25,7.8,5.79,4.8,18.86,4.43,37.44-.09,2.83-.53,6.16-1.46,8.6-.76,2.19-1.69,3.56-1.7,4.23.16,1.08,2.17.72,4.78.77,8.22-.41,3.47-1.67,2.3-6.29-.39-2.78,3.19-5.97,6.55-6.37,2.8-.38,5.56,1.25,7.1,3.54.5.74.86,1.54,1.11,2.38.8,2.62.1,4.71,2.01,5.68,1.4.92,9.48,1.46,8.14-1.4-3.17-4.05-9.95-6.46-10.32-12.46-.21-4.55,5.59-6.83,5.26-11.4-.1-1.73-.77-3.15-1.89-4.41-2.79-3.28-9.05-3.37-10.62,1.06-.76,1.96.06,4.56,2.06,5.35.77.32,1.62.3,2.32,0,1.55-.64,2.49-3.08.78-3.53-.76-.29-3.56,1.05-3.24-.45,1.66-4.21,7.72-1.58,7.7,2.43.46,4.47-6.49,9.53-11.74,10.97-4.96,1.17-4.88-1.77-4.66-5.27.08-4.07-.02-14.68-.12-20.84-.15-4.4.38-7.97-2.71-10.56-2.06-1.54-5.22-2.05-6.57-.76l-.03.05Z"/>
    </g>
  </g>
</svg>