<?xml version="1.0" encoding="UTF-8"?>
<svg id="_レイヤー_2" data-name="レイヤー 2" xmlns="http://www.w3.org/2000/svg" viewBox="0 0 480.21 216.95">
  <defs>
    <style>
      .cls-1 {
        fill: #191919;
      }
    </style>
  </defs>
  <g id="_レイヤー_1-2" data-name="レイヤー 1">
    <g>
      <path class="cls-1" d="M369.52,135.39c11.97-9.07,32.25-24.37,42.74-32.37,2.5-1.82,5.12-4.3,4.33-7.64-.54-3.44-4.11-8.04-7.46-11.03-11.93-11.02-30.85-12-44.51-3.64-30.38,17.52-24.65,68.41,8.52,77.8,14.45,4.58,32.61-1.28,39.18-15.96-.05-1.12-1.77.09-2.52.51-7.07,4.8-15.73,10.3-24.79,10.45h-.2c-6.83.03-17.58-4.35-20.04-10.67-.9-3.36,2.43-5.63,4.77-7.46ZM362.92,126.83c-7.88,4.61-7.64-9.25-7.51-14.45.4-8.84,4.85-17.84,12.3-23l.18-.13c4.22-2.96,8.8-4.42,13.53-4.58,5.88-.23,11.82,1.79,16.62,5.4,5.2,3.69,5.79,7.54.32,11.35-11.45,8.14-23.6,17.55-35.43,25.42ZM401.36,104.67c-11.44,9.52-23.45,18.27-36.04,26.21,11.43-9.53,23.46-18.26,36.04-26.21Z"/>
      <path class="cls-1" d="M472.93,94.89c.52,2.22-6-2.53-7.26-3.02-7.5-4.17-18.13-7.84-26.99-5.65-16.62,4.52-5.15,15.64,5.19,20.32,5.24,2.48,10.73,3.47,16,5.73,10.12,4.36,22.13,13.87,20.11,25.69-2.16,10.76-13.8,18.2-24.87,21.09-7.73,1.95-15.87.99-23.01-2.57-12.83-5.88-21.51-21.39-10-32.48,5.67-5.24,13.66-5.37,20.31-.69,3.91,2.59,7.49,7.55,6.51,12.01-1.19,6.64-10.77,9.9-16.46,6.18-3.29-1.99-5.09-6.6-2.62-9.74,1.95-2.56,6.85-2.57,8.46-3.15,1.19-.36.5-1.13-.39-1.49-2.79-1.24-6.62-1.01-9.43.4-12.27,6.72-2.87,18.93,7.88,22.49,6.21,2.24,12.72,2.35,18.97.65,11.78-3.04,20.81-13.33,9.99-23.66-7.4-7.73-19.11-8.5-28.67-12.55-14.17-6.08-22.81-22.69-11.08-34.42,14.28-12,39.99.13,47.32,14.79l.02.06Z"/>
      <path class="cls-1" d="M99.87,41.31c-.39,1.56,2.44,2.74,3.84,3.76,2.12,1.31,4.43,2.6,6.4,4.08,2.79,2.13,2.52,3.27,2.79,5.82,1.52,25.11,1.02,79.18.27,91.49-.06,2.03-1.8,3.67-3.34,5.17-2.19,2.15-5.85,5.12-7.22,6.93-2.52,3.33,4,2.92,6,3.19,5.84.24,10.87.23,16.73.02,1.65-.23,9.58.14,8.87-2.21-1.71-2.7-5.32-4.71-7.92-7.42-1.38-1.29-3.39-3.38-3.61-5.09-.83-15.87,4.95-84.9,1.11-105.75-2.77-4.22-21.22-2.73-23.89-.05l-.04.07Z"/>
      <path class="cls-1" d="M139.92,81.76c-.53,2.73,3.63,4.94,5.1,6.81,1.37,1.44,1.87,3.05,2.07,4.95,1.22,10.1,1.63,32.64,2.61,45.43.2,7.16,8.67,16.01,17.95,18.82,4.63,1.43,10.18,1.64,14.68.82,4.47-.64,6.96-2.37,10.72-2.94,6.98-.27,13.76,5.66,20.49,1.24,2.11-1.15,4.2-3.69,1.51-5.53-3.7-2.65-11.63-4.5-11.72-10.42-1.33-11.84,2.06-46.72.87-56.35-.67-4.36-4.99-4.71-9.63-5.49-4.55-.43-12.31-.4-12.37,3.98,1.32,4.15,8.64,4.79,10.06,9.03,3.19,10.01,1.83,34.65.86,44.41-.26,2.26-.79,4.06-2.62,5.65-3.62,3.37-12.57,6.82-18.54,4.59-4.87-1.68-9.91-5.56-11.77-10.32-1.08-8.69.81-21.57.55-36.08-.17-7.13.25-11.71-1.31-16.76-2.73-6.2-12.52-6-17.49-3.71-.83.39-1.67,1.01-1.99,1.78l-.04.1Z"/>
      <path class="cls-1" d="M218.18,79.78c.18,4.19,7.71,4.5,10.34,6.57,7.54,4.64,5.07,52.39,4.75,59.46-.45,5.03-7.25,4.27-10.91,6.1-15.82,7.22,42.15,10.81,27.64,2.42-3.49-2.34-10.31-2.94-9.91-8.16.24-6.55-.3-50.36,5.53-55.78,6.59-7.17,20.21-7.22,27.34-.99,4.34,4.42,4.5,15.96,5.25,22.15.2,3.57,0,6.56-.18,10.28-.9,9.17-.59,20.63-4.21,27.83-.94,2.34-8.57,4.55-7.26,6.59.56.68,1.75,1.13,2.76,1.42,5.97,1.53,22.81,2.68,27.4-1.39.44-1.92-3.6-3.31-4.94-4.53-4.49-2.84-4.75-6.74-5.22-12.89-.29-3.89-.43-7.92-.53-11.81.2-10.27-1.58-21.64,3.21-31.06,3.64-5.38,13.14-11.34,19.62-10.34,8.53,3.47,17.84,14.55,21.09,26.25,3.96,24.41-19.09,41.4-29.37,61.1-3.03,5.68-5.54,11.94-5.28,18.42.62,17.26,21.37,30.07,37.79,23.98,9.98-3.41,14.75-14.68,9.53-23.56-3.28-5.87-11.29-9.4-18.21-8.25-6.8.72-14.43,7.24-11.45,14.4,1.35,3.78,4.91,6.68,9,6.93,3.26.28,7.41-.95,8.48-4.12.74-2.11-.4-5.09-.86-7.14-1.32-6.21,6.42,2.31,3.21,7.81-5,9.03-21.05,6.65-25.39-2.04-7.49-12.46,5.53-30.91,10.41-40.19,7.44-11.31,16.21-23.27,18.35-37.25,2.41-18.1-4.9-43.28-26.08-45.2-25.18-2.21-21.48,18.99-28.59,12.51-2.34-2.12-4.18-5.33-6.53-7.44-4.78-4.15-11.98-4.84-18.09-4.04-3.88.54-7.36,2.09-10.8,2.61-1.43.21-3.07.19-4.4-.21-3.81-1.09-6.65-4.34-10.7-4.82-4.32-.59-11.17-.47-12.75,4.25v.12Z"/>
      <path class="cls-1" d="M2.94,1.34c-8.4,5.21,3.44,7.01,7.73,9.12,2.23.93,4.92,2.53,5.75,4.75,5.82,19.23,5.72,101.22,2.32,122.79-.34,1.95-.79,3.39-2.11,5.26-1.63,2.28-4,4.23-6.32,5.9-3.64,2.81-7.12,3.86-8.33,7.18-.2,6.33,13.47,4.16,17.67,4.15,7.07-.6,13.7.91,20.62,1.86,2.37.33,8.59.99,6.45-2.59-2.27-3.79-10.04-8.16-11.88-12.92-2.52-15.81-4.73-81.73-5.45-114.23-.06-4.15-.12-8.02-.05-12.05.11-3.07-.22-4.35,3.42-5.97,15.97-6.72,52.48-4.19,55.7,17.51,2.27,14.55-11.35,28.04-21.49,32.75-12.44,6.43-29.25,11.17-36.72,24.08-4,9.29.85,23.13,9.41,27.96,7.76,4.2,22.01,2.39,26.99-5.26,6.56-10.13-3.82-26.03-15.84-20.38-3.47,1.43-6.88,4.89-6.53,8.8.2,3.2,3.15,5.25,5.82,3.41,1.11-.42,4.33-4.19,5.08-2.48-.58,7.11-10.68,8.24-13.26.93-1.38-3.27.1-6.57,2.48-8.92,3.36-3.48,8.98-7.84,13.48-10.85,5.32-3.61,10.53-5.26,16.23-7.84C122.24,50.45,106.57-2.48,54.38,1.05c-9.41.48-22.12,2.06-31.83,1.86-6.45-.43-13.06-5.1-19.47-1.65l-.15.08Z"/>
    </g>
  </g>
</svg>