<?xml version="1.0" encoding="UTF-8"?>
<svg id="_レイヤー_2" data-name="レイヤー 2" xmlns="http://www.w3.org/2000/svg" viewBox="0 0 489.28 191.09">
  <defs>
    <style>
      .cls-1 {
        fill: #191919;
      }
    </style>
  </defs>
  <g id="_レイヤー_1-2" data-name="レイヤー 1">
    <g>
      <path class="cls-1" d="M380.38,80.76c.16.77,1.02,1.18,1.68,1.61,3.77,2.19,10.63,5.11,10.19,10.55,0,8.25,0,37.47,0,44.61.11,3.05-.86,5.75-2.62,8.6-.94,1.54-2.12,3.07-3.38,4.41-3.49,3.88-7.81,5.98-8.57,7.59.02.55,2.36.42,5.94.44,7.18-.02,18.87.04,22.64-.04,3.19.09-.46-2.47-1.53-4.11-1.76-2.12-2.84-4.49-3.22-7.2-1.49-9.65-1.3-34.3-1.24-41.35-.3-4.99,1.92-10.55,6.63-13.18,2.57-1.35,4.67-.47,5.17,1.91.92,4.51-1.42,9.16-2.6,13.45-2.16,7.8,1.38,21.57,10.97,22.72,6.74.91,14.74-3.82,11.82-11.52-1.16-3.4-4.33-6.52-8.14-6.04-4.67.56-10.24,4.99-10.07-2.15.62-9.57,8.13-15.97,13.16-23.4,2.89-4.3,4.23-10.46-3.5-8.23-5.16,1.35-10.6,4.61-15.8,6.06-7.43,1.83-6.26-7.38-14.78-7.42-2.87-.27-11.65-.1-12.74,2.6v.07Z"/>
      <path class="cls-1" d="M341.78,74.28c-18.97,0-34.34,18.95-34.34,42.32s15.38,42.32,34.34,42.32,34.34-18.95,34.34-42.32-15.38-42.32-34.34-42.32ZM318.48,116.6c0-15.86,10.43-28.71,23.3-28.71,5.72,0,10.96,2.55,15.02,6.77-3.96,2.18-9.9,5.5-14.15,7.96-7.51,4.14-17.18,12.43-23.92,18.18-.16-1.37-.25-2.77-.25-4.2ZM318.84,130.02c13.93-11.09,28.43-21.37,43.49-30.87-13.93,11.08-28.43,21.38-43.49,30.87ZM341.78,145.31c-5.83,0-11.16-2.65-15.24-7.01,6.92-7.01,15.3-15.4,24.02-20.34,3.98-2.5,8.29-5.17,12.3-7.65.46-.3.97-.61,1.48-.91.48,2.3.74,4.71.74,7.19,0,15.86-10.43,28.71-23.3,28.71Z"/>
      <path class="cls-1" d="M453.98,54.97c-1.83,3.48-5.77,6.7-8.06,9.51-1.76,1.91-1.6,3.98.12,5.89,1.39,1.97,4.62,4.36,3.97,6.94-2.18,3.96-10.62,3.28-12.17,8.05-.24.99.15,1.96.94,2.62,2.82,2.32,7.3.99,10.29,2.17,2,1.23,1.17,3.74,1.4,5.93.3,14.04-2.02,39.71-1.41,50.02,2.38,7.45,12.28,15.48,21.18,11.2,5.02-2.27,13.77-9.15,11.99-14.66-.6-2.27-2.69-4.64-5.02-4.01-2.13.52-3.56,3.53-5.25,5.07-2.11,2.05-5.99,1.85-8.41.34-1.91-1.08-2.73-3.07-2.81-5.19-.8-9.54-2-37.49-1.41-46.38.08-1.53.65-2.98,2.19-3.5,2.21-.9,7.1-.31,8.32,1.29,1.06,1.41.08,2.76-1.19,4.91-1.79,2.81-3.77,6.13-4.73,9.43-2.74,8.46,2.23,20.34,9.57,24.16,4.79,2.16,11.34.5,14.2-3.96,2.66-4,2.14-11.92-2.16-14.49-2.71-1.74-6.34-.57-9.05.62-4.47,2.24-5.49-1.85-3.89-5.18,2.55-5.44,13.1-13.54,11.51-20.02-.68-2.27-3.21-4.05-5.89-4.65-5.3-1.38-12.7,3.33-16.56-2.22-1.65-3.19-.24-5.69.86-10.01,1.53-5.23,3.65-12.16,4.69-17.22,1.05-4.05.73-9.88-3.69-11.55-2.89-1.22-6.09,1.56-7.04,5.01-1.17,3.13-1,6.72-2.38,9.7l-.08.15Z"/>
      <path class="cls-1" d="M50.9,69.75c1.39-4.09,4.77-10.31,8.78-18.81,2.75-5.48,4.95-10.2,7.79-14.7,4.93-7.35,15.21-16.51,16.2-26.05.17-1.69-.21-5.01-2.43-4.22-2.05,1.01-5.38,6.05-8.24,7.32-5.56,2.92-9.26-1.13-14.17-4.15-4.21-2.9-9.42-6.27-14.77-7.83C29.29-3.76,12.52,6.68,5.26,18.45c-3.11,4.72-3.7,10.03-3.68,15.5-.08,6.55.07,12.42,4.65,19.55,5.87,9.01,14.29,15.92,23.86,20.64,4.01,1.99,7.03,2.83,8.36,3.24.41.14.9.27.95.75-2.12,7.3-5.64,17.07-7.04,25.11-3.89,18.94-.67,40.93,23.37,35.3,10.41-2.97,16.09-11.08,15.28-20.25-2.28-14.82-14.29-20.56-23.56-7.61-1.94,2.78-2.95,5.58-2.68,8.64.15,1.89,1.29,4.73,3.39,2.24,2.7-3.36,7.58-11.49,13.54-7.59,3.88,3.13,3.24,8.78.55,12.78-3.11,4.59-9.29,5.77-14.44,4.66-20.85-3.95-6.54-37.65-1.97-49.87.86-2.1,1.06-2.6,2.07-2.29,1.57.54,6.29,2.52,11.79,5.87,8.76,5.22,18.69,14.43,20.58,25.73,3.76,21.28-9.52,39.77-27.35,40.36-11.64,1.07-25.87-4.3-30.65-12.75-5.14-9.18-7.79-21.19-12.27-30.6-2.09-4.72-5.84-11.61-7.69-7.26-1.61,4.63,3.76,20.78,5.68,29.39.72,3.01.78,5.97-.27,8.9C5.86,144.75-.25,153.7,0,156.97c.63,3.69,7.2-2.38,8.76-3.46,6.94-5.65,8.17-5.73,15.99-1.5,7.9,4.06,18.87,9.21,28.49,7.88,12.06-.88,31.34-11.09,34.54-32.27,2.21-10.9.81-21.17-4.69-31.26-6.15-12.04-22.02-22.45-31.66-25.96-.29-.15-.52-.28-.54-.61v-.04ZM43.86,66.9c-3.31,1.36-8.1-1.09-13.49-3.88-8.56-4.77-17.91-13.44-20.17-23.84-3.74-14.01,7.21-27.35,20.04-29.89,4.27-1.01,7.5-.92,11.63.41,7.27,2.24,14.51,6.94,16.48,14.7,2.27,9.38-2.04,18.23-5.52,27.27-2.32,5.24-4.37,12.07-8.89,15.17l-.09.05Z"/>
      <path class="cls-1" d="M208,82.93c-11.17,0-9.45,6.19-14.61,6.19s-14.02-12.6-22.34-3.63c-3.07,3.31,7.68,4.89,8.84,9.08,1.16,4.19,2.56,79.82,0,84.47-2.56,4.65-12.95,9.08-11.48,10.47,1.47,1.4,10.21,1.58,15.07,1.58s15.2-1.03,15.2-2.89-8.99-3.83-10.86-8.79c-1.86-4.96-1.76-28.12.1-29.98,1.86-1.86,12.82,8.87,19.64,8.78s27.93-10.3,27.93-36.43-16.33-38.84-27.5-38.84ZM207.74,91.21c5.78,0,10.07,3,13.14,7.4l-31.96,21.83c-.02-.66-.04-1.33-.04-2,0-15.36,11.09-27.23,18.87-27.23ZM223.1,102.73c-10.81,9.58-22.22,18.39-34.23,26.43,10.81-9.58,22.23-18.39,34.23-26.43ZM206.37,146.25c-6.29,0-11.08-4.01-14.04-10.29l33.19-26.8c1.15,4.31,1.66,8.81,1.66,12.77,0,12.64-9.72,24.31-20.81,24.31Z"/>
      <path class="cls-1" d="M273.3,82.93c-11.17,0-9.45,6.19-14.61,6.19s-14.02-12.6-22.34-3.63c-3.07,3.31,7.68,4.89,8.84,9.08,1.16,4.19,2.56,79.82,0,84.47-2.56,4.65-12.95,9.08-11.48,10.47,1.47,1.4,10.21,1.58,15.07,1.58s15.2-1.03,15.2-2.89-8.99-3.83-10.86-8.79c-1.86-4.96-1.76-28.12.1-29.98,1.86-1.86,12.82,8.87,19.64,8.78s27.93-10.3,27.93-36.43-16.33-38.84-27.5-38.84ZM273.04,91.21c5.78,0,10.07,3,13.14,7.4l-31.96,21.83c-.02-.66-.04-1.33-.04-2,0-15.36,11.09-27.23,18.87-27.23ZM288.4,102.73c-10.81,9.58-22.22,18.39-34.23,26.43,10.81-9.58,22.23-18.39,34.23-26.43ZM271.68,146.25c-6.29,0-11.08-4.01-14.04-10.29l33.19-26.8c1.15,4.31,1.66,8.81,1.66,12.77,0,12.64-9.72,24.31-20.81,24.31Z"/>
      <path class="cls-1" d="M96.53,83.89c-.53,2.73,3.63,4.94,5.1,6.81,1.37,1.44,1.87,3.05,2.07,4.95,1.22,10.1,1.63,32.64,2.61,45.43.2,7.16,8.67,16.01,17.95,18.82,4.63,1.43,10.18,1.64,14.68.82,4.47-.64,6.96-2.37,10.72-2.94,6.98-.27,13.76,5.66,20.49,1.24,2.11-1.15,4.2-3.69,1.51-5.53-3.7-2.65-11.63-4.5-11.72-10.42-1.33-11.84,2.06-46.72.87-56.35-.67-4.36-4.99-4.71-9.63-5.49-4.55-.43-12.31-.4-12.37,3.98,1.32,4.15,8.64,4.79,10.06,9.03,3.19,10.01,1.83,34.65.86,44.41-.26,2.26-.79,4.06-2.62,5.65-3.62,3.37-12.57,6.82-18.54,4.59-4.87-1.68-9.91-5.56-11.77-10.32-1.08-8.69.81-21.57.55-36.08-.17-7.13.25-11.71-1.31-16.76-2.73-6.2-12.52-6-17.49-3.71-.83.39-1.67,1.01-1.99,1.78l-.04.1Z"/>
    </g>
  </g>
</svg>