<svg width="108" height="42" viewBox="0 0 108 42" fill="none" xmlns="http://www.w3.org/2000/svg">
<g clip-path="url(#clip0_270_375)">
<path d="M83.9641 17.7512C83.9995 17.9205 84.1893 18.0106 84.335 18.1051C85.1671 18.5864 86.6814 19.2282 86.5842 20.4238C86.5842 22.2371 86.5842 28.6593 86.5842 30.2286C86.6085 30.899 86.3944 31.4924 86.0059 32.1188C85.7984 32.4573 85.538 32.7935 85.2598 33.088C84.4895 33.9408 83.5359 34.4024 83.3682 34.7562C83.3726 34.8771 83.8891 34.8485 84.6793 34.8529C86.2642 34.8485 88.8445 34.8617 89.6767 34.8442C90.3808 34.8639 89.5752 34.3013 89.339 33.9408C88.9505 33.4749 88.7121 32.954 88.6282 32.3583C88.2993 30.2374 88.3413 24.8196 88.3545 23.2701C88.2883 22.1734 88.7783 20.9513 89.818 20.3733C90.3853 20.0766 90.8488 20.27 90.9592 20.7931C91.1622 21.7843 90.6457 22.8064 90.3853 23.7492C89.9085 25.4636 90.6899 28.4901 92.8067 28.7428C94.2944 28.9428 96.0603 27.9032 95.4157 26.2109C95.1597 25.4636 94.46 24.7779 93.619 24.8834C92.5882 25.0064 91.3587 25.9801 91.3962 24.4108C91.5331 22.3074 93.1908 20.9008 94.301 19.2678C94.939 18.3227 95.2347 16.9688 93.5285 17.4589C92.3895 17.7556 91.1887 18.4721 90.0409 18.7908C88.4009 19.193 88.6591 17.1688 86.7785 17.16C86.145 17.1007 84.207 17.138 83.9664 17.7314V17.7468L83.9641 17.7512Z" fill="#191919"/>
<path d="M75.4437 16.3262C71.2564 16.3262 67.8638 20.4912 67.8638 25.6276C67.8638 30.7641 71.2586 34.929 75.4437 34.929C79.6288 34.929 83.0237 30.7641 83.0237 25.6276C83.0237 20.4912 79.6288 16.3262 75.4437 16.3262ZM70.3007 25.6276C70.3007 22.1418 72.6029 19.3175 75.4437 19.3175C76.7063 19.3175 77.8629 19.8779 78.7591 20.8055C77.885 21.2846 76.5739 22.0143 75.6358 22.555C73.9781 23.4649 71.8436 25.2869 70.3558 26.5507C70.3205 26.2496 70.3007 25.9419 70.3007 25.6276ZM70.3801 28.5772C73.4549 26.1397 76.6555 23.8803 79.9798 21.7923C76.905 24.2276 73.7043 26.4914 70.3801 28.5772ZM75.4437 31.9377C74.1569 31.9377 72.9804 31.3553 72.0798 30.397C73.6072 28.8563 75.457 27.0123 77.3818 25.9265C78.2603 25.377 79.2116 24.7902 80.0968 24.2451C80.1983 24.1792 80.3109 24.1111 80.4234 24.0451C80.5294 24.5506 80.5868 25.0803 80.5868 25.6254C80.5868 29.1112 78.2845 31.9355 75.4437 31.9355V31.9377Z" fill="#191919"/>
<path d="M100.21 12.083C99.806 12.8478 98.9363 13.5555 98.4309 14.1731C98.0424 14.5929 98.0777 15.0479 98.4574 15.4677C98.7642 15.9007 99.4771 16.426 99.3337 16.993C98.8525 17.8634 96.9895 17.7139 96.6473 18.7623C96.5944 18.9799 96.6805 19.1931 96.8548 19.3382C97.4773 19.8481 98.4662 19.5558 99.1262 19.8151C99.5676 20.0854 99.3844 20.6371 99.4352 21.1184C99.5014 24.2043 98.9893 29.8462 99.124 32.1123C99.6493 33.7497 101.835 35.5146 103.799 34.5739C104.907 34.075 106.839 32.5628 106.446 31.3518C106.313 30.8529 105.852 30.332 105.338 30.4704C104.867 30.5847 104.552 31.2463 104.179 31.5848C103.713 32.0353 102.857 31.9914 102.322 31.6595C101.901 31.4221 101.72 30.9847 101.702 30.5188C101.526 28.422 101.261 22.2789 101.391 20.325C101.409 19.9887 101.534 19.67 101.874 19.5558C102.362 19.3579 103.441 19.4876 103.711 19.8393C103.945 20.1492 103.728 20.4459 103.448 20.9184C103.053 21.536 102.616 22.2657 102.404 22.991C101.799 24.8504 102.896 27.4615 104.516 28.3011C105.574 28.7759 107.02 28.411 107.651 27.4308C108.238 26.5516 108.123 24.8109 107.174 24.246C106.576 23.8636 105.775 24.1208 105.176 24.3823C104.19 24.8746 103.965 23.9757 104.318 23.2438C104.881 22.0482 107.209 20.2679 106.858 18.8436C106.708 18.3447 106.15 17.9535 105.558 17.8216C104.388 17.5183 102.755 18.5535 101.903 17.3337C101.539 16.6326 101.85 16.0831 102.093 15.1336C102.431 13.9841 102.898 12.461 103.128 11.3489C103.36 10.4587 103.289 9.17736 102.314 8.81031C101.676 8.54217 100.969 9.15318 100.76 9.91145C100.501 10.5994 100.539 11.3884 100.234 12.0434L100.217 12.0764L100.21 12.083Z" fill="#191919"/>
<path d="M11.2369 15.3309C11.5437 14.432 12.2898 13.0649 13.175 11.1967C13.782 9.99225 14.2676 8.95485 14.8945 7.9658C15.9827 6.35036 18.2518 4.3371 18.4703 2.24032C18.5079 1.86888 18.424 1.13918 17.934 1.31282C17.4815 1.5348 16.7464 2.64253 16.1151 2.92167C14.8878 3.56345 14.0711 2.6733 12.9873 2.00954C12.0581 1.37216 10.908 0.631472 9.72712 0.288603C6.4669 -0.825723 2.76522 1.46887 1.1627 4.05577C0.47622 5.09317 0.345988 6.26025 0.350402 7.46249C0.332744 8.9021 0.365854 10.1923 1.37681 11.7593C2.67251 13.7396 4.53108 15.2584 6.64349 16.2958C7.52862 16.7332 8.19524 16.9178 8.48881 17.0079C8.57931 17.0387 8.68747 17.0672 8.69851 17.1727C8.23055 18.7772 7.45358 20.9245 7.14455 22.6916C6.2859 26.8544 6.99666 31.6875 12.3031 30.4501C14.6009 29.7974 15.8547 28.0149 15.6759 25.9994C15.1726 22.7422 12.5216 21.4806 10.4754 24.3268C10.0472 24.9378 9.82424 25.5533 9.88384 26.2258C9.91695 26.6412 10.1686 27.2654 10.6321 26.7181C11.2281 25.9796 12.3053 24.1928 13.6208 25.0499C14.4773 25.7379 14.336 26.9797 13.7422 27.8588C13.0558 28.8677 11.6916 29.127 10.5549 28.883C5.95259 28.0149 9.11128 20.608 10.12 17.9222C10.3099 17.4607 10.354 17.3508 10.5769 17.4189C10.9235 17.5376 11.9653 17.9728 13.1794 18.7091C15.113 19.8563 17.3049 21.8806 17.7221 24.3642C18.552 29.0413 15.6207 33.1052 11.685 33.2349C9.11569 33.47 5.97467 32.2898 4.91957 30.4326C3.785 28.4149 3.20006 25.7752 2.21118 23.707C1.74985 22.6696 0.9221 21.1553 0.513744 22.1114C0.158365 23.129 1.3437 26.6786 1.76751 28.5709C1.92643 29.2325 1.93968 29.8831 1.70791 30.5271C1.29514 31.815 -0.0535381 33.7821 0.00164508 34.5008C0.140707 35.3119 1.59092 33.9777 1.93526 33.7404C3.46715 32.4986 3.73865 32.481 5.46477 33.4107C7.20856 34.303 9.63 35.4349 11.7534 35.1426C14.4155 34.9492 18.6712 32.7052 19.3775 28.05C19.8654 25.6544 19.5563 23.3971 18.3423 21.1795C16.9848 18.5332 13.4818 16.2452 11.3539 15.4738C11.2899 15.4408 11.2391 15.4122 11.2347 15.3397V15.3309H11.2369ZM9.68297 14.7045C8.95235 15.0034 7.89504 14.4649 6.70529 13.8517C4.81582 12.8033 2.75197 10.8978 2.25312 8.61198C1.42758 5.53275 3.8446 2.60077 6.6766 2.04251C7.61912 1.82053 8.33209 1.84031 9.24372 2.13263C10.8484 2.62495 12.4465 3.65796 12.8814 5.36351C13.3825 7.42513 12.4311 9.37025 11.6629 11.3571C11.1508 12.5088 10.6983 14.01 9.70063 14.6913L9.68077 14.7023L9.68297 14.7045Z" fill="#191919"/>
<path d="M45.9141 18.2278C43.4485 18.2278 43.8282 19.5882 42.6892 19.5882C41.5502 19.5882 39.5946 16.8189 37.7581 18.7904C37.0804 19.5179 39.4533 19.8652 39.7093 20.7861C39.9654 21.707 40.2744 38.3296 39.7093 39.3516C39.1443 40.3736 36.8509 41.3473 37.1753 41.6528C37.4998 41.9605 39.429 42 40.5018 42C41.5745 42 43.8569 41.7737 43.8569 41.3649C43.8569 40.956 41.8725 40.5231 41.4597 39.4329C41.0492 38.3428 41.0713 33.2525 41.4818 32.8437C41.8924 32.4349 44.3116 34.7932 45.817 34.7734C47.3224 34.7536 51.9821 32.5096 51.9821 26.7665C51.9821 21.0235 48.3775 18.23 45.9119 18.23L45.9141 18.2278ZM45.8567 20.0476C47.1326 20.0476 48.0795 20.707 48.7572 21.674L41.7026 26.472C41.6981 26.3269 41.6937 26.1797 41.6937 26.0324C41.6937 22.6565 44.1416 20.0476 45.8589 20.0476H45.8567ZM49.2472 22.5796C46.8611 24.6851 44.3425 26.6215 41.6915 28.3886C44.0776 26.283 46.5984 24.3467 49.2472 22.5796ZM45.5543 32.1447C44.1659 32.1447 43.1086 31.2634 42.4553 29.8831L49.7814 23.9928C50.0352 24.9401 50.1478 25.9291 50.1478 26.7995C50.1478 29.5776 48.0023 32.1425 45.5543 32.1425V32.1447Z" fill="#191919"/>
<path d="M60.3277 18.2278C57.8621 18.2278 58.2418 19.5882 57.1028 19.5882C55.9638 19.5882 54.0081 16.8189 52.1716 18.7904C51.494 19.5179 53.8669 19.8652 54.1229 20.7861C54.379 21.707 54.688 38.3296 54.1229 39.3516C53.5578 40.3736 51.2644 41.3473 51.5889 41.6528C51.9134 41.9605 53.8426 42 54.9153 42C55.9881 42 58.2705 41.7737 58.2705 41.3649C58.2705 40.956 56.2861 40.5231 55.8733 39.4329C55.4628 38.3428 55.4848 33.2525 55.8954 32.8437C56.306 32.4349 58.7252 34.7932 60.2306 34.7734C61.736 34.7536 66.3956 32.5096 66.3956 26.7665C66.3956 21.0235 62.7911 18.23 60.3255 18.23L60.3277 18.2278ZM60.2703 20.0476C61.5461 20.0476 62.4931 20.707 63.1707 21.674L56.1161 26.472C56.1117 26.3269 56.1073 26.1797 56.1073 26.0324C56.1073 22.6565 58.5552 20.0476 60.2725 20.0476H60.2703ZM63.6608 22.5796C61.2746 24.6851 58.7561 26.6215 56.1051 28.3886C58.4912 26.283 61.012 24.3467 63.6608 22.5796ZM59.9701 32.1447C58.5817 32.1447 57.5244 31.2634 56.871 29.8831L64.1971 23.9928C64.451 24.9401 64.5636 25.9291 64.5636 26.7995C64.5636 29.5776 62.418 32.1425 59.9701 32.1425V32.1447Z" fill="#191919"/>
<path d="M21.3091 18.4392C21.1921 19.0392 22.1103 19.5249 22.4348 19.9359C22.7372 20.2524 22.8476 20.6063 22.8917 21.0239C23.161 23.2437 23.2515 28.1978 23.4678 31.0088C23.512 32.5825 25.3816 34.5277 27.43 35.1453C28.452 35.4596 29.677 35.5057 30.6703 35.3255C31.657 35.1848 32.2066 34.8046 33.0366 34.6793C34.5773 34.62 36.0739 35.9233 37.5594 34.9518C38.0251 34.6991 38.4865 34.1408 37.8927 33.7364C37.076 33.154 35.3256 32.7474 35.3057 31.4462C35.0121 28.8439 35.7604 21.1777 35.4977 19.0612C35.3499 18.1029 34.3963 18.026 33.3721 17.8545C32.3678 17.76 30.6549 17.7666 30.6416 18.7293C30.933 19.6414 32.5488 19.7821 32.8622 20.714C33.5663 22.9141 33.2661 28.3296 33.052 30.4748C32.9946 30.9715 32.8777 31.3671 32.4737 31.7166C31.6747 32.4573 29.6991 33.2155 28.3813 32.7254C27.3064 32.3561 26.1939 31.5034 25.7833 30.4572C25.5449 28.5472 25.9621 25.7163 25.9047 22.5272C25.8672 20.9601 25.9599 19.9535 25.6156 18.8436C25.013 17.4809 22.852 17.5248 21.7549 18.0282C21.5717 18.1139 21.3863 18.2501 21.3157 18.4194L21.3069 18.4414L21.3091 18.4392Z" fill="#191919"/>
</g>
<defs>
<clipPath id="clip0_270_375">
<rect width="108" height="42" fill="white"/>
</clipPath>
</defs>
</svg>
