<?xml version="1.0" encoding="UTF-8"?>
<svg id="_レイヤー_2" data-name="レイヤー 2" xmlns="http://www.w3.org/2000/svg" viewBox="0 0 557.55 395.3">
  <defs>
    <style>
      .cls-1 {
        fill: #231815;
      }
    </style>
  </defs>
  <g id="_レイヤー_1-2" data-name="レイヤー 1">
    <path class="cls-1" d="M553.44,65.4c-5.45-9.95-15.32-16.05-24.89-17.78-14.35-2.6-26.23,4.94-30.22,7.47-9.94,6.3-13.4,13.55-28.44,22.04-2.81,1.59-6.34,3.39-10.67,2.84-6.45-.82-11.43-6.48-13.51-11.73-.67-1.68-2.01-5.22-1.07-9.6.11-.5,1.88-8.12,9.24-11.02.33-.13,7.28-2.76,12.44.71,3.46,2.33,3.94,5.94,4.98,5.69,1.35-.33,2.44-6.97-.71-11.02-4.47-5.76-15.04-3.18-16.35-2.84-11.08,2.85-15.47,13.42-15.64,13.87-2.93,7.4-1.02,14.02-.36,16,3.04,9.11,11.27,14.96,19.2,16.35,1.05.18,5.69.92,13.15-1.42,14.43-4.54,15.47-13.1,30.59-21.33,6.98-3.8,15.67-8.53,25.23-5.69,6.65,1.98,12.61,7.3,15.29,14.22,3.35,8.64.29,16.45-1.07,19.91-4.89,12.49-15.86,18.44-23.82,22.75-5.62,3.05-16.07,8.71-29.51,8.18-7.68-.3-8.7-2.33-23.47-3.91-11.13-1.19-12.36-.23-15.64-2.13-8.17-4.72-3.72-12.45-12.8-23.82-4.3-5.38-8.4-7.53-18.84-19.55-1.6-1.84-2.98-3.49-3.56-6.04-.35-1.54-1.11-6.52,8.53-18.84,3.1-3.97,6.64-8.42,13.15-13.87,11.96-9.99,21.09-12.56,20.62-13.87-.56-1.55-14.26-.64-25.6,7.47-7.73,5.52-12.44,13.03-14.93,17.07-5.79,9.39-7.07,16.29-8.53,16-1.76-.35-.16-10.42-1.42-26.67-.95-12.24-1.52-18.47-5.69-24.18-1.17-1.6-7.53-10.29-18.49-10.64-.92-.03-13.25-.21-19.2,9.93-3.38,5.76-3.84,13.4-.36,19.55,2.23,3.93,8.12,10.88,15.29,9.24,4.92-1.12,9.97-6.19,9.24-12.09-.98-7.88-11.43-10.43-12.09-9.6-.49.63,4.24,3.52,4.69,8.91.19,2.25-.31,5.69-2.21,6.49-2.63,1.1-7.53-3.08-9.34-7.78-.17-.44-2.58-7.03,1.69-12.58,3.87-5.05,10.01-5.01,11.55-4.93,7.23.35,11.53,6.25,12.32,7.39,1.94,2.79,2.83,5.84,2.72,22.18-.11,16.78-1.1,18.8,1.31,22.71,2.75,4.46,6.39,5.68,7.44,11.03.64,3.28-.12,5.94-1.03,8.98-1.25,4.18-4.19,14.06-9.75,15.13-6.9,1.34-10.01-12.44-20.78-13.34-7.93-.66-14.42,6.14-15.9,7.7-5.95,6.24-6.77,13.57-6.93,15.9-.18,2.61-.78,11.61,5.64,17.7,5.26,4.98,12.16,5.1,13.85,5.13,9.31.16,14.37-5.56,16.42-3.85,1.47,1.23.94,5.91-7.44,20.78-10.56,12.07-16.16,18.47-16.16,18.47,0,0-16.16,15.73-27.96,12.83-5.82-1.43-4.45-5.57-13.34-13.08-11.14-9.42-23.58-11.57-28.22-12.31-3.44-.55-10.28-1.59-18.98,0-11.93,2.18-19.84,7.91-23.34,10.52-4.45,3.31-15.17,11.27-19.5,24.88-2.9,9.13-1.47,16.19-3.08,16.42-1.82.25-3.79-8.71-9.23-23.09-5.66-14.94-8.61-22.51-14.37-27.96-1.89-1.78-11.56-10.93-25.4-10-3.55.24-14.86,1.64-21.03,10.77-4.07,6.02-3.96,12.5-3.85,18.73.09,5.48.18,10.11,3.33,14.88,4.62,6.97,12.16,8.66,13.6,8.98,2.46.55,5.67,1.27,9.23-.26.65-.28,4.68-2.07,6.41-6.41,2.48-6.22-1.53-13.27-2.82-13.08-1.48.22.86,10-3.85,12.83-2.18,1.31-4.89.54-7.7-.26-1.61-.46-6.73-1.91-10-6.93-2.58-3.96-2.57-7.93-2.57-10,0-1.89.12-8.21,4.87-13.6,5.35-6.07,12.73-6.61,14.88-6.67,10.22-.28,17.06,7.17,18.73,8.98,4.67,5.08,3.84,7.87,9.49,24.88,5.45,16.41,8.3,20.05,5.9,24.37-2.55,4.6-7.25,3.13-16.42,7.7-7.93,3.95-9.48,7.57-23.09,21.29-7.6,7.66-13.29,12.76-20.52,19.24-20.11,18.01-25.8,20.22-29.24,21.29-4.55,1.41-13.9,4.17-23.86.26-7.78-3.06-12.31-8.76-15.13-12.31-1.37-1.72-5.91-7.69-8.47-16.93-1.86-6.75-3.28-17.46-.26-18.73,2.17-.91,4.03,4.16,11.03,6.67,6.86,2.46,13.16.5,14.62,0,5.98-2.03,9.33-5.99,10.52-7.44,1.95-2.38,5.03-6.12,5.13-11.54.12-6.52-4.15-11-5.64-12.57-6.44-6.76-15.02-6.69-15.9-6.67-1.09.03-9.39.35-14.62,6.41-4.16,4.82-3.86,10.36-5.13,10.26-1.43-.11-1.99-7.23-2.57-14.62-.5-6.39-.25-8.23,0-9.49,1.2-6.12,4.41-9.3,3.85-9.75-.68-.54-6.43,3.22-8.72,9.49-.47,1.28-.39,1.56-.77,12.06-.3,8.24-.39,9.36.26,11.54,1.13,3.8,2.61,4.4,2.82,7.44.26,3.77-1.79,6.19-3.08,8.72-2.69,5.27-1.71,10.61.26,21.29,1.54,8.4,2.77,15.06,7.7,22.32,1.93,2.84,8.14,11.72,19.75,15.9,11.15,4.01,21.05,1.45,28.22-.51,11.13-3.05,12.79-6.54,35.4-19.75,19.03-11.12,18.04-8.75,27.96-15.65,8.26-5.74,16.98-10.8,25.14-16.67,5.14-3.7,10.48-7.72,13.47-5.93,2.67,1.6.55,6.05,4.03,10.97,3.42,4.84,8.13,4.29,8.73,7.61.55,3.01-2.87,5.95-6.38,8.96-6.18,5.31-12.51,7.28-14.44,7.84-4.66,1.34-8.32,1.44-15.45,1.57-13.87.25-15.98-1.62-23.07,0-4.31.98-7.65,2.89-14.33,6.72-7.15,4.09-13.93,7.97-20.6,15-4.86,5.12-7.87,10.2-13.89,20.38-5.12,8.65-4.67,9.27-8.29,14.33-6.77,9.48-13.52,14.58-15,15.68-3.28,2.43-7.83,5.74-14.33,7.84-6.02,1.94-10.29,1.75-19.48,1.57-30.64-.59-23.39.84-36.73,0-9.08-.57-13.75-1.32-20.16,1.12-2.57.98-8.09,3.17-12.09,8.96C-.17,366.49-.05,372.85.02,374.89c.08,2.32.36,8.13,4.51,13.44,1.67,2.13,5.11,6.54,10.75,6.94,5.47.39,9.41-3.25,10.97-4.7,1.58-1.47,6.16-5.7,5.6-11.65-.42-4.48-3.52-7.39-4.48-8.29-1.1-1.03-2.7-2.49-5.15-2.91-3.33-.57-6.58,1.07-6.49,1.79.08.72,3.4-.09,5.6,2.02,1.99,1.9,1.83,4.99,1.79,5.82-.2,3.96-2.99,9.16-7.17,9.41-4.01.24-6.81-4.23-7.39-5.15-2.12-3.37-1.92-6.81-1.79-8.96.11-1.92.44-6.42,3.81-10.3.59-.68,2.89-3.2,7.39-4.7,7.57-2.52,14.87-.01,17.02.67,7.01,2.23,18.41,3.83,37.4.45,10.29,2.09,18.19.52,22.4-.67,8.7-2.47,14.42-6.96,20.38-11.65,5.72-4.5,9.35-8.48,15.9-15.68,8.82-9.69,8.29-10.57,14.11-16.12,3.67-3.5,9.33-8.83,18.14-13.44,3.72-1.95,9.76-5.05,17.92-6.49,14.58-2.59,17.04,3.46,31.58.67,6.37-1.22,12.45-2.39,19.26-6.49,5.22-3.15,8.51-6.6,10.97-5.37,2.82,1.4.66,7.01,4.26,11.65,2.26,2.91,5.74,4.09,10.53,4.93,14.88,2.6,35.17.64,41.21,0,2.17-1.24,5.3-3.34,8.29-6.72,3.16-3.58,4.72-6.96,5.82-9.41,2.28-5.04,1.71-6.18,4.48-14.56,1.49-4.51,2.39-7.19,4.26-10.53,2.93-5.25,4.82-8.63,7.84-9.18,1.72-.32,4.14.23,15.45,12.99,3.92,4.43,7.26,8.21,11.87,14.33,4.18,5.55,7.58,10.06,11.2,16.57,5.1,9.16,7.64,13.74,7.39,19.04-.46,9.56-7.96,16.18-11.2,19.04-7.72,6.81-16.08,8.64-21.95,9.85-14.41,2.97-26.28.4-34.94-1.57-10.31-2.34-11.59-4.14-34.94-10.75-7.44-2.11-12.78-3.47-19.48-2.02-3.14.68-11.74,2.55-16.12,10.53-4.58,8.33-1.07,16.97-.67,17.92,4.09,9.63,14.29,12.58,18.81,13.89,2.1.61,13.86,3.79,25.31-1.57,6.08-2.85,7.13-5.8,12.77-6.49,5.33-.66,13.02.9,14.78,5.82,1.52,4.23-2.09,8.89-2.69,9.63-4.91,6.12-13.09,5.6-12.99,6.94.1,1.4,9.22,4.13,15.68-.22,4.73-3.19,5.96-8.79,6.49-11.2.6-2.71,1.44-6.5-.22-10.08-3.23-6.97-14.28-9.53-22.4-7.39-5.85,1.54-5.31,4.25-12.54,7.17-2.42.98-11.7,4.57-21.72,1.12-3.2-1.1-9.22-3.17-12.09-9.18-.33-.68-3.55-7.7.22-13.66,2.62-4.14,7.08-5.34,8.96-5.82,7.13-1.82,13.52,1.08,16.12,2.24,0,0,10.02,4.45,34.94,12.54,7.88,2.56,20.84,6.77,36.95,5.15,7.19-.72,20.57-2.24,33.37-12.32,13.88-10.92,18.38-25.07,19.48-28.89,1.32-4.57,4.76-18.72-1.12-34.71-1.49-4.07-4.66-12.41-12.32-19.48,0,0-1.83-1.7-14.78-10.97,31.15-1.53,37.62-3.58,37.62-3.58,11.59-3.67,19.05-9.91,27.77-17.2,7.72-6.45,7.06-7.55,27.1-27.37,6.08-6.01,10.57-10.29,17.47-14.78,6.87-4.47,11.92-7.76,19.26-8.51,7.08-.72,19.71.57,24.41,9.41,2.89,5.44,1.44,11.25,1.12,12.54-1.43,5.72-5.08,9.17-19.48,19.48-20.8,14.9-23.6,15.18-25.08,14.11-2.59-1.86-1.63-8.12-.03-11.96,3.14-7.57,10.58-10.28,10.16-11.04-.45-.82-10.09.56-14.81,7.55-5.18,7.68,1.01,14.05-3.78,22.36-3.74,6.51-8.5,4.28-17.13,12.78-3.81,3.75-10.05,9.9-10.75,19.17-.08,1.03-.67,11.05,6.68,18.3,1.53,1.51,7.14,7.04,13.65,5.81,4.53-.86,7.14-4.55,10.46-9.22,1.99-2.81,5.17-7.3,6.1-13.73,1-6.9-1.63-8.93-1.16-19.46.18-4,.27-6,.87-7.84,2.91-8.87,13.1-9.76,26.72-17.61,7.73-4.45,19.74-11.37,24.98-24.21,1.2-2.95,5.03-12.33,1.16-21.49-5.57-13.21-23.28-16.85-33.69-16.55-8.15.23-14.02,2.93-24.69,7.84-10.51,4.84-16.16,7.44-22.07,13.36-5.72,5.73-8.85,11.71-17.72,15.68-1.25.56-6.03,2.7-6.97,1.45-1.48-1.96,8.71-9.21,17.13-23.52,2.75-4.67,7.13-12.11,9-22.36,2.6-14.25-2.27-19.49,1.74-23.81,5.18-5.58,14.97,1.37,34.65,1.36,7.01,0,21.47-.89,36.26-8.18,8.03-3.95,23.31-11.48,29.86-28.44,1.53-3.95,7.2-18.63-.71-33.06ZM95.74,205.66c5.9.2,12.28,4.66,13.08,11.21.89,7.29-5.55,13.7-12.54,14.55-6.86.83-14.14-3.7-15.35-10.14-1.47-7.84,6.55-15.89,14.81-15.61ZM259.24,290.99h-4.53v-9.11h4.53v9.11ZM259.24,277.36h-9.07v-9.07h9.07v9.07ZM242.91,228.97c-4.41-3.85-2.8-14.03,2.42-19.79,4.34-4.79,12.93-8.48,17.83-4.68,4.64,3.6,3.74,12.2.6,17.38-4.59,7.58-16.05,11.3-20.85,7.1ZM272.95,290.99h-9.14v-9.11h9.14v9.11ZM272.95,277.36h-9.14v-9.07h9.14v9.07ZM286.52,290.99h-9.07v-9.11h9.07v9.11ZM286.52,277.36h-9.07v-9.07h9.07v9.07ZM286.68,242.47c-.75,3.02-3.5,6.16-5.76,5.86-2.9-.39-3.4-4.26-5.81-4.28-2.39-.01-3.49,3.76-5.31,3.57-1.45-.15-2.63-3.98-2.43-7.38.29-4.86,3.57-11.6,8.79-12.03,6.22-.51,12.02,8.18,10.51,14.25ZM295.62,290.99h-4.54v-9.11h4.54v9.11ZM300.16,277.36h-9.07v-9.07h9.07v9.07ZM315.74,227.76c-4.45,4.62-13.9,2.62-19.19-1.96-5.9-5.11-8.82-15.36-4.23-20.25,4.44-4.72,14.34-2.79,19.79,2.27,5.54,5.14,8.26,15.13,3.63,19.94ZM472.13,271.17c-1.02,3.52-2.24,7.51-6.31,10.49-3.9,2.85-10.69,4.99-13.83,2.51-4.81-3.8.35-17.37,6.8-25.76,2.2-2.87,7.28-9.48,10.92-8.44,4.34,1.25,4.84,12.86,2.43,21.2ZM398.53,102.46c2.11-8.43,5.76-22.99,11.48-23.22,3.23-.13,4.22,4.43,12.55,16.02,9.1,12.66,14.25,16.02,12.81,19.22-1.71,3.82-9.55.18-20.29,4.8-11.44,4.93-14.29,14.13-17.62,12.81-4.62-1.82-1.25-20.37,1.07-29.63ZM370.92,118.48c-6.88-1.21-11.09-8.02-10.88-14.38.23-7.06,5.91-13.46,12.53-13.76,8.23-.38,15.56,8.81,13.76,17.25-1.39,6.48-8.08,12.17-15.4,10.88ZM424.42,178.8c-3.75,4.01-14.83,15.86-32.03,17.08-7.36.52-21.25-.52-22.96-6.41-1.99-6.86,13.49-17.07,37.37-32.57,13.93-9.03,25.87-15.8,34.17-20.29-.17,6.43-1.55,26.14-16.55,42.17Z"/>
  </g>
</svg>