<svg width="350" height="48" viewBox="0 0 350 48" fill="none" xmlns="http://www.w3.org/2000/svg">
<g clip-path="url(#clip0_386_115)">
<path d="M113.545 14.5353C113.149 15.2716 112.293 15.9554 111.8 16.553C111.418 16.9595 111.453 17.3946 111.824 17.801C112.127 18.2169 112.826 18.7238 112.684 19.2736C112.21 20.1104 110.382 19.9669 110.045 20.9806C109.991 21.191 110.074 21.3965 110.245 21.5352C110.856 22.0277 111.829 21.7456 112.474 21.9942C112.904 22.2572 112.728 22.7879 112.777 23.2517C112.841 26.2257 112.337 31.6669 112.474 33.852C112.988 35.4298 115.133 37.132 117.064 36.2235C118.154 35.7406 120.046 34.2871 119.66 33.1156C119.528 32.6375 119.078 32.1307 118.57 32.2646C118.106 32.3745 117.798 33.0105 117.431 33.3404C116.971 33.7755 116.131 33.7324 115.608 33.4121C115.192 33.1826 115.016 32.7618 114.997 32.3124C114.826 30.2899 114.562 24.3658 114.694 22.4819C114.713 22.1568 114.835 21.8508 115.168 21.7408C115.647 21.5496 116.708 21.6739 116.971 22.0133C117.201 22.3098 116.991 22.6014 116.712 23.0509C116.326 23.6486 115.896 24.3514 115.686 25.0495C115.094 26.8425 116.17 29.3623 117.758 30.1703C118.795 30.6293 120.217 30.2755 120.833 29.3288C121.41 28.4825 121.298 26.7995 120.364 26.2592C119.777 25.891 118.99 26.1397 118.404 26.3883C117.436 26.8616 117.216 25.9962 117.558 25.2886C118.11 24.1363 120.398 22.4198 120.051 21.0475C119.904 20.5694 119.357 20.1869 118.775 20.0626C117.627 19.7709 116.023 20.7702 115.187 19.594C114.83 18.915 115.133 18.3891 115.373 17.4711C115.705 16.3618 116.165 14.8939 116.39 13.8229C116.62 12.9622 116.551 11.7287 115.588 11.3748C114.962 11.1166 114.268 11.7047 114.063 12.4363C113.809 13.1009 113.848 13.8611 113.55 14.4923L113.535 14.5257L113.545 14.5353Z" fill="#1A1A1A"/>
<path d="M300.726 19.8856C300.702 20.0099 300.927 20.1247 301.024 20.2155C301.674 20.7319 302.769 21.4969 303.214 22.3145C303.42 22.764 303.385 23.1895 303.42 23.7059C303.532 26.5795 303.327 32.3171 303.268 33.8233C303.234 34.3205 302.765 34.6648 302.373 35.0042C301.772 35.4919 300.927 35.9749 300.741 36.1566C300.56 36.343 301 36.2857 301.122 36.3C302.32 36.3 305.663 36.3 306.827 36.3C306.959 36.3 307.174 36.3096 307.213 36.2235C307.125 35.9749 306.46 35.5876 305.961 34.9325C305.654 34.55 305.39 34.091 305.199 33.6463C305.018 33.2017 304.945 33.0104 304.95 32.6088C304.906 30.7632 305.038 22.4867 304.901 20.9136C304.368 19.9143 303.248 19.7087 302.095 19.7709C301.758 19.7709 300.824 19.7709 300.726 19.876H300.721L300.726 19.8856Z" fill="#1A1A1A"/>
<path d="M304.001 17.6287C304.806 17.6287 305.458 16.751 305.458 15.6684C305.458 14.5857 304.806 13.708 304.001 13.708C303.197 13.708 302.544 14.5857 302.544 15.6684C302.544 16.751 303.197 17.6287 304.001 17.6287Z" fill="#1A1A1A"/>
<path d="M320.294 22.654C316.56 17.6528 308.822 20.9901 308.113 26.9955C307.956 28.21 308.01 29.5392 308.313 30.7202C309.051 33.7659 311.774 36.2187 314.932 36.453C317.616 36.6825 320.021 35.1716 321.184 32.6758C321.321 32.3984 321.643 31.6382 321.076 32.145C311.808 41.4209 304.31 24.8583 314.643 21.4731C315.245 21.3392 315.9 21.3296 316.501 21.4635C319.673 22.042 321.106 26.3692 317.875 27.7749C316.76 28.2578 315.386 27.6458 314.873 26.6082C314.687 26.2448 314.619 25.8719 314.727 25.5515C314.878 25.1212 315.357 24.7818 315.616 25.1308C315.822 25.3938 315.836 26.0201 316.193 26.264C316.946 26.766 317.879 25.8767 317.733 25.0925C317.435 23.443 314.663 23.4573 313.812 24.6574C313.28 25.2694 313.28 26.111 313.568 26.8521C315.626 31.7147 323.413 27.5597 320.324 22.6971L320.299 22.6588L320.294 22.654Z" fill="#1A1A1A"/>
<path d="M282.938 20.3877C282.992 20.1773 283.471 20.2299 283.681 20.206C284.928 20.1964 286.81 20.1916 288.144 20.206C288.408 20.2155 288.799 20.2012 288.999 20.3207C289.136 20.4355 288.951 20.5885 288.858 20.6889C288.467 21.0379 287.777 21.5352 287.66 22.1424C287.538 22.6588 287.797 23.1561 287.992 23.6294C288.823 25.5754 290.266 29.0132 291.018 30.7345C291.585 32.0446 292.05 30.5337 292.421 29.8882C293.018 28.7216 293.658 27.4736 294.259 26.2926C294.797 25.2168 295.379 24.2845 295.418 23.2182C295.54 19.9095 289.322 20.1916 299.328 20.206C300.707 20.2347 299.592 20.9901 299.006 21.5304C297.906 22.5297 297.09 23.7872 296.542 25.1117C295.388 27.7223 292.71 34.0002 291.761 36.0275C291.688 36.1853 291.58 36.4339 291.453 36.4578C289.874 33.8328 286.648 25.6185 285.103 22.5202C284.913 22.1281 284.58 21.7312 284.224 21.4396C283.769 21.014 283.148 20.7893 282.938 20.402V20.3925V20.3877Z" fill="#1A1A1A"/>
<path d="M348.578 23.9689C348.68 24.3945 347.405 23.486 347.155 23.3904C345.689 22.5919 343.606 21.8891 341.871 22.3098C338.615 23.1752 340.864 25.3029 342.888 26.2018C343.914 26.6752 344.99 26.8664 346.021 27.3015C348.006 28.1383 350.352 29.96 349.961 32.2216C349.536 34.2823 347.258 35.7072 345.092 36.2618C343.577 36.6347 341.983 36.4483 340.585 35.7693C338.073 34.6457 336.372 31.6717 338.63 29.5488C339.74 28.5447 341.304 28.5208 342.609 29.4149C343.377 29.9122 344.076 30.8589 343.885 31.7147C343.65 32.9866 341.778 33.6081 340.664 32.9005C340.018 32.518 339.666 31.6382 340.15 31.0358C340.532 30.5433 341.495 30.5433 341.807 30.4333C342.042 30.3616 341.905 30.2182 341.734 30.1464C341.187 29.9074 340.439 29.9552 339.886 30.2229C337.481 31.5091 339.324 33.8472 341.431 34.5309C342.648 34.9613 343.924 34.9804 345.146 34.6553C347.453 34.0719 349.223 32.102 347.101 30.1225C345.65 28.6403 343.357 28.4921 341.49 27.7175C338.713 26.5509 337.022 23.3713 339.319 21.124C342.115 18.8242 347.15 21.1479 348.588 23.9546V23.9642L348.578 23.9689Z" fill="#1A1A1A"/>
<path d="M327.402 31.7292C329.748 29.9936 333.717 27.0626 335.77 25.5278C336.259 25.1788 336.772 24.7054 336.621 24.0647C336.513 23.4049 335.814 22.5251 335.159 21.9513C332.823 19.8428 329.117 19.6515 326.443 21.2533C320.494 24.6098 321.619 34.3542 328.11 36.152C330.941 37.0269 334.494 35.9081 335.78 33.0967C335.77 32.8815 335.433 33.1158 335.286 33.1923C333.903 34.1103 332.207 35.167 330.432 35.1957H330.393C329.054 35.2005 326.952 34.3637 326.468 33.154C326.292 32.5086 326.942 32.0735 327.402 31.7244V31.7292ZM326.111 30.0844C324.566 30.969 324.615 28.3153 324.64 27.316C324.718 25.6234 325.588 23.8974 327.05 22.9124L327.084 22.8885C327.91 22.3243 328.804 22.0422 329.733 22.0087C330.882 21.9657 332.045 22.353 332.989 23.0415C334.006 23.7491 334.123 24.4855 333.052 25.217C330.814 26.7757 328.433 28.5783 326.116 30.0844H326.111ZM333.639 25.8434C331.4 27.6651 329.049 29.3433 326.58 30.8638C328.819 29.0373 331.175 27.3686 333.639 25.8434Z" fill="#1A1A1A"/>
<path d="M272.99 31.7292C275.337 29.9936 279.306 27.0626 281.359 25.5278C281.848 25.1788 282.361 24.7054 282.21 24.0647C282.102 23.4049 281.403 22.5251 280.748 21.9513C278.411 19.8428 274.706 19.6515 272.032 21.2533C266.083 24.6098 267.208 34.3542 273.699 36.152C276.529 37.0269 280.083 35.9081 281.369 33.0967C281.359 32.8815 281.022 33.1158 280.875 33.1923C279.492 34.1103 277.796 35.167 276.021 35.1957H275.982C274.643 35.2005 272.541 34.3637 272.057 33.154C271.881 32.5086 272.531 32.0735 272.99 31.7244V31.7292ZM271.695 30.0844C270.15 30.969 270.199 28.3153 270.224 27.316C270.302 25.6234 271.172 23.8974 272.634 22.9124L272.668 22.8885C273.494 22.3243 274.388 22.0422 275.317 22.0087C276.466 21.9657 277.629 22.353 278.573 23.0415C279.59 23.7491 279.707 24.4855 278.636 25.217C276.398 26.7757 274.017 28.5783 271.7 30.0844H271.695ZM279.223 25.8434C276.984 27.6651 274.633 29.3433 272.164 30.8638C274.403 29.0373 276.759 27.3686 279.223 25.8434Z" fill="#1A1A1A"/>
<path d="M212.185 31.7292C214.532 29.9936 218.501 27.0626 220.554 25.5278C221.043 25.1788 221.556 24.7054 221.404 24.0647C221.297 23.4049 220.598 22.5251 219.943 21.9513C217.606 19.8428 213.901 19.6515 211.227 21.2533C205.278 24.6098 206.402 34.3542 212.894 36.152C215.724 37.0269 219.278 35.9081 220.564 33.0967C220.554 32.8815 220.217 33.1158 220.07 33.1923C218.687 34.1103 216.99 35.167 215.216 35.1957H215.177C213.837 35.2005 211.736 34.3637 211.252 33.154C211.076 32.5086 211.726 32.0735 212.185 31.7244V31.7292ZM210.895 30.0844C209.35 30.969 209.399 28.3153 209.423 27.316C209.502 25.6234 210.372 23.8974 211.833 22.9124L211.867 22.8885C212.694 22.3243 213.588 22.0422 214.517 22.0087C215.666 21.9657 216.829 22.353 217.773 23.0415C218.789 23.7491 218.907 24.4855 217.836 25.217C215.597 26.7757 213.217 28.5783 210.9 30.0844H210.895ZM218.423 25.8434C216.184 27.6651 213.833 29.3433 211.364 30.8638C213.603 29.0373 215.959 27.3686 218.423 25.8434Z" fill="#1A1A1A"/>
<path d="M222.568 20.7847C222.602 20.9377 222.778 21.0238 222.915 21.1098C223.692 21.5497 225.105 22.1426 225.017 23.2375C225.017 24.9014 225.017 30.7968 225.017 32.236C225.041 32.8528 224.841 33.3931 224.479 33.9717C224.284 34.2824 224.044 34.5932 223.78 34.861C223.062 35.6451 222.172 36.0659 222.011 36.391C222.011 36.501 222.5 36.4771 223.238 36.4819C224.719 36.4819 227.129 36.4914 227.906 36.4723C228.561 36.4914 227.813 35.975 227.593 35.6403C227.231 35.2148 227.007 34.7367 226.928 34.1868C226.62 32.2408 226.659 27.2682 226.674 25.8481C226.611 24.8441 227.07 23.7204 228.043 23.1897C228.571 22.9172 229.006 23.0941 229.109 23.5722C229.299 24.4807 228.815 25.4226 228.571 26.288C228.126 27.8611 228.854 30.6391 230.834 30.8733C232.222 31.055 233.875 30.1035 233.273 28.5496C233.034 27.8659 232.379 27.2347 231.592 27.3304C230.629 27.4451 229.48 28.3392 229.514 26.8953C229.641 24.9636 231.191 23.6726 232.227 22.1761C232.824 21.3106 233.102 20.0675 231.504 20.5169C230.438 20.7895 229.319 21.4493 228.243 21.741C226.713 22.1091 226.953 20.254 225.193 20.2444C224.602 20.1918 222.793 20.2253 222.563 20.7703V20.7847H222.568Z" fill="#1A1A1A"/>
<path d="M98.4352 20.7847C98.4694 20.9377 98.6454 21.0238 98.7823 21.1098C99.5595 21.5497 100.972 22.1426 100.884 23.2375C100.884 24.9014 100.884 30.7968 100.884 32.236C100.909 32.8528 100.708 33.3931 100.347 33.9717C100.151 34.2824 99.9115 34.5932 99.6475 34.861C98.9289 35.6451 98.0392 36.0659 97.8779 36.391C97.8779 36.501 98.3668 36.4771 99.1049 36.4819C100.586 36.4819 102.996 36.4914 103.773 36.4723C104.428 36.4914 103.68 35.975 103.46 35.6403C103.099 35.2148 102.874 34.7367 102.796 34.1868C102.488 32.2408 102.527 27.2682 102.541 25.8481C102.478 24.8441 102.937 23.7204 103.91 23.1897C104.438 22.9172 104.873 23.0941 104.976 23.5722C105.166 24.4807 104.682 25.4226 104.438 26.288C103.993 27.8611 104.722 30.6391 106.701 30.8733C108.09 31.055 109.742 30.1035 109.141 28.5496C108.901 27.8659 108.246 27.2347 107.459 27.3304C106.496 27.4451 105.347 28.3392 105.381 26.8953C105.509 24.9636 107.058 23.6726 108.094 22.1761C108.691 21.3106 108.969 20.0675 107.371 20.5169C106.305 20.7895 105.186 21.4493 104.11 21.741C102.58 22.1091 102.82 20.254 101.06 20.2444C100.469 20.1918 98.6601 20.2253 98.4303 20.7703V20.7847H98.4352Z" fill="#1A1A1A"/>
<path d="M250.299 36.2714C249.673 36.1567 243.954 36.6731 244.677 35.6068C245.196 34.9565 247.092 33.8712 247.591 32.7762C248.094 31.8965 247.987 31.0263 248.001 30.0318C248.001 27.5741 248.001 23.5052 248.001 19.465C247.997 15.8216 247.987 12.2021 247.977 9.79706C248.041 7.69327 247.977 5.87635 246.149 4.53757C245.841 4.24591 245.249 3.84906 245.259 3.50958C245.504 2.99798 247.136 3.20836 247.909 3.12229C248.593 3.12229 249.468 3.09839 249.805 3.79168C249.981 4.1216 250.035 4.61886 250.113 4.95355C250.157 5.14481 250.221 5.24522 250.328 5.24043C250.925 5.00615 251.438 4.09291 252.279 3.56696C255.51 1.3006 259.826 2.55331 262.622 4.90574C265.585 7.28685 267.168 11.002 267.745 14.6358C269.045 22.6063 266.347 33.7756 257.827 36.1614C255.402 36.3718 252.675 36.214 250.338 36.2666H250.304L250.299 36.2714ZM250.377 9.33805C250.309 9.33805 250.265 9.45759 250.245 9.67753C250.221 9.96441 250.216 10.3852 250.216 10.7199C250.226 15.4391 250.23 20.6938 250.235 25.4799C250.235 26.747 250.235 28.0379 250.235 29.2859C250.26 30.4525 250.162 31.1315 250.362 32.0638C250.802 33.919 253.012 34.2441 254.747 34.1772C255.803 34.1772 256.947 34.182 257.817 34.1055C258.653 34.0433 259.435 33.7947 260.071 33.2448C265.892 28.3678 266.948 16.5866 263.448 10.1652C262.045 7.64545 259.802 5.20218 256.952 4.43717C254.63 3.82037 251.677 5.49385 252.396 8.11403C252.543 8.63998 252.836 9.1468 253.247 9.51975C253.931 10.1987 255.256 10.3995 255.749 9.47671C255.862 9.23286 255.945 8.87904 255.696 8.72126C255.265 8.56347 254.498 9.74925 253.975 9.10377C252.748 7.46855 254.625 5.59425 256.429 6.42621C259.425 7.94668 258.306 12.2881 254.923 12.4077C253.564 12.4842 252.196 11.7096 251.355 10.5812C251.12 10.28 250.871 9.90225 250.68 9.62972C250.543 9.43846 250.446 9.32849 250.372 9.32849H250.367L250.377 9.33805Z" fill="#1A1A1A"/>
<path d="M159.636 21.0191C159.529 21.569 160.384 22.0136 160.687 22.3913C160.971 22.683 161.073 23.0081 161.112 23.3906C161.362 25.4275 161.445 29.9698 161.65 32.5469C161.694 33.9909 163.434 35.7744 165.346 36.3386C166.299 36.6254 167.443 36.6685 168.372 36.5059C169.291 36.3768 169.804 36.0278 170.581 35.913C172.018 35.8604 173.416 37.0558 174.805 36.1616C175.24 35.9274 175.67 35.4158 175.117 35.0476C174.355 34.5121 172.722 34.1391 172.703 32.9486C172.429 30.5627 173.128 23.5341 172.883 21.5929C172.747 20.7131 171.857 20.6462 170.899 20.4836C169.96 20.3975 168.362 20.4023 168.352 21.2869C168.626 22.1236 170.131 22.2527 170.425 23.1085C171.08 25.1263 170.801 30.0893 170.601 32.0592C170.547 32.5135 170.439 32.8769 170.063 33.1972C169.315 33.8762 167.472 34.5695 166.245 34.12C165.243 33.7805 164.202 33.0012 163.821 32.0401C163.601 30.2901 163.987 27.6939 163.933 24.7677C163.899 23.3333 163.987 22.4105 163.664 21.392C163.102 20.1441 161.083 20.1824 160.062 20.6414C159.89 20.7179 159.719 20.847 159.651 21L159.641 21.0191H159.636Z" fill="#1A1A1A"/>
<path d="M95.5462 35.0523C94.7054 34.3399 94.3681 33.4315 94.5245 32.4369C94.6467 30.6344 94.9743 26.1447 94.4903 23.7205C93.9379 20.6939 90.3108 19.709 87.5881 20.7465C86.4198 21.1673 84.1858 22.3148 84.7382 23.7397C85.4959 24.8107 87.3779 21.4781 89.8122 21.851C91.049 21.9467 92.2662 22.8647 92.7941 23.6584C93.2878 24.2513 93.5909 26.0969 92.5301 26.2068C91.8213 26.2164 91.0783 25.963 90.3597 25.8721C89.2648 25.6665 88.292 25.743 87.3143 26.2403C86.0385 26.8428 84.8702 27.8373 84.396 29.1808C83.4624 32.0353 85.1097 36.0469 88.1551 36.5202C88.8786 36.6541 89.6754 36.635 90.3793 36.4676C91.1761 36.2859 91.66 35.9034 92.4715 35.8508C92.8723 35.8221 93.278 35.8843 93.6495 36.0086C94.5392 36.3768 95.5462 36.7545 96.5238 36.5107C96.8025 36.4342 97.13 36.4007 97.2229 36.1664C97.2326 35.9799 96.6851 35.7982 96.1425 35.4779C95.947 35.3631 95.7515 35.2293 95.5706 35.081L95.5413 35.0571L95.5462 35.0523ZM89.2061 34.9424C87.7885 34.9041 86.6398 33.8474 86.0727 32.633C84.9729 30.5627 85.9407 28.5832 87.8716 27.4835C88.9812 26.8428 90.2864 26.9862 91.4449 27.4022C92.9407 27.9855 93.1705 29.2382 93.2047 30.7635C93.3171 33.1924 91.8213 34.9997 89.2452 34.9519H89.2061V34.9424Z" fill="#1A1A1A"/>
<path d="M187.768 35.0523C186.928 34.3399 186.59 33.4315 186.747 32.4369C186.869 30.6344 187.196 26.1447 186.712 23.7205C186.16 20.6939 182.533 19.709 179.81 20.7465C178.642 21.1673 176.408 22.3148 176.96 23.7397C177.718 24.8107 179.6 21.4781 182.034 21.851C183.271 21.9467 184.488 22.8647 185.016 23.6584C185.51 24.2513 185.813 26.0969 184.752 26.2068C184.043 26.2164 183.3 25.963 182.582 25.8721C181.487 25.6665 180.514 25.743 179.537 26.2403C178.261 26.8428 177.092 27.8373 176.618 29.1808C175.685 32.0353 177.332 36.0469 180.377 36.5202C181.101 36.6541 181.898 36.635 182.601 36.4676C183.398 36.2859 183.882 35.9034 184.694 35.8508C185.094 35.8221 185.5 35.8843 185.872 36.0086C186.761 36.3768 187.768 36.7545 188.746 36.5107C189.025 36.4342 189.352 36.4007 189.445 36.1664C189.455 35.9799 188.907 35.7982 188.365 35.4779C188.169 35.3631 187.974 35.2293 187.793 35.081L187.763 35.0571L187.768 35.0523ZM181.428 34.9424C180.011 34.9041 178.862 33.8474 178.295 32.633C177.195 30.5627 178.163 28.5832 180.094 27.4835C181.203 26.8428 182.509 26.9862 183.667 27.4022C185.163 27.9855 185.393 29.2382 185.427 30.7635C185.539 33.1924 184.043 34.9997 181.467 34.9519H181.428V34.9424Z" fill="#1A1A1A"/>
<path d="M59.3874 6.86607C58.8008 5.81895 57.7449 5.18303 56.7184 5.00134C55.1786 4.7288 53.9028 5.51773 53.4775 5.78548C52.4118 6.44531 52.0403 7.21032 50.4272 8.09966C50.1241 8.267 49.7477 8.45826 49.2833 8.3961C48.5892 8.31003 48.0564 7.71715 47.8315 7.16251C47.7582 6.9856 47.6165 6.61265 47.7191 6.15364C47.7289 6.10105 47.9195 5.30256 48.7114 4.99656C48.7456 4.98221 49.4935 4.7049 50.0459 5.07306C50.4174 5.31691 50.4712 5.69463 50.5787 5.67073C50.7254 5.63726 50.8378 4.93918 50.5005 4.51364C50.0215 3.91119 48.8874 4.17895 48.7456 4.2172C47.5578 4.51842 47.0836 5.6277 47.069 5.67073C46.7561 6.45009 46.9614 7.14338 47.0299 7.34898C47.3574 8.30525 48.2373 8.91727 49.0878 9.06549C49.2002 9.08461 49.6988 9.16112 50.5005 8.91727C52.0501 8.43913 52.1625 7.54502 53.7854 6.67959C54.5333 6.28274 55.467 5.78548 56.4935 6.08192C57.2072 6.28752 57.8476 6.84694 58.136 7.57371C58.4928 8.48216 58.1653 9.29977 58.0236 9.66316C57.5005 10.9732 56.3225 11.5996 55.467 12.0491C54.8658 12.3694 53.7414 12.9623 52.2994 12.9097C51.4733 12.8762 51.3657 12.6658 49.7819 12.4985C48.5892 12.3742 48.4572 12.4746 48.1053 12.2738C47.2303 11.7765 47.7044 10.9685 46.7317 9.77313C46.2722 9.20893 45.8322 8.98421 44.7079 7.72193C44.5368 7.53067 44.3902 7.35376 44.3266 7.08601C44.2875 6.92344 44.2093 6.40228 45.2408 5.10653C45.5732 4.69055 45.9544 4.22198 46.6535 3.653C47.9391 2.60588 48.9167 2.33334 48.8678 2.19947C48.8092 2.0369 47.3378 2.13253 46.1206 2.98361C45.2896 3.56215 44.7861 4.35107 44.5173 4.77662C43.8965 5.76157 43.7596 6.48834 43.6032 6.45487C43.4125 6.41662 43.5885 5.35994 43.4516 3.65778C43.349 2.37159 43.2903 1.72133 42.8406 1.11888C42.7135 0.951533 42.034 0.0382949 40.856 4.4036e-05C40.7582 4.4036e-05 39.4335 -0.0238627 38.798 1.04238C38.4363 1.64961 38.3874 2.4481 38.7589 3.09358C38.9984 3.50478 39.629 4.23632 40.4014 4.06419C40.9293 3.94466 41.4719 3.41393 41.3937 2.79714C41.291 1.96996 40.1667 1.70221 40.0983 1.78827C40.0445 1.85521 40.5529 2.15643 40.6018 2.72541C40.6213 2.9597 40.5676 3.32308 40.3671 3.40437C40.0836 3.51912 39.5606 3.07923 39.3651 2.58676C39.3455 2.53894 39.0864 1.85043 39.5459 1.2671C39.9614 0.736372 40.6213 0.741154 40.7827 0.750716C41.5599 0.788967 42.0194 1.40576 42.1074 1.5253C42.3176 1.81696 42.4104 2.13731 42.4007 3.85381C42.3909 5.61335 42.2833 5.82851 42.5424 6.23971C42.8357 6.70828 43.2268 6.83738 43.3392 7.3968C43.4077 7.74105 43.3245 8.01837 43.2268 8.33872C43.0948 8.77861 42.7771 9.81616 42.1807 9.92613C41.4377 10.0648 41.1053 8.62082 39.9516 8.5252C39.1011 8.45348 38.407 9.17068 38.2456 9.33324C37.6053 9.98829 37.5173 10.7581 37.5026 11.0019C37.4831 11.2745 37.4195 12.2212 38.1088 12.8619C38.6758 13.383 39.4139 13.3974 39.5948 13.4022C40.592 13.4165 41.1395 12.8189 41.3546 13.0005C41.511 13.1296 41.4572 13.6221 40.5578 15.1808C39.4237 16.4479 38.8225 17.1173 38.8225 17.1173C38.8225 17.1173 37.0871 18.7669 35.8211 18.4656C35.1954 18.3174 35.342 17.8823 34.3888 17.0934C33.1912 16.1036 31.8567 15.8789 31.363 15.8024C30.9915 15.745 30.2582 15.6351 29.3246 15.8024C28.0438 16.0319 27.1982 16.6344 26.8218 16.9069C26.3427 17.2559 25.194 18.0879 24.7296 19.5175C24.4167 20.4738 24.5732 21.2197 24.3972 21.2388C24.2016 21.2675 23.9915 20.3256 23.4049 18.8147C22.7987 17.2464 22.481 16.4527 21.8651 15.8789C21.6646 15.6924 20.6234 14.7314 19.1423 14.827C18.761 14.8509 17.5487 14.9991 16.8839 15.9602C16.4489 16.5913 16.4586 17.2703 16.4733 17.9253C16.4831 18.4991 16.4928 18.9868 16.8301 19.4888C17.3239 20.2204 18.1353 20.3973 18.2868 20.4308C18.5508 20.4881 18.893 20.5646 19.2792 20.4021C19.3476 20.3734 19.7827 20.1821 19.9684 19.7279C20.2324 19.0729 19.8022 18.3365 19.6653 18.3557C19.504 18.3796 19.7582 19.4028 19.2547 19.704C19.0201 19.8427 18.7317 19.7614 18.4286 19.6753C18.2575 19.6275 17.7051 19.4745 17.3532 18.9485C17.0746 18.5326 17.0794 18.1166 17.0794 17.8966C17.0794 17.6958 17.0941 17.036 17.6025 16.4718C18.1744 15.8359 18.9663 15.7785 19.2009 15.7737C20.2959 15.745 21.034 16.5244 21.21 16.7157C21.7135 17.2512 21.6206 17.5428 22.2268 19.3263C22.8134 21.0476 23.1165 21.4301 22.8623 21.8843C22.5885 22.3672 22.085 22.2142 21.1025 22.6923C20.2519 23.1083 20.0857 23.486 18.6241 24.9252C17.8078 25.7285 17.1968 26.264 16.4244 26.943C14.2687 28.8316 13.6577 29.0659 13.2861 29.1759C12.7973 29.3241 11.7952 29.611 10.7247 29.2045C9.8888 28.8842 9.40486 28.2865 9.10179 27.9136C8.95514 27.7319 8.46631 27.1055 8.19257 26.1349C7.99215 25.4273 7.84061 24.3037 8.16324 24.1698C8.39788 24.0742 8.59341 24.6049 9.3462 24.8679C10.0843 25.1261 10.7589 24.9205 10.9153 24.8679C11.5557 24.6527 11.9174 24.2367 12.0445 24.0885C12.2547 23.8399 12.5822 23.4478 12.5969 22.8788C12.6116 22.1951 12.1521 21.7217 11.9908 21.5592C11.3015 20.8515 10.3776 20.8563 10.2847 20.8611C10.1674 20.8611 9.27776 20.8993 8.71561 21.5353C8.27078 22.0421 8.30011 22.6206 8.16324 22.6111C8.0117 22.6015 7.94815 21.8508 7.8895 21.0762C7.83572 20.4069 7.86505 20.2108 7.8895 20.0817C8.01659 19.441 8.36366 19.1063 8.30011 19.0585C8.22679 19.0011 7.61086 19.398 7.36645 20.053C7.31757 20.1869 7.32246 20.2156 7.28335 21.3201C7.24913 22.1855 7.23936 22.3003 7.31268 22.5298C7.43489 22.9266 7.59131 22.9936 7.61575 23.3091C7.64508 23.706 7.42511 23.9594 7.28335 24.2224C6.99494 24.777 7.10248 25.3364 7.31268 26.4553C7.47888 27.335 7.61086 28.0379 8.1388 28.7981C8.3441 29.0946 9.0138 30.0269 10.2603 30.4668C11.4579 30.8876 12.5187 30.6198 13.2861 30.4142C14.4789 30.0939 14.6597 29.7257 17.0843 28.3391C19.1276 27.1725 19.0201 27.4211 20.0857 26.6991C20.9705 26.0967 21.909 25.5659 22.784 24.9491C23.3364 24.5619 23.9084 24.1363 24.231 24.3276C24.5194 24.4949 24.2896 24.9635 24.6611 25.4799C25.0278 25.9867 25.5313 25.9293 25.5997 26.2784C25.6583 26.5939 25.2917 26.9047 24.9153 27.2203C24.2505 27.7797 23.5711 27.9853 23.3658 28.0427C22.8671 28.1813 22.4712 28.1957 21.7086 28.2052C20.2226 28.2339 19.9928 28.0379 19.2352 28.2052C18.7708 28.3104 18.4139 28.5112 17.6954 28.9081C16.9279 29.3384 16.1996 29.7448 15.4859 30.4812C14.9628 31.0167 14.6402 31.5522 13.9949 32.6184C13.4475 33.5269 13.4915 33.589 13.1053 34.1246C12.3769 35.1191 11.6535 35.6546 11.497 35.7693C11.1451 36.0228 10.6563 36.3718 9.95723 36.5917C9.31198 36.7973 8.85248 36.7734 7.86505 36.7543C4.57525 36.6921 5.35248 36.8404 3.92511 36.7543C2.95234 36.6921 2.44885 36.6156 1.7645 36.8738C1.48586 36.979 0.894384 37.2085 0.469104 37.8158C-0.0197224 38.466 -0.00505756 39.1354 -0.000169292 39.3506C0.00960724 39.5944 0.0389368 40.2017 0.483769 40.7611C0.664635 40.9858 1.03126 41.4496 1.6374 41.4878C2.22399 41.5309 2.64438 41.1484 2.81547 40.9954C2.98656 40.8424 3.47539 40.3977 3.41673 39.7713C3.37274 39.3028 3.04033 38.9968 2.93768 38.9011C2.82036 38.7912 2.64927 38.6382 2.38531 38.5951C2.02846 38.533 1.68139 38.7051 1.68628 38.7816C1.69606 38.8581 2.0529 38.772 2.28754 38.992C2.50262 39.1928 2.48307 39.5179 2.47818 39.604C2.45863 40.02 2.15556 40.565 1.71072 40.5889C1.28056 40.6129 0.977484 40.1443 0.918825 40.0487C0.693965 39.6948 0.713518 39.3315 0.728183 39.1067C0.737959 38.9059 0.777065 38.4326 1.1388 38.0261C1.20234 37.9544 1.44676 37.6914 1.9307 37.5337C2.74215 37.2707 3.52427 37.5337 3.75891 37.6054C4.5117 37.8397 5.73377 38.007 7.77218 37.6532C8.87693 37.8731 9.7226 37.7058 10.1772 37.5815C11.1109 37.3233 11.7268 36.8499 12.3623 36.3574C12.9782 35.8841 13.3644 35.4681 14.0683 34.7127C15.0166 33.6942 14.9579 33.6034 15.5836 33.0201C15.9796 32.6519 16.5857 32.0925 17.5292 31.6096C17.93 31.404 18.5753 31.0788 19.4503 30.9258C21.0145 30.6533 21.2785 31.2892 22.8378 30.9976C23.5222 30.8685 24.1723 30.7489 24.9056 30.3138C25.4677 29.9839 25.8197 29.6205 26.0836 29.7496C26.3867 29.8978 26.1521 30.4859 26.5382 30.9736C26.7827 31.2797 27.1542 31.404 27.6674 31.49C29.2659 31.7626 31.4412 31.557 32.0913 31.49C32.3259 31.3609 32.6583 31.141 32.981 30.7872C33.3183 30.4094 33.4894 30.0556 33.6067 29.8022C33.8511 29.2715 33.7924 29.152 34.0857 28.2722C34.247 27.7988 34.3448 27.5167 34.5403 27.1677C34.8532 26.6178 35.0585 26.264 35.3811 26.2019C35.5669 26.1684 35.8259 26.2258 37.0382 27.5645C37.4586 28.0283 37.8155 28.4252 38.3141 29.0707C38.7638 29.654 39.1255 30.1273 39.5166 30.8111C40.0641 31.7721 40.3378 32.255 40.3085 32.8097C40.2596 33.8138 39.453 34.5071 39.106 34.8083C38.2799 35.5255 37.3804 35.7167 36.7498 35.8411C35.2051 36.1519 33.9293 35.8841 33.0005 35.6785C31.8958 35.4346 31.7589 35.2434 29.2512 34.5501C28.4544 34.3302 27.8825 34.1867 27.159 34.3397C26.8218 34.4114 25.8979 34.6075 25.4286 35.4442C24.9398 36.3192 25.3113 37.2277 25.3553 37.3233C25.7952 38.3321 26.8902 38.6429 27.3741 38.7816C27.599 38.8438 28.8602 39.1784 30.092 38.619C30.747 38.3178 30.8546 38.0118 31.4607 37.9353C32.0327 37.8636 32.8588 38.0309 33.0445 38.5473C33.2058 38.992 32.8197 39.4797 32.7561 39.5562C32.2282 40.1969 31.3532 40.1443 31.363 40.2829C31.3727 40.4312 32.3504 40.718 33.0445 40.259C33.5529 39.9243 33.6849 39.3362 33.7435 39.0828C33.8071 38.8007 33.9 38.3991 33.7191 38.0261C33.372 37.2946 32.1842 37.0268 31.3141 37.2516C30.6884 37.4141 30.7421 37.6962 29.9698 38.0022C29.7107 38.1026 28.7135 38.4804 27.6381 38.1218C27.2959 38.007 26.6507 37.7871 26.3427 37.1559C26.3085 37.0842 25.9614 36.3479 26.3671 35.7215C26.6507 35.2864 27.1248 35.1621 27.3301 35.1095C28.0976 34.9183 28.782 35.2243 29.0606 35.3438C29.0606 35.3438 30.136 35.8124 32.8099 36.6587C33.6556 36.9264 35.0438 37.3711 36.7743 37.199C37.5466 37.1225 38.9838 36.9647 40.3574 35.908C41.8483 34.7605 42.3322 33.2783 42.4495 32.8766C42.5913 32.3985 42.9579 30.9115 42.3273 29.2332C42.166 28.8077 41.8287 27.9327 41.0075 27.1868C41.0075 27.1868 40.812 27.0099 39.4237 26.0345C42.7673 25.8719 43.4614 25.6568 43.4614 25.6568C44.703 25.2695 45.5047 24.6192 46.4433 23.8494C47.2694 23.1705 47.2009 23.0557 49.3518 20.9758C50.0068 20.3447 50.4859 19.8953 51.224 19.4267C51.9621 18.9581 52.5047 18.6138 53.2917 18.5326C54.0494 18.4561 55.4083 18.5947 55.9118 19.5175C56.2247 20.0865 56.0683 20.6985 56.034 20.8324C55.8825 21.4348 55.4866 21.7934 53.9419 22.8788C51.7079 24.4423 51.4097 24.471 51.2484 24.361C50.9698 24.165 51.0725 23.51 51.2484 23.1035C51.5857 22.3098 52.3825 22.023 52.3385 21.9465C52.2896 21.8604 51.2582 22.0038 50.7498 22.7402C50.1926 23.5434 50.8574 24.2128 50.3441 25.0878C49.9433 25.7715 49.43 25.5372 48.5061 26.4314C48.0955 26.8234 47.4258 27.4689 47.3525 28.4443C47.3427 28.5543 47.2792 29.6062 48.0711 30.3664C48.2373 30.5242 48.8385 31.1075 49.5375 30.9784C50.0215 30.8876 50.305 30.5003 50.6618 30.0126C50.8769 29.7162 51.2191 29.2476 51.3169 28.5734C51.4244 27.8466 51.1409 27.6363 51.1947 26.5318C51.2142 26.111 51.224 25.9006 51.2875 25.7094C51.6004 24.777 52.6905 24.6862 54.157 23.859C54.988 23.3904 56.2736 22.6637 56.8357 21.3153C56.9628 21.0045 57.3734 20.0196 56.9579 19.0585C56.3616 17.6719 54.46 17.2894 53.3406 17.3229C52.4656 17.3468 51.835 17.6289 50.6912 18.1453C49.562 18.6521 48.9558 18.9246 48.3204 19.5462C47.7044 20.1487 47.372 20.775 46.4188 21.191C46.282 21.2484 45.7736 21.4731 45.6709 21.344C45.5145 21.1384 46.6046 20.3782 47.5089 18.8768C47.8022 18.3843 48.2764 17.605 48.4768 16.5292C48.7554 15.0326 48.2324 14.4828 48.6625 14.0285C49.2198 13.4452 50.2708 14.172 52.3825 14.172C53.1353 14.172 54.6849 14.0763 56.2736 13.3113C57.1339 12.8954 58.7764 12.1064 59.4803 10.3278C59.6416 9.91179 60.2526 8.37219 59.4021 6.8565L59.3874 6.86607ZM10.275 21.5879C10.9104 21.607 11.5948 22.0755 11.6779 22.7641C11.7757 23.5291 11.0815 24.2033 10.3336 24.2893C9.5955 24.3754 8.81827 23.902 8.68628 23.2231C8.52986 22.4007 9.39019 21.5544 10.275 21.5831V21.5879ZM27.819 30.5433H27.3301V29.5871H27.819V30.5433ZM27.819 29.1137H26.8462V28.1622H27.819V29.1137ZM26.0641 24.0311C25.5899 23.6247 25.7659 22.5585 26.3232 21.956C26.7875 21.454 27.7114 21.0667 28.2345 21.4635C28.7331 21.8413 28.6353 22.7449 28.298 23.2852C27.8043 24.0789 26.5773 24.471 26.0592 24.0311H26.0641ZM29.2903 30.5433H28.3078V29.5871H29.2903V30.5433ZM29.2903 29.1137H28.3078V28.1622H29.2903V29.1137ZM30.747 30.5433H29.7743V29.5871H30.747V30.5433ZM30.747 29.1137H29.7743V28.1622H30.747V29.1137ZM30.7617 25.4512C30.6835 25.7668 30.3853 26.0967 30.1458 26.068C29.8329 26.0297 29.7792 25.6185 29.5201 25.6185C29.2659 25.6185 29.1437 26.0106 28.9482 25.9915C28.7917 25.9771 28.6646 25.5755 28.6891 25.2169C28.7184 24.7053 29.0704 23.9977 29.6325 23.9546C30.2973 23.902 30.923 24.8153 30.7617 25.4512ZM31.7198 30.5433H31.231V29.5871H31.7198V30.5433ZM32.2086 29.1137H31.2359V28.1622H32.2086V29.1137ZM33.8804 23.9068C33.4014 24.3897 32.3895 24.1793 31.8225 23.7012C31.1919 23.1657 30.8741 22.0899 31.3678 21.5783C31.842 21.081 32.9077 21.2866 33.4894 21.8174C34.0857 22.3576 34.3741 23.4048 33.8804 23.9116V23.9068ZM50.6618 28.4634C50.5543 28.8316 50.4223 29.2524 49.9824 29.5631C49.562 29.8644 48.8336 30.0891 48.4963 29.8261C47.9782 29.4293 48.5354 28.0044 49.2247 27.1199C49.4593 26.8187 50.0068 26.1254 50.3979 26.2353C50.8623 26.3644 50.916 27.5837 50.657 28.4587L50.6618 28.4634ZM42.7624 10.7533C42.9873 9.86876 43.3783 8.33872 43.9942 8.31482C44.3413 8.30047 44.4489 8.77861 45.3385 9.99785C46.3162 11.3271 46.8685 11.6809 46.7121 12.0156C46.5264 12.4172 45.6856 12.0347 44.5368 12.5176C43.3099 13.034 43.0019 13.9998 42.6451 13.8612C42.1514 13.6699 42.5131 11.7239 42.7575 10.7533H42.7624ZM39.8001 12.4363C39.062 12.3072 38.6074 11.5948 38.6318 10.9254C38.6563 10.1843 39.2673 9.51494 39.9761 9.48147C40.8609 9.44322 41.6479 10.4043 41.4523 11.2936C41.3057 11.9726 40.5871 12.5702 39.8001 12.4363ZM45.5438 18.7669C45.143 19.1876 43.9502 20.4308 42.1074 20.5599C41.3155 20.6125 39.8294 20.5073 39.6437 19.8857C39.4286 19.1637 41.0906 18.0927 43.6521 16.467C45.1479 15.5203 46.4286 14.8079 47.3183 14.3393C47.2987 15.0135 47.1521 17.0838 45.5438 18.7669Z" fill="#1A1A1A"/>
<path d="M82.9833 34.3923C82.5091 31.3322 83.1739 27.8035 83.1544 24.6239C82.8171 25.0973 82.5873 27.5406 82.3429 28.4682C81.683 32.9913 79.8108 35.076 74.8639 34.856C72.933 34.856 70.8751 34.9134 68.9686 34.5357C65.6935 33.8376 65.7375 32.8144 65.8401 29.9169C65.9477 27.0385 65.586 23.7776 66.0112 20.9614C66.3974 19.1063 69.9952 18.9389 71.2759 19.833C72.1802 20.6411 71.4665 22.0755 71.2955 23.0939C70.6649 25.4081 71.1781 28.3438 73.6467 29.367C75.2256 30.1321 78.1195 29.4866 77.8995 27.4258C77.792 26.6034 76.9658 25.9388 76.1348 26.0392C74.4093 26.35 76.8339 26.9572 76.3157 27.5979C75.8318 28.0426 75.0643 28.1191 74.4288 27.88C71.5301 26.5365 72.845 22.501 73.6027 20.1582C74.5413 17.7101 75.7633 15.8693 77.1467 13.4021C78.8576 10.4807 80.2556 8.20478 82.0741 5.6611C84.4742 1.9173 79.2487 3.44733 77.1516 3.29911C72.6104 3.38518 67.0769 3.64337 62.8094 3.01701C62.2815 2.89748 59.5881 2.80663 60.551 3.71509C60.9812 4.10716 62.0615 4.58051 62.7508 5.07778C63.5573 5.62763 63.9924 6.5074 64.1341 7.39673C64.6034 9.72047 64.7012 17.9061 64.4421 24.8056C64.2661 27.3398 64.535 30.0508 63.7626 32.1833C63.2836 33.6129 61.6949 34.5213 60.4337 35.3103C59.0552 36.4148 61.8562 36.5678 62.9952 36.5295C67.5461 36.0227 73.3827 36.4435 77.836 36.4913C79.8157 36.3909 83.4037 37.677 82.9882 34.4831V34.4018L82.9833 34.3923ZM65.801 12.2594C65.9037 10.0934 65.5517 7.36804 66.0455 5.42203C66.6076 4.39404 68.3625 4.84827 70.2836 4.7383C71.8527 4.7383 73.7934 4.7383 75.2647 4.7383C76.8925 4.67614 79.498 4.72396 79.1411 6.49784C78.183 8.93155 76.4672 11.3461 75.2501 13.7177C74.3115 15.1712 73.9938 16.4765 72.889 17.428C72.4393 17.6862 71.8723 17.7101 71.3346 17.734C70.0147 17.7531 68.1621 17.8344 67.1795 17.4615C65.2829 16.6439 65.9232 13.9759 65.7913 12.3502V12.2689L65.801 12.2594Z" fill="#1A1A1A"/>
<path d="M122.793 11.0547C122.769 11.4515 123.776 12.1831 124.279 12.9576C124.715 13.6175 124.807 14.3251 124.822 15.0997C124.837 18.8961 124.822 27.493 124.827 31.3802C124.847 32.3699 124.744 33.331 124.055 34.1008C123.404 34.8945 122.192 35.7121 122.148 36.2046C122.324 37.0557 125.213 36.6445 125.946 36.4628C128.078 35.9368 126.983 34.5215 126.518 32.8529C126.225 31.4806 126.386 29.8024 126.347 28.0619C126.337 26.4124 126.289 24.3851 126.948 23.4192C127.853 22.0566 129.95 21.6119 131.768 21.9896C135.562 22.7546 135.879 27.6699 134.716 30.6582C133.113 35.3822 127.843 39.432 128.2 43.6444C128.366 46.4032 131.563 48.8895 134.286 47.699C137.097 46.5945 137.62 42.9415 134.168 42.5733C133.025 42.4299 131.333 43.4627 132.159 44.6293C132.678 45.2652 133.313 44.6293 133.704 44.1799C134.041 43.8117 134.305 43.6731 134.55 44.0221C135.185 44.878 134.486 45.9872 133.479 46.2263C130.297 46.91 128.904 43.5679 130.297 41.0242C131.235 39.1069 133.093 37.3282 134.183 35.4969C135.151 33.9478 135.948 32.3938 136.466 30.6487C137.903 26.0346 136.329 20.0771 131.411 20.297C130.243 20.3257 128.987 20.6987 127.863 20.7943C127.271 20.8469 126.88 20.7943 126.689 20.5935C126.474 20.3592 126.499 19.9958 126.513 19.685C126.577 18.9439 126.66 17.9398 126.665 16.7206C126.616 15.0041 126.831 12.9672 125.668 11.7623C124.783 10.8586 123.062 10.4857 122.793 11.0355V11.0642V11.0547Z" fill="#1A1A1A"/>
<path d="M155.907 7.25332C156.004 7.23897 156.038 7.13856 156.038 7.04294C155.833 5.31209 153.174 2.84491 151.204 2.31418C148.144 1.28141 144.424 1.6926 142.293 3.98765C135.293 12.0634 135.757 37.9353 148.061 37.3806C152.284 37.0125 152.059 38.4612 153.487 42.1094C153.985 43.1613 154.601 44.6865 155.872 44.8873C156.474 44.8969 156.791 44.1654 156.615 43.2426C156.239 41.2392 154.323 39.5514 153.702 37.4619C152.9 34.8465 155.828 33.2926 156.64 31.0836C158.429 26.5748 159.035 20.1678 158.131 15.1186C157.045 9.29495 149.454 2.58194 145.103 9.65834C142.361 15.2812 151.189 19.4505 152.079 12.7806C152.25 10.9828 150.368 9.64399 148.882 10.4712C148.559 10.6624 148.735 10.9063 148.975 11.0593C149.518 11.4179 150.388 11.6952 150.593 12.3407C150.881 13.2109 149.977 14.105 149.043 14.1289C148.183 14.2006 147.279 13.7034 146.819 12.9814C145.04 9.68224 149.17 6.78953 152.255 8.77379C157.691 11.9725 157.217 25.3364 155.027 30.4046C154.474 31.5522 153.296 34.115 151.952 33.3595C150.818 32.7045 150.143 28.7072 149.122 27.1533C148.594 26.3118 147.86 26.2114 146.858 26.8043C145.568 27.6267 143.261 29.5966 143.715 30.6246C144.092 31.1171 145.822 30.2899 146.814 30.3759C148.173 30.3759 150.451 33.6559 149.972 35.0139C149.757 35.7215 148.687 36.0562 147.841 35.9414C145.045 35.6163 142.273 32.9005 141.178 30.2994C138.842 24.6001 138.172 5.60375 146.707 3.50952C149.371 2.72059 151.839 3.78205 154.103 5.95757C154.626 6.38789 155.344 7.21028 155.882 7.25332H155.907Z" fill="#1A1A1A"/>
<path d="M189.748 11.5804C189.665 11.7525 189.777 11.9629 190.002 12.178C193.815 14.9464 192.349 21.1957 192.168 30.0794C192.124 31.4325 191.909 33.0247 191.454 34.1914C191.083 35.2385 190.628 35.8935 190.623 36.2139C190.701 36.7303 191.684 36.5581 192.96 36.582C196.978 36.386 194.656 35.7836 194.084 33.5746C193.893 32.2454 195.643 30.7201 197.286 30.5289C198.654 30.3472 200.004 31.1265 200.756 32.2215C201.001 32.5753 201.177 32.9578 201.299 33.3594C201.69 34.6121 201.348 35.6114 202.282 36.0752C202.966 36.5151 206.916 36.7733 206.261 35.4058C204.711 33.4694 201.397 32.3171 201.216 29.4483C201.113 27.2728 203.948 26.1826 203.787 23.9975C203.738 23.1704 203.411 22.4914 202.863 21.889C201.499 20.3207 198.439 20.2776 197.672 22.3958C197.3 23.3329 197.701 24.5761 198.679 24.9538C199.055 25.1068 199.471 25.0972 199.813 24.9538C200.571 24.6478 201.03 23.4811 200.194 23.266C199.823 23.1273 198.454 23.768 198.61 23.0508C199.422 21.0379 202.384 22.2954 202.374 24.2127C202.599 26.35 199.202 28.7693 196.636 29.4578C194.211 30.0173 194.25 28.6115 194.358 26.9381C194.397 24.992 194.348 19.919 194.299 16.9737C194.226 14.8699 194.485 13.163 192.974 11.9246C191.967 11.1883 190.423 10.9444 189.763 11.5612L189.748 11.5851V11.5804Z" fill="#1A1A1A"/>
</g>
<defs>
<clipPath id="clip0_386_115">
<rect width="350" height="48" fill="white"/>
</clipPath>
</defs>
</svg>
